<?xml version="1.0" encoding="us-ascii" standalone="no"?><svg xmlns="http://www.w3.org/2000/svg" xmlns:xlink="http://www.w3.org/1999/xlink" contentStyleType="text/css" height="1809px" preserveAspectRatio="none" style="width:1511px;height:1809px;background:#FFFFFF;" version="1.1" viewBox="0 0 1511 1809" width="1511px" zoomAndPan="magnify"><defs/><g><line style="stroke:#181818;stroke-width:1.5;" x1="187" x2="187" y1="64.4001" y2="84.4001"/><rect fill="#F1F1F1" height="34.4001" style="stroke:#181818;stroke-width:1.5;" width="118" x="128" y="84.4001"/><text fill="#000000" font-family="monospace" font-size="12" lengthAdjust="spacing" textLength="98" x="138" y="105.5122">CPackForServer</text><line style="stroke:#181818;stroke-width:1.5;" x1="177" x2="187" y1="151.0003" y2="151.0003"/><rect fill="#F1F1F1" height="34.4001" style="stroke:#181818;stroke-width:1.5;" width="111" x="66" y="133.8002"/><text fill="#000000" font-family="monospace" font-size="12" lengthAdjust="spacing" textLength="91" x="76" y="154.9123">ArrangeStacks</text><line style="stroke:#181818;stroke-width:1.5;" x1="177" x2="187" y1="200.4004" y2="200.4004"/><rect fill="#F1F1F1" height="34.4001" style="stroke:#181818;stroke-width:1.5;" width="83" x="94" y="183.2003"/><text fill="#000000" font-family="monospace" font-size="12" lengthAdjust="spacing" textLength="63" x="104" y="204.3124">BuildBoat</text><line style="stroke:#181818;stroke-width:1.5;" x1="177" x2="187" y1="249.8005" y2="249.8005"/><rect fill="#F1F1F1" height="34.4001" style="stroke:#181818;stroke-width:1.5;" width="167" x="10" y="232.6004"/><text fill="#000000" font-family="monospace" font-size="12" lengthAdjust="spacing" textLength="147" x="20" y="253.7125">BulkExchangeArtifacts</text><line style="stroke:#181818;stroke-width:1.5;" x1="177" x2="187" y1="299.2006" y2="299.2006"/><rect fill="#F1F1F1" height="34.4001" style="stroke:#181818;stroke-width:1.5;" width="104" x="73" y="282.0005"/><text fill="#000000" font-family="monospace" font-size="12" lengthAdjust="spacing" textLength="84" x="83" y="303.1126">BulkMoveArmy</text><line style="stroke:#181818;stroke-width:1.5;" x1="177" x2="187" y1="348.6007" y2="348.6007"/><rect fill="#F1F1F1" height="34.4001" style="stroke:#181818;stroke-width:1.5;" width="118" x="59" y="331.4006"/><text fill="#000000" font-family="monospace" font-size="12" lengthAdjust="spacing" textLength="98" x="69" y="352.5127">BulkSplitStack</text><line style="stroke:#181818;stroke-width:1.5;" x1="177" x2="187" y1="398.0008" y2="398.0008"/><rect fill="#F1F1F1" height="34.4001" style="stroke:#181818;stroke-width:1.5;" width="104" x="73" y="380.8007"/><text fill="#000000" font-family="monospace" font-size="12" lengthAdjust="spacing" textLength="84" x="83" y="401.9128">CastAdvSpell</text><line style="stroke:#181818;stroke-width:1.5;" x1="177" x2="187" y1="447.4009" y2="447.4009"/><rect fill="#F1F1F1" height="34.4001" style="stroke:#181818;stroke-width:1.5;" width="97" x="80" y="430.2008"/><text fill="#000000" font-family="monospace" font-size="12" lengthAdjust="spacing" textLength="77" x="90" y="451.3129">DigWithHero</text><line style="stroke:#181818;stroke-width:1.5;" x1="177" x2="187" y1="496.801" y2="496.801"/><rect fill="#F1F1F1" height="34.4001" style="stroke:#181818;stroke-width:1.5;" width="97" x="80" y="479.6009"/><text fill="#000000" font-family="monospace" font-size="12" lengthAdjust="spacing" textLength="77" x="90" y="500.713">DismissHero</text><line style="stroke:#181818;stroke-width:1.5;" x1="177" x2="187" y1="546.2011" y2="546.2011"/><rect fill="#F1F1F1" height="34.4001" style="stroke:#181818;stroke-width:1.5;" width="167" x="10" y="529.001"/><text fill="#000000" font-family="monospace" font-size="12" lengthAdjust="spacing" textLength="147" x="20" y="550.1131">EraseArtifactByClient</text><line style="stroke:#181818;stroke-width:1.5;" x1="177" x2="187" y1="595.6012" y2="595.6012"/><rect fill="#F1F1F1" height="34.4001" style="stroke:#181818;stroke-width:1.5;" width="132" x="45" y="578.4011"/><text fill="#000000" font-family="monospace" font-size="12" lengthAdjust="spacing" textLength="112" x="55" y="599.5132">GarrisonHeroSwap</text><line style="stroke:#181818;stroke-width:1.5;" x1="177" x2="187" y1="645.0013" y2="645.0013"/><rect fill="#F1F1F1" height="34.4001" style="stroke:#181818;stroke-width:1.5;" width="90" x="87" y="627.8012"/><text fill="#000000" font-family="monospace" font-size="12" lengthAdjust="spacing" textLength="70" x="97" y="648.9133">MakeAction</text><line style="stroke:#181818;stroke-width:1.5;" x1="177" x2="187" y1="694.4014" y2="694.4014"/><rect fill="#F1F1F1" height="34.4001" style="stroke:#181818;stroke-width:1.5;" width="76" x="101" y="677.2013"/><text fill="#000000" font-family="monospace" font-size="12" lengthAdjust="spacing" textLength="56" x="111" y="698.3134">MoveHero</text><line style="stroke:#181818;stroke-width:1.5;" x1="177" x2="187" y1="743.8015" y2="743.8015"/><rect fill="#F1F1F1" height="34.4001" style="stroke:#181818;stroke-width:1.5;" width="90" x="87" y="726.6014"/><text fill="#000000" font-family="monospace" font-size="12" lengthAdjust="spacing" textLength="70" x="97" y="747.7135">QueryReply</text><line style="stroke:#181818;stroke-width:1.5;" x1="177" x2="187" y1="793.2016" y2="793.2016"/><rect fill="#F1F1F1" height="34.4001" style="stroke:#181818;stroke-width:1.5;" width="76" x="101" y="776.0015"/><text fill="#000000" font-family="monospace" font-size="12" lengthAdjust="spacing" textLength="56" x="111" y="797.1136">SaveGame</text><line style="stroke:#181818;stroke-width:1.5;" x1="177" x2="187" y1="842.6017" y2="842.6017"/><rect fill="#F1F1F1" height="34.4001" style="stroke:#181818;stroke-width:1.5;" width="146" x="31" y="825.4016"/><text fill="#000000" font-family="monospace" font-size="12" lengthAdjust="spacing" textLength="126" x="41" y="846.5137">TradeOnMarketplace</text><line style="stroke:#181818;stroke-width:1.5;" x1="187" x2="197" y1="151.0003" y2="151.0003"/><rect fill="#F1F1F1" height="34.4001" style="stroke:#181818;stroke-width:1.5;" width="139" x="197" y="133.8002"/><text fill="#000000" font-family="monospace" font-size="12" lengthAdjust="spacing" textLength="119" x="207" y="154.9123">AssembleArtifacts</text><line style="stroke:#181818;stroke-width:1.5;" x1="187" x2="197" y1="200.4004" y2="200.4004"/><rect fill="#F1F1F1" height="34.4001" style="stroke:#181818;stroke-width:1.5;" width="118" x="197" y="183.2003"/><text fill="#000000" font-family="monospace" font-size="12" lengthAdjust="spacing" textLength="98" x="207" y="204.3124">BuildStructure</text><line style="stroke:#181818;stroke-width:1.5;" x1="187" x2="197" y1="249.8005" y2="249.8005"/><rect fill="#F1F1F1" height="34.4001" style="stroke:#181818;stroke-width:1.5;" width="125" x="197" y="232.6004"/><text fill="#000000" font-family="monospace" font-size="12" lengthAdjust="spacing" textLength="105" x="207" y="253.7125">BulkMergeStacks</text><line style="stroke:#181818;stroke-width:1.5;" x1="187" x2="197" y1="299.2006" y2="299.2006"/><rect fill="#F1F1F1" height="34.4001" style="stroke:#181818;stroke-width:1.5;" width="153" x="197" y="282.0005"/><text fill="#000000" font-family="monospace" font-size="12" lengthAdjust="spacing" textLength="133" x="207" y="303.1126">BulkSmartSplitStack</text><line style="stroke:#181818;stroke-width:1.5;" x1="187" x2="197" y1="348.6007" y2="348.6007"/><rect fill="#F1F1F1" height="34.4001" style="stroke:#181818;stroke-width:1.5;" width="97" x="197" y="331.4006"/><text fill="#000000" font-family="monospace" font-size="12" lengthAdjust="spacing" textLength="77" x="207" y="352.5127">BuyArtifact</text><line style="stroke:#181818;stroke-width:1.5;" x1="187" x2="197" y1="398.0008" y2="398.0008"/><rect fill="#F1F1F1" height="34.4001" style="stroke:#181818;stroke-width:1.5;" width="146" x="197" y="380.8007"/><text fill="#000000" font-family="monospace" font-size="12" lengthAdjust="spacing" textLength="126" x="207" y="401.9128">CastleTeleportHero</text><line style="stroke:#181818;stroke-width:1.5;" x1="187" x2="197" y1="447.4009" y2="447.4009"/><rect fill="#F1F1F1" height="34.4001" style="stroke:#181818;stroke-width:1.5;" width="125" x="197" y="430.2008"/><text fill="#000000" font-family="monospace" font-size="12" lengthAdjust="spacing" textLength="105" x="207" y="451.3129">DisbandCreature</text><line style="stroke:#181818;stroke-width:1.5;" x1="187" x2="197" y1="496.801" y2="496.801"/><rect fill="#F1F1F1" height="34.4001" style="stroke:#181818;stroke-width:1.5;" width="69" x="197" y="479.6009"/><text fill="#000000" font-family="monospace" font-size="12" lengthAdjust="spacing" textLength="49" x="207" y="500.713">EndTurn</text><line style="stroke:#181818;stroke-width:1.5;" x1="187" x2="197" y1="546.2011" y2="546.2011"/><rect fill="#F1F1F1" height="34.4001" style="stroke:#181818;stroke-width:1.5;" width="139" x="197" y="529.001"/><text fill="#000000" font-family="monospace" font-size="12" lengthAdjust="spacing" textLength="119" x="207" y="550.1131">ExchangeArtifacts</text><line style="stroke:#181818;stroke-width:1.5;" x1="187" x2="197" y1="595.6012" y2="595.6012"/><rect fill="#F1F1F1" height="34.4001" style="stroke:#181818;stroke-width:1.5;" width="76" x="197" y="578.4011"/><text fill="#000000" font-family="monospace" font-size="12" lengthAdjust="spacing" textLength="56" x="207" y="599.5132">HireHero</text><line style="stroke:#181818;stroke-width:1.5;" x1="187" x2="197" y1="645.0013" y2="645.0013"/><rect fill="#F1F1F1" height="34.4001" style="stroke:#181818;stroke-width:1.5;" width="132" x="197" y="627.8012"/><text fill="#000000" font-family="monospace" font-size="12" lengthAdjust="spacing" textLength="112" x="207" y="648.9133">MakeCustomAction</text><line style="stroke:#181818;stroke-width:1.5;" x1="187" x2="197" y1="694.4014" y2="694.4014"/><rect fill="#F1F1F1" height="34.4001" style="stroke:#181818;stroke-width:1.5;" width="111" x="197" y="677.2013"/><text fill="#000000" font-family="monospace" font-size="12" lengthAdjust="spacing" textLength="91" x="207" y="698.3134">PlayerMessage</text><line style="stroke:#181818;stroke-width:1.5;" x1="187" x2="197" y1="743.8015" y2="743.8015"/><rect fill="#F1F1F1" height="34.4001" style="stroke:#181818;stroke-width:1.5;" width="132" x="197" y="726.6014"/><text fill="#000000" font-family="monospace" font-size="12" lengthAdjust="spacing" textLength="112" x="207" y="747.7135">RecruitCreatures</text><line style="stroke:#181818;stroke-width:1.5;" x1="187" x2="197" y1="793.2016" y2="793.2016"/><rect fill="#F1F1F1" height="34.4001" style="stroke:#181818;stroke-width:1.5;" width="104" x="197" y="776.0015"/><text fill="#000000" font-family="monospace" font-size="12" lengthAdjust="spacing" textLength="84" x="207" y="797.1136">SetFormation</text><line style="stroke:#181818;stroke-width:1.5;" x1="187" x2="197" y1="842.6017" y2="842.6017"/><rect fill="#F1F1F1" height="34.4001" style="stroke:#181818;stroke-width:1.5;" width="125" x="197" y="825.4016"/><text fill="#000000" font-family="monospace" font-size="12" lengthAdjust="spacing" textLength="105" x="207" y="846.5137">UpgradeCreature</text><line style="stroke:#181818;stroke-width:1.5;" x1="187" x2="187" y1="118.8002" y2="842.6017"/><line style="stroke:#181818;stroke-width:1.5;" x1="547" x2="547" y1="64.4001" y2="84.4001"/><rect fill="#F1F1F1" height="34.4001" style="stroke:#181818;stroke-width:1.5;" width="118" x="488" y="84.4001"/><text fill="#000000" font-family="monospace" font-size="12" lengthAdjust="spacing" textLength="98" x="498" y="105.5122">CPackForClient</text><line style="stroke:#181818;stroke-width:1.5;" x1="537" x2="547" y1="151.0003" y2="151.0003"/><rect fill="#F1F1F1" height="34.4001" style="stroke:#181818;stroke-width:1.5;" width="76" x="461" y="133.8002"/><text fill="#000000" font-family="monospace" font-size="12" lengthAdjust="spacing" textLength="56" x="471" y="154.9123">AddQuest</text><line style="stroke:#181818;stroke-width:1.5;" x1="537" x2="547" y1="200.4004" y2="200.4004"/><rect fill="#F1F1F1" height="34.4001" style="stroke:#181818;stroke-width:1.5;" width="104" x="433" y="183.2003"/><text fill="#000000" font-family="monospace" font-size="12" lengthAdjust="spacing" textLength="84" x="443" y="204.3124">BattleAttack</text><line style="stroke:#181818;stroke-width:1.5;" x1="537" x2="547" y1="249.8005" y2="249.8005"/><rect fill="#F1F1F1" height="34.4001" style="stroke:#181818;stroke-width:1.5;" width="125" x="412" y="232.6004"/><text fill="#000000" font-family="monospace" font-size="12" lengthAdjust="spacing" textLength="105" x="422" y="253.7125">BattleNextRound</text><line style="stroke:#181818;stroke-width:1.5;" x1="537" x2="547" y1="299.2006" y2="299.2006"/><rect fill="#F1F1F1" height="34.4001" style="stroke:#181818;stroke-width:1.5;" width="160" x="377" y="282.0005"/><text fill="#000000" font-family="monospace" font-size="12" lengthAdjust="spacing" textLength="140" x="387" y="303.1126">BattleResultAccepted</text><line style="stroke:#181818;stroke-width:1.5;" x1="537" x2="547" y1="348.6007" y2="348.6007"/><rect fill="#F1F1F1" height="34.4001" style="stroke:#181818;stroke-width:1.5;" width="160" x="377" y="331.4006"/><text fill="#000000" font-family="monospace" font-size="12" lengthAdjust="spacing" textLength="140" x="387" y="352.5127">BattleSetActiveStack</text><line style="stroke:#181818;stroke-width:1.5;" x1="537" x2="547" y1="398.0008" y2="398.0008"/><rect fill="#F1F1F1" height="34.4001" style="stroke:#181818;stroke-width:1.5;" width="125" x="412" y="380.8007"/><text fill="#000000" font-family="monospace" font-size="12" lengthAdjust="spacing" textLength="105" x="422" y="401.9128">BattleSpellCast</text><line style="stroke:#181818;stroke-width:1.5;" x1="537" x2="547" y1="447.4009" y2="447.4009"/><rect fill="#F1F1F1" height="34.4001" style="stroke:#181818;stroke-width:1.5;" width="97" x="440" y="430.2008"/><text fill="#000000" font-family="monospace" font-size="12" lengthAdjust="spacing" textLength="77" x="450" y="451.3129">BattleStart</text><line style="stroke:#181818;stroke-width:1.5;" x1="537" x2="547" y1="496.801" y2="496.801"/><rect fill="#F1F1F1" height="34.4001" style="stroke:#181818;stroke-width:1.5;" width="146" x="391" y="479.6009"/><text fill="#000000" font-family="monospace" font-size="12" lengthAdjust="spacing" textLength="126" x="401" y="500.713">BattleUnitsChanged</text><line style="stroke:#181818;stroke-width:1.5;" x1="537" x2="547" y1="546.2011" y2="546.2011"/><rect fill="#F1F1F1" height="34.4001" style="stroke:#181818;stroke-width:1.5;" width="118" x="419" y="529.001"/><text fill="#000000" font-family="monospace" font-size="12" lengthAdjust="spacing" textLength="98" x="429" y="550.1131">CatapultAttack</text><line style="stroke:#181818;stroke-width:1.5;" x1="537" x2="547" y1="595.6012" y2="595.6012"/><rect fill="#F1F1F1" height="34.4001" style="stroke:#181818;stroke-width:1.5;" width="125" x="412" y="578.4011"/><text fill="#000000" font-family="monospace" font-size="12" lengthAdjust="spacing" textLength="105" x="422" y="599.5132">ChangeFormation</text><line style="stroke:#181818;stroke-width:1.5;" x1="537" x2="547" y1="645.0013" y2="645.0013"/><rect fill="#F1F1F1" height="34.4001" style="stroke:#181818;stroke-width:1.5;" width="160" x="377" y="627.8012"/><text fill="#000000" font-family="monospace" font-size="12" lengthAdjust="spacing" textLength="140" x="387" y="648.9133">ChangeObjectVisitors</text><line style="stroke:#181818;stroke-width:1.5;" x1="537" x2="547" y1="694.4014" y2="694.4014"/><rect fill="#F1F1F1" height="34.4001" style="stroke:#181818;stroke-width:1.5;" width="83" x="454" y="677.2013"/><text fill="#000000" font-family="monospace" font-size="12" lengthAdjust="spacing" textLength="63" x="464" y="698.3134">EndAction</text><line style="stroke:#181818;stroke-width:1.5;" x1="537" x2="547" y1="743.8015" y2="743.8015"/><rect fill="#F1F1F1" height="34.4001" style="stroke:#181818;stroke-width:1.5;" width="83" x="454" y="726.6014"/><text fill="#000000" font-family="monospace" font-size="12" lengthAdjust="spacing" textLength="63" x="464" y="747.7135">FoWChange</text><line style="stroke:#181818;stroke-width:1.5;" x1="537" x2="547" y1="793.2016" y2="793.2016"/><rect fill="#F1F1F1" height="34.4001" style="stroke:#181818;stroke-width:1.5;" width="76" x="461" y="776.0015"/><text fill="#000000" font-family="monospace" font-size="12" lengthAdjust="spacing" textLength="56" x="471" y="797.1136">GiveHero</text><line style="stroke:#181818;stroke-width:1.5;" x1="537" x2="547" y1="842.6017" y2="842.6017"/><rect fill="#F1F1F1" height="34.4001" style="stroke:#181818;stroke-width:1.5;" width="83" x="454" y="825.4016"/><text fill="#000000" font-family="monospace" font-size="12" lengthAdjust="spacing" textLength="63" x="464" y="846.5137">HeroVisit</text><line style="stroke:#181818;stroke-width:1.5;" x1="537" x2="547" y1="892.0018" y2="892.0018"/><rect fill="#F1F1F1" height="34.4001" style="stroke:#181818;stroke-width:1.5;" width="90" x="447" y="874.8017"/><text fill="#000000" font-family="monospace" font-size="12" lengthAdjust="spacing" textLength="70" x="457" y="895.9138">InfoWindow</text><line style="stroke:#181818;stroke-width:1.5;" x1="537" x2="547" y1="941.4019" y2="941.4019"/><rect fill="#F1F1F1" height="34.4001" style="stroke:#181818;stroke-width:1.5;" width="111" x="426" y="924.2018"/><text fill="#000000" font-family="monospace" font-size="12" lengthAdjust="spacing" textLength="91" x="436" y="945.3139">NewStructures</text><line style="stroke:#181818;stroke-width:1.5;" x1="537" x2="547" y1="990.802" y2="990.802"/><rect fill="#F1F1F1" height="34.4001" style="stroke:#181818;stroke-width:1.5;" width="90" x="447" y="973.6019"/><text fill="#000000" font-family="monospace" font-size="12" lengthAdjust="spacing" textLength="70" x="457" y="994.714">OpenWindow</text><line style="stroke:#181818;stroke-width:1.5;" x1="537" x2="547" y1="1040.2021" y2="1040.2021"/><rect fill="#F1F1F1" height="34.4001" style="stroke:#181818;stroke-width:1.5;" width="111" x="426" y="1023.002"/><text fill="#000000" font-family="monospace" font-size="12" lengthAdjust="spacing" textLength="91" x="436" y="1044.1141">PlayerBlocked</text><line style="stroke:#181818;stroke-width:1.5;" x1="537" x2="547" y1="1089.6022" y2="1089.6022"/><rect fill="#F1F1F1" height="34.4001" style="stroke:#181818;stroke-width:1.5;" width="118" x="419" y="1072.4021"/><text fill="#000000" font-family="monospace" font-size="12" lengthAdjust="spacing" textLength="98" x="429" y="1093.5142">PlayerEndsGame</text><line style="stroke:#181818;stroke-width:1.5;" x1="537" x2="547" y1="1139.0023" y2="1139.0023"/><rect fill="#F1F1F1" height="34.4001" style="stroke:#181818;stroke-width:1.5;" width="167" x="370" y="1121.8022"/><text fill="#000000" font-family="monospace" font-size="12" lengthAdjust="spacing" textLength="147" x="380" y="1142.9143">PlayerReinitInterface</text><line style="stroke:#181818;stroke-width:1.5;" x1="537" x2="547" y1="1188.4024" y2="1188.4024"/><rect fill="#F1F1F1" height="34.4001" style="stroke:#181818;stroke-width:1.5;" width="55" x="482" y="1171.2023"/><text fill="#000000" font-family="monospace" font-size="12" lengthAdjust="spacing" textLength="35" x="492" y="1192.3144">Query</text><line style="stroke:#181818;stroke-width:1.5;" x1="537" x2="547" y1="1237.8025" y2="1237.8025"/><rect fill="#F1F1F1" height="34.4001" style="stroke:#181818;stroke-width:1.5;" width="97" x="440" y="1220.6024"/><text fill="#000000" font-family="monospace" font-size="12" lengthAdjust="spacing" textLength="77" x="450" y="1241.7145">RemoveBonus</text><line style="stroke:#181818;stroke-width:1.5;" x1="537" x2="547" y1="1287.2026" y2="1287.2026"/><rect fill="#F1F1F1" height="34.4001" style="stroke:#181818;stroke-width:1.5;" width="167" x="370" y="1270.0025"/><text fill="#000000" font-family="monospace" font-size="12" lengthAdjust="spacing" textLength="147" x="380" y="1291.1146">SetAvailableArtifacts</text><line style="stroke:#181818;stroke-width:1.5;" x1="537" x2="547" y1="1336.6027" y2="1336.6027"/><rect fill="#F1F1F1" height="34.4001" style="stroke:#181818;stroke-width:1.5;" width="132" x="405" y="1319.4026"/><text fill="#000000" font-family="monospace" font-size="12" lengthAdjust="spacing" textLength="112" x="415" y="1340.5147">SetAvailableHero</text><line style="stroke:#181818;stroke-width:1.5;" x1="537" x2="547" y1="1386.0028" y2="1386.0028"/><rect fill="#F1F1F1" height="34.4001" style="stroke:#181818;stroke-width:1.5;" width="125" x="412" y="1368.8027"/><text fill="#000000" font-family="monospace" font-size="12" lengthAdjust="spacing" textLength="105" x="422" y="1389.9148">SetHeroesInTown</text><line style="stroke:#181818;stroke-width:1.5;" x1="537" x2="547" y1="1435.4029" y2="1435.4029"/><rect fill="#F1F1F1" height="34.4001" style="stroke:#181818;stroke-width:1.5;" width="111" x="426" y="1418.2028"/><text fill="#000000" font-family="monospace" font-size="12" lengthAdjust="spacing" textLength="91" x="436" y="1439.3149">SetMovePoints</text><line style="stroke:#181818;stroke-width:1.5;" x1="537" x2="547" y1="1484.803" y2="1484.803"/><rect fill="#F1F1F1" height="34.4001" style="stroke:#181818;stroke-width:1.5;" width="104" x="433" y="1467.6029"/><text fill="#000000" font-family="monospace" font-size="12" lengthAdjust="spacing" textLength="84" x="443" y="1488.715">SetPrimSkill</text><line style="stroke:#181818;stroke-width:1.5;" x1="537" x2="547" y1="1534.2031" y2="1534.2031"/><rect fill="#F1F1F1" height="34.4001" style="stroke:#181818;stroke-width:1.5;" width="97" x="440" y="1517.003"/><text fill="#000000" font-family="monospace" font-size="12" lengthAdjust="spacing" textLength="77" x="450" y="1538.1151">SetSecSkill</text><line style="stroke:#181818;stroke-width:1.5;" x1="537" x2="547" y1="1583.6032" y2="1583.6032"/><rect fill="#F1F1F1" height="34.4001" style="stroke:#181818;stroke-width:1.5;" width="125" x="412" y="1566.4031"/><text fill="#000000" font-family="monospace" font-size="12" lengthAdjust="spacing" textLength="105" x="422" y="1587.5152">ShowWorldViewEx</text><line style="stroke:#181818;stroke-width:1.5;" x1="537" x2="547" y1="1633.0033" y2="1633.0033"/><rect fill="#F1F1F1" height="34.4001" style="stroke:#181818;stroke-width:1.5;" width="97" x="440" y="1615.8032"/><text fill="#000000" font-family="monospace" font-size="12" lengthAdjust="spacing" textLength="77" x="450" y="1636.9153">StartAction</text><line style="stroke:#181818;stroke-width:1.5;" x1="537" x2="547" y1="1682.4034" y2="1682.4034"/><rect fill="#F1F1F1" height="34.4001" style="stroke:#181818;stroke-width:1.5;" width="97" x="440" y="1665.2033"/><text fill="#000000" font-family="monospace" font-size="12" lengthAdjust="spacing" textLength="77" x="450" y="1686.3154">TryMoveHero</text><line style="stroke:#181818;stroke-width:1.5;" x1="537" x2="547" y1="1731.8035" y2="1731.8035"/><rect fill="#F1F1F1" height="34.4001" style="stroke:#181818;stroke-width:1.5;" width="146" x="391" y="1714.6034"/><text fill="#000000" font-family="monospace" font-size="12" lengthAdjust="spacing" textLength="126" x="401" y="1735.7155">UpdateCastleEvents</text><line style="stroke:#181818;stroke-width:1.5;" x1="537" x2="547" y1="1781.2036" y2="1781.2036"/><rect fill="#F1F1F1" height="34.4001" style="stroke:#181818;stroke-width:1.5;" width="76" x="461" y="1764.0035"/><text fill="#000000" font-family="monospace" font-size="12" lengthAdjust="spacing" textLength="56" x="471" y="1785.1156">YourTurn</text><line style="stroke:#181818;stroke-width:1.5;" x1="547" x2="557" y1="151.0003" y2="151.0003"/><rect fill="#F1F1F1" height="34.4001" style="stroke:#181818;stroke-width:1.5;" width="125" x="557" y="133.8002"/><text fill="#000000" font-family="monospace" font-size="12" lengthAdjust="spacing" textLength="105" x="567" y="154.9123">AdvmapSpellCast</text><line style="stroke:#181818;stroke-width:1.5;" x1="547" x2="557" y1="200.4004" y2="200.4004"/><rect fill="#F1F1F1" height="34.4001" style="stroke:#181818;stroke-width:1.5;" width="132" x="557" y="183.2003"/><text fill="#000000" font-family="monospace" font-size="12" lengthAdjust="spacing" textLength="112" x="567" y="204.3124">BattleLogMessage</text><line style="stroke:#181818;stroke-width:1.5;" x1="547" x2="557" y1="249.8005" y2="249.8005"/><rect fill="#F1F1F1" height="34.4001" style="stroke:#181818;stroke-width:1.5;" width="174" x="557" y="232.6004"/><text fill="#000000" font-family="monospace" font-size="12" lengthAdjust="spacing" textLength="154" x="567" y="253.7125">BattleObstaclesChanged</text><line style="stroke:#181818;stroke-width:1.5;" x1="547" x2="557" y1="299.2006" y2="299.2006"/><rect fill="#F1F1F1" height="34.4001" style="stroke:#181818;stroke-width:1.5;" width="160" x="557" y="282.0005"/><text fill="#000000" font-family="monospace" font-size="12" lengthAdjust="spacing" textLength="140" x="567" y="303.1126">BattleResultsApplied</text><line style="stroke:#181818;stroke-width:1.5;" x1="547" x2="557" y1="348.6007" y2="348.6007"/><rect fill="#F1F1F1" height="34.4001" style="stroke:#181818;stroke-width:1.5;" width="174" x="557" y="331.4006"/><text fill="#000000" font-family="monospace" font-size="12" lengthAdjust="spacing" textLength="154" x="567" y="352.5127">BattleSetStackProperty</text><line style="stroke:#181818;stroke-width:1.5;" x1="547" x2="557" y1="398.0008" y2="398.0008"/><rect fill="#F1F1F1" height="34.4001" style="stroke:#181818;stroke-width:1.5;" width="132" x="557" y="380.8007"/><text fill="#000000" font-family="monospace" font-size="12" lengthAdjust="spacing" textLength="112" x="567" y="401.9128">BattleStackMoved</text><line style="stroke:#181818;stroke-width:1.5;" x1="547" x2="557" y1="447.4009" y2="447.4009"/><rect fill="#F1F1F1" height="34.4001" style="stroke:#181818;stroke-width:1.5;" width="153" x="557" y="430.2008"/><text fill="#000000" font-family="monospace" font-size="12" lengthAdjust="spacing" textLength="133" x="567" y="451.3129">BattleTriggerEffect</text><line style="stroke:#181818;stroke-width:1.5;" x1="547" x2="557" y1="496.801" y2="496.801"/><rect fill="#F1F1F1" height="34.4001" style="stroke:#181818;stroke-width:1.5;" width="167" x="557" y="479.6009"/><text fill="#000000" font-family="monospace" font-size="12" lengthAdjust="spacing" textLength="147" x="567" y="500.713">BattleUpdateGateState</text><line style="stroke:#181818;stroke-width:1.5;" x1="547" x2="557" y1="546.2011" y2="546.2011"/><rect fill="#F1F1F1" height="34.4001" style="stroke:#181818;stroke-width:1.5;" width="90" x="557" y="529.001"/><text fill="#000000" font-family="monospace" font-size="12" lengthAdjust="spacing" textLength="70" x="567" y="550.1131">CenterView</text><line style="stroke:#181818;stroke-width:1.5;" x1="547" x2="557" y1="595.6012" y2="595.6012"/><rect fill="#F1F1F1" height="34.4001" style="stroke:#181818;stroke-width:1.5;" width="104" x="557" y="578.4011"/><text fill="#000000" font-family="monospace" font-size="12" lengthAdjust="spacing" textLength="84" x="567" y="599.5132">ChangeObjPos</text><line style="stroke:#181818;stroke-width:1.5;" x1="547" x2="557" y1="645.0013" y2="645.0013"/><rect fill="#F1F1F1" height="34.4001" style="stroke:#181818;stroke-width:1.5;" width="104" x="557" y="627.8012"/><text fill="#000000" font-family="monospace" font-size="12" lengthAdjust="spacing" textLength="84" x="567" y="648.9133">ChangeSpells</text><line style="stroke:#181818;stroke-width:1.5;" x1="547" x2="557" y1="694.4014" y2="694.4014"/><rect fill="#F1F1F1" height="34.4001" style="stroke:#181818;stroke-width:1.5;" width="125" x="557" y="677.2013"/><text fill="#000000" font-family="monospace" font-size="12" lengthAdjust="spacing" textLength="105" x="567" y="698.3134">EntitiesChanged</text><line style="stroke:#181818;stroke-width:1.5;" x1="547" x2="557" y1="743.8015" y2="743.8015"/><rect fill="#F1F1F1" height="34.4001" style="stroke:#181818;stroke-width:1.5;" width="83" x="557" y="726.6014"/><text fill="#000000" font-family="monospace" font-size="12" lengthAdjust="spacing" textLength="63" x="567" y="747.7135">GiveBonus</text><line style="stroke:#181818;stroke-width:1.5;" x1="547" x2="557" y1="793.2016" y2="793.2016"/><rect fill="#F1F1F1" height="34.4001" style="stroke:#181818;stroke-width:1.5;" width="111" x="557" y="776.0015"/><text fill="#000000" font-family="monospace" font-size="12" lengthAdjust="spacing" textLength="91" x="567" y="797.1136">HeroRecruited</text><line style="stroke:#181818;stroke-width:1.5;" x1="547" x2="557" y1="842.6017" y2="842.6017"/><rect fill="#F1F1F1" height="34.4001" style="stroke:#181818;stroke-width:1.5;" width="125" x="557" y="825.4016"/><text fill="#000000" font-family="monospace" font-size="12" lengthAdjust="spacing" textLength="105" x="567" y="846.5137">HeroVisitCastle</text><line style="stroke:#181818;stroke-width:1.5;" x1="547" x2="557" y1="892.0018" y2="892.0018"/><rect fill="#F1F1F1" height="34.4001" style="stroke:#181818;stroke-width:1.5;" width="83" x="557" y="874.8017"/><text fill="#000000" font-family="monospace" font-size="12" lengthAdjust="spacing" textLength="63" x="567" y="895.9138">NewObject</text><line style="stroke:#181818;stroke-width:1.5;" x1="547" x2="557" y1="941.4019" y2="941.4019"/><rect fill="#F1F1F1" height="34.4001" style="stroke:#181818;stroke-width:1.5;" width="69" x="557" y="924.2018"/><text fill="#000000" font-family="monospace" font-size="12" lengthAdjust="spacing" textLength="49" x="567" y="945.3139">NewTurn</text><line style="stroke:#181818;stroke-width:1.5;" x1="547" x2="557" y1="990.802" y2="990.802"/><rect fill="#F1F1F1" height="34.4001" style="stroke:#181818;stroke-width:1.5;" width="118" x="557" y="973.6019"/><text fill="#000000" font-family="monospace" font-size="12" lengthAdjust="spacing" textLength="98" x="567" y="994.714">PackageApplied</text><line style="stroke:#181818;stroke-width:1.5;" x1="547" x2="557" y1="1040.2021" y2="1040.2021"/><rect fill="#F1F1F1" height="34.4001" style="stroke:#181818;stroke-width:1.5;" width="111" x="557" y="1023.002"/><text fill="#000000" font-family="monospace" font-size="12" lengthAdjust="spacing" textLength="91" x="567" y="1044.1141">PlayerCheated</text><line style="stroke:#181818;stroke-width:1.5;" x1="547" x2="557" y1="1089.6022" y2="1089.6022"/><rect fill="#F1F1F1" height="34.4001" style="stroke:#181818;stroke-width:1.5;" width="153" x="557" y="1072.4021"/><text fill="#000000" font-family="monospace" font-size="12" lengthAdjust="spacing" textLength="133" x="567" y="1093.5142">PlayerMessageClient</text><line style="stroke:#181818;stroke-width:1.5;" x1="547" x2="557" y1="1139.0023" y2="1139.0023"/><rect fill="#F1F1F1" height="34.4001" style="stroke:#181818;stroke-width:1.5;" width="146" x="557" y="1121.8022"/><text fill="#000000" font-family="monospace" font-size="12" lengthAdjust="spacing" textLength="126" x="567" y="1142.9143">PrepareHeroLevelUp</text><line style="stroke:#181818;stroke-width:1.5;" x1="547" x2="557" y1="1188.4024" y2="1188.4024"/><rect fill="#F1F1F1" height="34.4001" style="stroke:#181818;stroke-width:1.5;" width="118" x="557" y="1171.2023"/><text fill="#000000" font-family="monospace" font-size="12" lengthAdjust="spacing" textLength="98" x="567" y="1192.3144">RazeStructures</text><line style="stroke:#181818;stroke-width:1.5;" x1="547" x2="557" y1="1237.8025" y2="1237.8025"/><rect fill="#F1F1F1" height="34.4001" style="stroke:#181818;stroke-width:1.5;" width="104" x="557" y="1220.6024"/><text fill="#000000" font-family="monospace" font-size="12" lengthAdjust="spacing" textLength="84" x="567" y="1241.7145">RemoveObject</text><line style="stroke:#181818;stroke-width:1.5;" x1="547" x2="557" y1="1287.2026" y2="1287.2026"/><rect fill="#F1F1F1" height="34.4001" style="stroke:#181818;stroke-width:1.5;" width="167" x="557" y="1270.0025"/><text fill="#000000" font-family="monospace" font-size="12" lengthAdjust="spacing" textLength="147" x="567" y="1291.1146">SetAvailableCreatures</text><line style="stroke:#181818;stroke-width:1.5;" x1="547" x2="557" y1="1336.6027" y2="1336.6027"/><rect fill="#F1F1F1" height="34.4001" style="stroke:#181818;stroke-width:1.5;" width="160" x="557" y="1319.4026"/><text fill="#000000" font-family="monospace" font-size="12" lengthAdjust="spacing" textLength="140" x="567" y="1340.5147">SetCommanderProperty</text><line style="stroke:#181818;stroke-width:1.5;" x1="547" x2="557" y1="1386.0028" y2="1386.0028"/><rect fill="#F1F1F1" height="34.4001" style="stroke:#181818;stroke-width:1.5;" width="69" x="557" y="1368.8027"/><text fill="#000000" font-family="monospace" font-size="12" lengthAdjust="spacing" textLength="49" x="567" y="1389.9148">SetMana</text><line style="stroke:#181818;stroke-width:1.5;" x1="547" x2="557" y1="1435.4029" y2="1435.4029"/><rect fill="#F1F1F1" height="34.4001" style="stroke:#181818;stroke-width:1.5;" width="139" x="557" y="1418.2028"/><text fill="#000000" font-family="monospace" font-size="12" lengthAdjust="spacing" textLength="119" x="567" y="1439.3149">SetObjectProperty</text><line style="stroke:#181818;stroke-width:1.5;" x1="547" x2="557" y1="1484.803" y2="1484.803"/><rect fill="#F1F1F1" height="34.4001" style="stroke:#181818;stroke-width:1.5;" width="104" x="557" y="1467.6029"/><text fill="#000000" font-family="monospace" font-size="12" lengthAdjust="spacing" textLength="84" x="567" y="1488.715">SetResources</text><line style="stroke:#181818;stroke-width:1.5;" x1="547" x2="557" y1="1534.2031" y2="1534.2031"/><rect fill="#F1F1F1" height="34.4001" style="stroke:#181818;stroke-width:1.5;" width="118" x="557" y="1517.003"/><text fill="#000000" font-family="monospace" font-size="12" lengthAdjust="spacing" textLength="98" x="567" y="1538.1151">SetStackEffect</text><line style="stroke:#181818;stroke-width:1.5;" x1="547" x2="557" y1="1583.6032" y2="1583.6032"/><rect fill="#F1F1F1" height="34.4001" style="stroke:#181818;stroke-width:1.5;" width="111" x="557" y="1566.4031"/><text fill="#000000" font-family="monospace" font-size="12" lengthAdjust="spacing" textLength="91" x="567" y="1587.5152">StacksInjured</text><line style="stroke:#181818;stroke-width:1.5;" x1="547" x2="557" y1="1633.0033" y2="1633.0033"/><rect fill="#F1F1F1" height="34.4001" style="stroke:#181818;stroke-width:1.5;" width="111" x="557" y="1615.8032"/><text fill="#000000" font-family="monospace" font-size="12" lengthAdjust="spacing" textLength="91" x="567" y="1636.9153">SystemMessage</text><line style="stroke:#181818;stroke-width:1.5;" x1="547" x2="557" y1="1682.4034" y2="1682.4034"/><rect fill="#F1F1F1" height="34.4001" style="stroke:#181818;stroke-width:1.5;" width="167" x="557" y="1665.2033"/><text fill="#000000" font-family="monospace" font-size="12" lengthAdjust="spacing" textLength="147" x="567" y="1686.3154">UpdateArtHandlerLists</text><line style="stroke:#181818;stroke-width:1.5;" x1="547" x2="557" y1="1731.8035" y2="1731.8035"/><rect fill="#F1F1F1" height="34.4001" style="stroke:#181818;stroke-width:1.5;" width="125" x="557" y="1714.6034"/><text fill="#000000" font-family="monospace" font-size="12" lengthAdjust="spacing" textLength="105" x="567" y="1735.7155">UpdateMapEvents</text><line style="stroke:#181818;stroke-width:1.5;" x1="547" x2="547" y1="118.8002" y2="1781.2036"/><line style="stroke:#181818;stroke-width:1.5;" x1="1129" x2="1129" y1="64.4001" y2="84.4001"/><rect fill="#F1F1F1" height="34.4001" style="stroke:#181818;stroke-width:1.5;" width="111" x="1073.5" y="84.4001"/><text fill="#000000" font-family="monospace" font-size="12" lengthAdjust="spacing" textLength="91" x="1083.5" y="105.5122">CPackForLobby</text><line style="stroke:#181818;stroke-width:1.5;" x1="1015" x2="1129" y1="151.0003" y2="151.0003"/><rect fill="#F1F1F1" height="34.4001" style="stroke:#181818;stroke-width:1.5;" width="146" x="869" y="133.8002"/><text fill="#000000" font-family="monospace" font-size="12" lengthAdjust="spacing" textLength="126" x="879" y="154.9123">CLobbyPackToServer</text><line style="stroke:#181818;stroke-width:1.5;" x1="932" x2="942" y1="200.4004" y2="200.4004"/><rect fill="#F1F1F1" height="34.4001" style="stroke:#181818;stroke-width:1.5;" width="181" x="751" y="183.2003"/><text fill="#000000" font-family="monospace" font-size="12" lengthAdjust="spacing" textLength="161" x="761" y="204.3124">LobbyChangePlayerOption</text><line style="stroke:#181818;stroke-width:1.5;" x1="932" x2="942" y1="249.8005" y2="249.8005"/><rect fill="#F1F1F1" height="34.4001" style="stroke:#181818;stroke-width:1.5;" width="132" x="800" y="232.6004"/><text fill="#000000" font-family="monospace" font-size="12" lengthAdjust="spacing" textLength="112" x="810" y="253.7125">LobbySetCampaign</text><line style="stroke:#181818;stroke-width:1.5;" x1="932" x2="942" y1="299.2006" y2="299.2006"/><rect fill="#F1F1F1" height="34.4001" style="stroke:#181818;stroke-width:1.5;" width="153" x="779" y="282.0005"/><text fill="#000000" font-family="monospace" font-size="12" lengthAdjust="spacing" textLength="133" x="789" y="303.1126">LobbySetCampaignMap</text><line style="stroke:#181818;stroke-width:1.5;" x1="932" x2="942" y1="348.6007" y2="348.6007"/><rect fill="#F1F1F1" height="34.4001" style="stroke:#181818;stroke-width:1.5;" width="97" x="835" y="331.4006"/><text fill="#000000" font-family="monospace" font-size="12" lengthAdjust="spacing" textLength="77" x="845" y="352.5127">LobbySetMap</text><line style="stroke:#181818;stroke-width:1.5;" x1="942" x2="952" y1="200.4004" y2="200.4004"/><rect fill="#F1F1F1" height="34.4001" style="stroke:#181818;stroke-width:1.5;" width="153" x="952" y="183.2003"/><text fill="#000000" font-family="monospace" font-size="12" lengthAdjust="spacing" textLength="133" x="962" y="204.3124">LobbyForceSetPlayer</text><line style="stroke:#181818;stroke-width:1.5;" x1="942" x2="952" y1="249.8005" y2="249.8005"/><rect fill="#F1F1F1" height="34.4001" style="stroke:#181818;stroke-width:1.5;" width="167" x="952" y="232.6004"/><text fill="#000000" font-family="monospace" font-size="12" lengthAdjust="spacing" textLength="147" x="962" y="253.7125">LobbySetCampaignBonus</text><line style="stroke:#181818;stroke-width:1.5;" x1="942" x2="952" y1="299.2006" y2="299.2006"/><rect fill="#F1F1F1" height="34.4001" style="stroke:#181818;stroke-width:1.5;" width="146" x="952" y="282.0005"/><text fill="#000000" font-family="monospace" font-size="12" lengthAdjust="spacing" textLength="126" x="962" y="303.1126">LobbySetDifficulty</text><line style="stroke:#181818;stroke-width:1.5;" x1="942" x2="952" y1="348.6007" y2="348.6007"/><rect fill="#F1F1F1" height="34.4001" style="stroke:#181818;stroke-width:1.5;" width="118" x="952" y="331.4006"/><text fill="#000000" font-family="monospace" font-size="12" lengthAdjust="spacing" textLength="98" x="962" y="352.5127">LobbySetPlayer</text><line style="stroke:#181818;stroke-width:1.5;" x1="942" x2="952" y1="398.0008" y2="398.0008"/><rect fill="#F1F1F1" height="34.4001" style="stroke:#181818;stroke-width:1.5;" width="132" x="952" y="380.8007"/><text fill="#000000" font-family="monospace" font-size="12" lengthAdjust="spacing" textLength="112" x="962" y="401.9128">LobbySetTurnTime</text><line style="stroke:#181818;stroke-width:1.5;" x1="942" x2="942" y1="168.2003" y2="398.0008"/><line style="stroke:#181818;stroke-width:1.5;" x1="1129" x2="1225.5" y1="151.0003" y2="151.0003"/><rect fill="#F1F1F1" height="34.4001" style="stroke:#181818;stroke-width:1.5;" width="167" x="1225.5" y="133.8002"/><text fill="#000000" font-family="monospace" font-size="12" lengthAdjust="spacing" textLength="147" x="1235.5" y="154.9123">CLobbyPackToPropagate</text><line style="stroke:#181818;stroke-width:1.5;" x1="1299" x2="1309" y1="200.4004" y2="200.4004"/><rect fill="#F1F1F1" height="34.4001" style="stroke:#181818;stroke-width:1.5;" width="125" x="1174" y="183.2003"/><text fill="#000000" font-family="monospace" font-size="12" lengthAdjust="spacing" textLength="105" x="1184" y="204.3124">LobbyChangeHost</text><line style="stroke:#181818;stroke-width:1.5;" x1="1299" x2="1309" y1="249.8005" y2="249.8005"/><rect fill="#F1F1F1" height="34.4001" style="stroke:#181818;stroke-width:1.5;" width="160" x="1139" y="232.6004"/><text fill="#000000" font-family="monospace" font-size="12" lengthAdjust="spacing" textLength="140" x="1149" y="253.7125">LobbyClientConnected</text><line style="stroke:#181818;stroke-width:1.5;" x1="1299" x2="1309" y1="299.2006" y2="299.2006"/><rect fill="#F1F1F1" height="34.4001" style="stroke:#181818;stroke-width:1.5;" width="104" x="1195" y="282.0005"/><text fill="#000000" font-family="monospace" font-size="12" lengthAdjust="spacing" textLength="84" x="1205" y="303.1126">LobbyEndGame</text><line style="stroke:#181818;stroke-width:1.5;" x1="1299" x2="1309" y1="348.6007" y2="348.6007"/><rect fill="#F1F1F1" height="34.4001" style="stroke:#181818;stroke-width:1.5;" width="132" x="1167" y="331.4006"/><text fill="#000000" font-family="monospace" font-size="12" lengthAdjust="spacing" textLength="112" x="1177" y="352.5127">LobbyShowMessage</text><line style="stroke:#181818;stroke-width:1.5;" x1="1299" x2="1309" y1="398.0008" y2="398.0008"/><rect fill="#F1F1F1" height="34.4001" style="stroke:#181818;stroke-width:1.5;" width="132" x="1167" y="380.8007"/><text fill="#000000" font-family="monospace" font-size="12" lengthAdjust="spacing" textLength="112" x="1177" y="401.9128">LobbyUpdateState</text><line style="stroke:#181818;stroke-width:1.5;" x1="1309" x2="1319" y1="200.4004" y2="200.4004"/><rect fill="#F1F1F1" height="34.4001" style="stroke:#181818;stroke-width:1.5;" width="132" x="1319" y="183.2003"/><text fill="#000000" font-family="monospace" font-size="12" lengthAdjust="spacing" textLength="112" x="1329" y="204.3124">LobbyChatMessage</text><line style="stroke:#181818;stroke-width:1.5;" x1="1309" x2="1319" y1="249.8005" y2="249.8005"/><rect fill="#F1F1F1" height="34.4001" style="stroke:#181818;stroke-width:1.5;" width="181" x="1319" y="232.6004"/><text fill="#000000" font-family="monospace" font-size="12" lengthAdjust="spacing" textLength="161" x="1329" y="253.7125">LobbyClientDisconnected</text><line style="stroke:#181818;stroke-width:1.5;" x1="1309" x2="1319" y1="299.2006" y2="299.2006"/><rect fill="#F1F1F1" height="34.4001" style="stroke:#181818;stroke-width:1.5;" width="118" x="1319" y="282.0005"/><text fill="#000000" font-family="monospace" font-size="12" lengthAdjust="spacing" textLength="98" x="1329" y="303.1126">LobbyGuiAction</text><line style="stroke:#181818;stroke-width:1.5;" x1="1309" x2="1319" y1="348.6007" y2="348.6007"/><rect fill="#F1F1F1" height="34.4001" style="stroke:#181818;stroke-width:1.5;" width="118" x="1319" y="331.4006"/><text fill="#000000" font-family="monospace" font-size="12" lengthAdjust="spacing" textLength="98" x="1329" y="352.5127">LobbyStartGame</text><line style="stroke:#181818;stroke-width:1.5;" x1="1309" x2="1309" y1="168.2003" y2="398.0008"/><line style="stroke:#181818;stroke-width:1.5;" x1="1129" x2="1129" y1="118.8002" y2="151.0003"/><line style="stroke:#181818;stroke-width:1.5;" x1="187" x2="1129" y1="64.4001" y2="64.4001"/><rect fill="#F1F1F1" height="34.4001" style="stroke:#181818;stroke-width:1.5;" width="55" x="630.5" y="10"/><text fill="#000000" font-family="monospace" font-size="12" lengthAdjust="spacing" textLength="35" x="640.5" y="31.1121">CPack</text><line style="stroke:#181818;stroke-width:1.5;" x1="658" x2="658" y1="44.4001" y2="64.4001"/><!--SRC=[RLRRRjiu47tNLn1zIWBqia6nM0I6KLjnBeKLkvQTO1zfQQomfaY1fEne5_llEnGfYKhxPfuvGyxjZFnD6whCUQ_9XunJhK5_YAA9DWs7QOJmBQE5eYNvDoBaJWhpH4iWfHHILpI3FFelcdpsxEYAn6kQ7QCh_-DEgXJK2HGYLnCoKugA0bA39csXAPdXW-MUmqmPTg2PqOuvhndFvv8QnsgFgL5rPce57OKV5s_Pgxrnv3rjJGcey2N7J-G9kMKpqD8IaqyhpapB7QXZp9ARxXL7Ygasi_oKLi2verY4mnOuL5AP1r3ICMzPySBCQmTC4T1xAl9O0HtoGR1aMW-iXSYtjHBEkb1KzsdEcvWp4Buulot2XDnJfPYMmbwOdcdbo0zCmH1PGeymomoJmbdjEQwraUM08WkhDeIrvhG1bO3MjF2X_wX1DHkek2_i1Z9LCzFbvmDAwGdkSNWS9mM3qr7IuPcjeZciH4BL4Kp5SRWSSrSLrX9Kgn-keGmuN7cESMXV5EnCIQksEROjlg_KO8Dc9kXgYonbCSh7eK_mPZQo5db8NUrHBXa77RSrpqE73UYQcrcMGMLWvEKiUbRXK8rzi0osr2T8tmU5bXPRArc1Cit8AyohTx1iswln0rRT8MshM560MXmEa8tgiXFCX6br3higfmOxP-nT1hhfDxIosGR5ZB4Ne9uPd3sdlMlKvQa7L_kVQwb36Y8OppFJp4YbGswRhEUY9i9vNGZ337lNZ3lvuiwESu_5dKjHTx9WuJ3RNtvQEtSBjM4CZFRerEquZ-8WNvZ8vTcHdk3iudTcFFRBIlUCGSoh2aJeRgSPXsyq7avcSowpOzSE1yMlg8Cn2wkY1sMD11egn1asmB3HZxPLXrvZQmKLTPjX2IVWkofGjXSr_GV6MKrGwAKCgZlrG5WBE-0doZXzl-Id8zFxNH6OXcuX6ikonDK9QYmBj5WQw4UnbMVHqnCgQC-msbXB9eBtNQI_tBLMh4oFh5liYA22PQso8BuKiZ6brLyeg_HLdb-auhcLnEBD4zjFqgFuYSdw9hOI3SSwRRI1ShIIjgePhs6dIgpe0vQ3WreotMr-PtBpkZX1dw_34reDu8JyZMdvoUpNwbBkzxuOSVlRubivVChHqE9EPswkLbMN03xLMl6cpAunPm_zR2DfML5MZ1m2k9-ftxWaxcCMUDsomu5bk8wQTow_KeDWUipclsMTViAKxMJGmc-zSTOFqgtVxcv4JT2odjmAC9P2u5ouZlSUhGc_-zd8wXrHr9scEuVxcWrZqcU9KnQ-swLgXwg_m7FT1BWr7dq3aUF_koZ2aWYpIvO4kwlnTlB7f-ilrry_VTc3eTSNEt4Kg2cIoR9Y78Z1Ibr65_Vh9N6Q83dEdcBxsePs6Nsd9qesjR2y6s9F5zlaagIB3iIrVM9AYj9kfk_FYIEH1ub_nAHfoNz-_JXdXhY98yz9T0i7Ylr5rqpcJ1GtPBUz-_XNjCHMr9Zw3G4HnVYrDgf1M_e_]--></g></svg>