<?xml version="1.0" encoding="us-ascii" standalone="no"?><svg xmlns="http://www.w3.org/2000/svg" xmlns:xlink="http://www.w3.org/1999/xlink" contentStyleType="text/css" height="2063px" preserveAspectRatio="none" style="width:1099px;height:2063px;background:#FFFFFF;" version="1.1" viewBox="0 0 1099 2063" width="1099px" zoomAndPan="magnify"><defs><filter height="1" id="b1c4xzwowyxwv10" width="1" x="0" y="0"><feFlood flood-color="#FF0000" result="flood"/><feComposite in="SourceGraphic" in2="flood" operator="over"/></filter><filter height="1" id="b1c4xzwowyxwv11" width="1" x="0" y="0"><feFlood flood-color="#000000" result="flood"/><feComposite in="SourceGraphic" in2="flood" operator="over"/></filter><filter height="1" id="b1c4xzwowyxwv12" width="1" x="0" y="0"><feFlood flood-color="#FFFF00" result="flood"/><feComposite in="SourceGraphic" in2="flood" operator="over"/></filter></defs><g><text fill="#000000" font-family="sans-serif" font-size="14" font-weight="bold" lengthAdjust="spacing" textLength="349" x="371.25" y="27.9951">VCMI-1.3.2 connector-v2 reset (mid-battle)</text><rect fill="#DDDDDD" height="2014.5859" style="stroke:#FFFFFF;stroke-width:0.5;" width="289.5" x="84" y="43.2969"/><text fill="#000000" font-family="sans-serif" font-size="13" font-weight="bold" lengthAdjust="spacing" textLength="20" x="218.75" y="55.3638">T1</text><rect fill="#DDDDDD" height="2014.5859" style="stroke:#FFFFFF;stroke-width:0.5;" width="716" x="375.5" y="43.2969"/><text fill="#000000" font-family="sans-serif" font-size="13" font-weight="bold" lengthAdjust="spacing" textLength="20" x="723.5" y="55.3638">T2</text><rect fill="#FFFFFF" height="266.1953" style="stroke:#181818;stroke-width:1.0;" width="10" x="103" y="120.0234"/><rect fill="#FFFFFF" height="1487.6719" style="stroke:#181818;stroke-width:1.0;" width="10" x="103" y="458.4844"/><rect fill="#FFFFFF" height="237.0625" style="stroke:#181818;stroke-width:1.0;" width="10" x="184.5" y="120.0234"/><rect fill="#FFFFFF" height="1414.2734" style="stroke:#181818;stroke-width:1.0;" width="10" x="184.5" y="487.6172"/><rect fill="#FFFFFF" height="207.9297" style="stroke:#181818;stroke-width:1.0;" width="10" x="308.5" y="120.0234"/><rect fill="#FF0000" height="150.6641" style="stroke:#181818;stroke-width:1.0;" width="10" x="313.5" y="141.1563"/><rect fill="#FFFFFF" height="1356.0078" style="stroke:#181818;stroke-width:1.0;" width="10" x="308.5" y="516.75"/><rect fill="#FF0000" height="1125.0781" style="stroke:#181818;stroke-width:1.0;" width="10" x="313.5" y="711.5469"/><rect fill="#FFFFFF" height="603.5234" style="stroke:#181818;stroke-width:1.0;" width="10" x="430.5" y="199.4219"/><rect fill="#FF0000" height="499.9922" style="stroke:#181818;stroke-width:1.0;" width="10" x="435.5" y="251.6875"/><rect fill="#FFFFFF" height="396.5938" style="stroke:#181818;stroke-width:1.0;" width="10" x="430.5" y="1601.6953"/><rect fill="#FF0000" height="201.7969" style="stroke:#181818;stroke-width:1.0;" width="10" x="435.5" y="1796.4922"/><rect fill="#FFFFFF" height="814.7188" style="stroke:#181818;stroke-width:1.0;" width="10" x="632.5" y="170.2891"/><rect fill="#FFFFFF" height="268.4609" style="stroke:#181818;stroke-width:1.0;" width="10" x="632.5" y="1043.2734"/><rect fill="#FFFFFF" height="148.4297" style="stroke:#181818;stroke-width:1.0;" width="10" x="632.5" y="1365.8672"/><rect fill="#FFFFFF" height="425.7266" style="stroke:#181818;stroke-width:1.0;" width="10" x="632.5" y="1572.5625"/><rect fill="#FFFFFF" height="872.9844" style="stroke:#181818;stroke-width:1.0;" width="10" x="820.5" y="141.1563"/><rect fill="#FFFFFF" height="14" style="stroke:#181818;stroke-width:1.0;" width="10" x="937" y="1461.2969"/><rect fill="#FFFFFF" height="454.8594" style="stroke:#181818;stroke-width:1.0;" width="10" x="937" y="1543.4297"/><line style="stroke:#181818;stroke-width:0.5;stroke-dasharray:5.0,5.0;" x1="108" x2="108" y1="110.0234" y2="2007.2891"/><line style="stroke:#181818;stroke-width:0.5;stroke-dasharray:5.0,5.0;" x1="189" x2="189" y1="110.0234" y2="2007.2891"/><line style="stroke:#181818;stroke-width:0.5;stroke-dasharray:5.0,5.0;" x1="313.5" x2="313.5" y1="110.0234" y2="2007.2891"/><line style="stroke:#181818;stroke-width:0.5;stroke-dasharray:5.0,5.0;" x1="435.5" x2="435.5" y1="110.0234" y2="2007.2891"/><line style="stroke:#181818;stroke-width:0.5;stroke-dasharray:5.0,5.0;" x1="637.5" x2="637.5" y1="110.0234" y2="2007.2891"/><line style="stroke:#181818;stroke-width:0.5;stroke-dasharray:5.0,5.0;" x1="825.5" x2="825.5" y1="110.0234" y2="2007.2891"/><line style="stroke:#181818;stroke-width:0.5;stroke-dasharray:5.0,5.0;" x1="941.5" x2="941.5" y1="1429.5156" y2="2007.2891"/><line style="stroke:#181818;stroke-width:0.5;stroke-dasharray:5.0,5.0;" x1="1039.5" x2="1039.5" y1="110.0234" y2="2007.2891"/><rect fill="#E2E2F0" height="30.2969" rx="2.5" ry="2.5" style="stroke:#181818;stroke-width:0.5;" width="40" x="88" y="78.7266"/><text fill="#000000" font-family="sans-serif" font-size="14" font-style="italic" lengthAdjust="spacing" textLength="26" x="95" y="98.7217">Env</text><rect fill="#E2E2F0" height="30.2969" rx="2.5" ry="2.5" style="stroke:#181818;stroke-width:0.5;" width="40" x="88" y="2006.2891"/><text fill="#000000" font-family="sans-serif" font-size="14" font-style="italic" lengthAdjust="spacing" textLength="26" x="95" y="2026.2842">Env</text><rect fill="#E2E2F0" height="30.2969" rx="2.5" ry="2.5" style="stroke:#181818;stroke-width:0.5;" width="103" x="138" y="78.7266"/><text fill="#000000" font-family="sans-serif" font-size="14" font-style="italic" lengthAdjust="spacing" textLength="89" x="145" y="98.7217">pyconnector</text><rect fill="#E2E2F0" height="30.2969" rx="2.5" ry="2.5" style="stroke:#181818;stroke-width:0.5;" width="103" x="138" y="2006.2891"/><text fill="#000000" font-family="sans-serif" font-size="14" font-style="italic" lengthAdjust="spacing" textLength="89" x="145" y="2026.2842">pyconnector</text><rect fill="#E2E2F0" height="46.5938" rx="2.5" ry="2.5" style="stroke:#181818;stroke-width:0.5;" width="112" x="257.5" y="62.4297"/><text fill="#000000" font-family="sans-serif" font-size="14" font-style="italic" lengthAdjust="spacing" textLength="98" x="264.5" y="82.4248">cppconnector</text><text fill="#808080" font-family="Arial" font-size="14" font-style="italic" lengthAdjust="spacing" textLength="32" x="297.5" y="98.7217">// T1</text><rect fill="#E2E2F0" height="46.5938" rx="2.5" ry="2.5" style="stroke:#181818;stroke-width:0.5;" width="112" x="257.5" y="2006.2891"/><text fill="#000000" font-family="sans-serif" font-size="14" font-style="italic" lengthAdjust="spacing" textLength="98" x="264.5" y="2026.2842">cppconnector</text><text fill="#808080" font-family="Arial" font-size="14" font-style="italic" lengthAdjust="spacing" textLength="32" x="297.5" y="2042.5811">// T1</text><rect fill="#E2E2F0" height="46.5938" rx="2.5" ry="2.5" style="stroke:#181818;stroke-width:0.5;" width="112" x="379.5" y="62.4297"/><text fill="#000000" font-family="sans-serif" font-size="14" font-style="italic" lengthAdjust="spacing" textLength="98" x="386.5" y="82.4248">cppconnector</text><text fill="#808080" font-family="Arial" font-size="14" font-style="italic" lengthAdjust="spacing" textLength="32" x="419.5" y="98.7217">// T2</text><rect fill="#E2E2F0" height="46.5938" rx="2.5" ry="2.5" style="stroke:#181818;stroke-width:0.5;" width="112" x="379.5" y="2006.2891"/><text fill="#000000" font-family="sans-serif" font-size="14" font-style="italic" lengthAdjust="spacing" textLength="98" x="386.5" y="2026.2842">cppconnector</text><text fill="#808080" font-family="Arial" font-size="14" font-style="italic" lengthAdjust="spacing" textLength="32" x="419.5" y="2042.5811">// T2</text><rect fill="#E2E2F0" height="46.5938" rx="2.5" ry="2.5" style="stroke:#181818;stroke-width:0.5;" width="194" x="540.5" y="62.4297"/><text fill="#000000" font-family="sans-serif" font-size="14" lengthAdjust="spacing" textLength="36" x="619.5" y="82.4248">VCMI</text><text fill="#000000" font-family="sans-serif" font-size="14" font-style="italic" lengthAdjust="spacing" textLength="180" x="547.5" y="98.7217">Adventure Interface (AAI)</text><rect fill="#E2E2F0" height="46.5938" rx="2.5" ry="2.5" style="stroke:#181818;stroke-width:0.5;" width="194" x="540.5" y="2006.2891"/><text fill="#000000" font-family="sans-serif" font-size="14" lengthAdjust="spacing" textLength="36" x="619.5" y="2026.2842">VCMI</text><text fill="#000000" font-family="sans-serif" font-size="14" font-style="italic" lengthAdjust="spacing" textLength="180" x="547.5" y="2042.5811">Adventure Interface (AAI)</text><rect fill="#E2E2F0" height="46.5938" rx="2.5" ry="2.5" style="stroke:#181818;stroke-width:0.5;" width="162" x="744.5" y="62.4297"/><text fill="#000000" font-family="sans-serif" font-size="14" lengthAdjust="spacing" textLength="36" x="807.5" y="82.4248">VCMI</text><text fill="#000000" font-family="sans-serif" font-size="14" font-style="italic" lengthAdjust="spacing" textLength="148" x="751.5" y="98.7217">Battle Interface (BAI)</text><rect fill="#E2E2F0" height="46.5938" rx="2.5" ry="2.5" style="stroke:#181818;stroke-width:0.5;" width="162" x="744.5" y="2006.2891"/><text fill="#000000" font-family="sans-serif" font-size="14" lengthAdjust="spacing" textLength="36" x="807.5" y="2026.2842">VCMI</text><text fill="#000000" font-family="sans-serif" font-size="14" font-style="italic" lengthAdjust="spacing" textLength="148" x="751.5" y="2042.5811">Battle Interface (BAI)</text><rect fill="#E2E2F0" height="30.2969" rx="2.5" ry="2.5" style="stroke:#181818;stroke-width:0.5;" width="51" x="916.5" y="2006.2891"/><text fill="#000000" font-family="sans-serif" font-size="14" font-style="italic" lengthAdjust="spacing" textLength="37" x="923.5" y="2026.2842">BAI 2</text><rect fill="#E2E2F0" height="30.2969" rx="2.5" ry="2.5" style="stroke:#181818;stroke-width:0.5;" width="95" x="992.5" y="78.7266"/><text fill="#000000" font-family="sans-serif" font-size="14" font-style="italic" lengthAdjust="spacing" textLength="81" x="999.5" y="98.7217">VCMI Client</text><rect fill="#E2E2F0" height="30.2969" rx="2.5" ry="2.5" style="stroke:#181818;stroke-width:0.5;" width="95" x="992.5" y="2006.2891"/><text fill="#000000" font-family="sans-serif" font-size="14" font-style="italic" lengthAdjust="spacing" textLength="81" x="999.5" y="2026.2842">VCMI Client</text><rect fill="#FFFFFF" height="266.1953" style="stroke:#181818;stroke-width:1.0;" width="10" x="103" y="120.0234"/><rect fill="#FFFFFF" height="1487.6719" style="stroke:#181818;stroke-width:1.0;" width="10" x="103" y="458.4844"/><rect fill="#FFFFFF" height="237.0625" style="stroke:#181818;stroke-width:1.0;" width="10" x="184.5" y="120.0234"/><rect fill="#FFFFFF" height="1414.2734" style="stroke:#181818;stroke-width:1.0;" width="10" x="184.5" y="487.6172"/><rect fill="#FFFFFF" height="207.9297" style="stroke:#181818;stroke-width:1.0;" width="10" x="308.5" y="120.0234"/><rect fill="#FF0000" height="150.6641" style="stroke:#181818;stroke-width:1.0;" width="10" x="313.5" y="141.1563"/><rect fill="#FFFFFF" height="1356.0078" style="stroke:#181818;stroke-width:1.0;" width="10" x="308.5" y="516.75"/><rect fill="#FF0000" height="1125.0781" style="stroke:#181818;stroke-width:1.0;" width="10" x="313.5" y="711.5469"/><rect fill="#FFFFFF" height="603.5234" style="stroke:#181818;stroke-width:1.0;" width="10" x="430.5" y="199.4219"/><rect fill="#FF0000" height="499.9922" style="stroke:#181818;stroke-width:1.0;" width="10" x="435.5" y="251.6875"/><rect fill="#FFFFFF" height="396.5938" style="stroke:#181818;stroke-width:1.0;" width="10" x="430.5" y="1601.6953"/><rect fill="#FF0000" height="201.7969" style="stroke:#181818;stroke-width:1.0;" width="10" x="435.5" y="1796.4922"/><rect fill="#FFFFFF" height="814.7188" style="stroke:#181818;stroke-width:1.0;" width="10" x="632.5" y="170.2891"/><rect fill="#FFFFFF" height="268.4609" style="stroke:#181818;stroke-width:1.0;" width="10" x="632.5" y="1043.2734"/><rect fill="#FFFFFF" height="148.4297" style="stroke:#181818;stroke-width:1.0;" width="10" x="632.5" y="1365.8672"/><rect fill="#FFFFFF" height="425.7266" style="stroke:#181818;stroke-width:1.0;" width="10" x="632.5" y="1572.5625"/><rect fill="#FFFFFF" height="872.9844" style="stroke:#181818;stroke-width:1.0;" width="10" x="820.5" y="141.1563"/><rect fill="#FFFFFF" height="14" style="stroke:#181818;stroke-width:1.0;" width="10" x="937" y="1461.2969"/><rect fill="#FFFFFF" height="454.8594" style="stroke:#181818;stroke-width:1.0;" width="10" x="937" y="1543.4297"/><polygon fill="#181818" points="841.5,137.1563,831.5,141.1563,841.5,145.1563,837.5,141.1563" style="stroke:#181818;stroke-width:1.0;"/><ellipse cx="1039.5" cy="140.4063" fill="none" rx="4" ry="4" style="stroke:#181818;stroke-width:1.5;"/><line style="stroke:#181818;stroke-width:1.0;" x1="835.5" x2="1035" y1="141.1563" y2="141.1563"/><text fill="#000000" font-family="sans-serif" font-size="13" lengthAdjust="spacing" textLength="74" x="847.5" y="136.0903">activeStack</text><polygon fill="#181818" points="653.5,166.2891,643.5,170.2891,653.5,174.2891,649.5,170.2891" style="stroke:#181818;stroke-width:1.0;"/><line style="stroke:#181818;stroke-width:1.0;" x1="647.5" x2="819.5" y1="170.2891" y2="170.2891"/><text fill="#000000" font-family="sans-serif" font-size="13" lengthAdjust="spacing" textLength="111" x="659.5" y="165.2231">getAction(Result)</text><polygon fill="#181818" points="451.5,195.4219,441.5,199.4219,451.5,203.4219,447.5,199.4219" style="stroke:#181818;stroke-width:1.0;"/><line style="stroke:#181818;stroke-width:1.0;" x1="445.5" x2="631.5" y1="199.4219" y2="199.4219"/><text fill="#000000" font-family="sans-serif" font-size="13" lengthAdjust="spacing" textLength="173" x="457.5" y="194.356">baggage.GetAction(Result)</text><line style="stroke:#181818;stroke-width:1.0;" x1="440.5" x2="487.5" y1="238.6875" y2="238.6875"/><line style="stroke:#181818;stroke-width:1.0;" x1="487.5" x2="487.5" y1="238.6875" y2="251.6875"/><line style="stroke:#181818;stroke-width:1.0;" x1="446.5" x2="487.5" y1="251.6875" y2="251.6875"/><polygon fill="#181818" points="456.5,247.6875,446.5,251.6875,456.5,255.6875,452.5,251.6875" style="stroke:#181818;stroke-width:1.0;"/><text fill="#000000" filter="url(#b1c4xzwowyxwv10)" font-family="sans-serif" font-size="13" lengthAdjust="spacing" textLength="62" x="452.5" y="218.4888">cond.wait</text><text fill="#FFFF00" filter="url(#b1c4xzwowyxwv11)" font-family="sans-serif" font-size="13" lengthAdjust="spacing" textLength="76" x="452.5" y="233.6216">release lock</text><line style="stroke:#181818;stroke-width:1.0;" x1="323.5" x2="365.5" y1="290.8203" y2="290.8203"/><line style="stroke:#181818;stroke-width:1.0;" x1="365.5" x2="365.5" y1="290.8203" y2="303.8203"/><line style="stroke:#181818;stroke-width:1.0;" x1="318.5" x2="365.5" y1="303.8203" y2="303.8203"/><polygon fill="#181818" points="328.5,299.8203,318.5,303.8203,328.5,307.8203,324.5,303.8203" style="stroke:#181818;stroke-width:1.0;"/><text fill="#000000" filter="url(#b1c4xzwowyxwv12)" font-family="sans-serif" font-size="13" lengthAdjust="spacing" textLength="76" x="330.5" y="285.7544">acquire lock</text><polygon fill="#181818" points="205.5,323.9531,195.5,327.9531,205.5,331.9531,201.5,327.9531" style="stroke:#181818;stroke-width:1.0;"/><line style="stroke:#181818;stroke-width:1.0;stroke-dasharray:2.0,2.0;" x1="199.5" x2="312.5" y1="327.9531" y2="327.9531"/><text fill="#000000" font-family="sans-serif" font-size="13" lengthAdjust="spacing" textLength="90" x="211.5" y="322.8872">&#171;P_InitResult&#187;</text><polygon fill="#181818" points="124,353.0859,114,357.0859,124,361.0859,120,357.0859" style="stroke:#181818;stroke-width:1.0;"/><line style="stroke:#181818;stroke-width:1.0;stroke-dasharray:2.0,2.0;" x1="118" x2="188.5" y1="357.0859" y2="357.0859"/><text fill="#000000" font-family="sans-serif" font-size="13" lengthAdjust="spacing" textLength="39" x="130" y="352.02">&#171;obs&#187;</text><polygon fill="#181818" points="11,382.2188,1,386.2188,11,390.2188,7,386.2188" style="stroke:#181818;stroke-width:1.0;"/><line style="stroke:#181818;stroke-width:1.0;stroke-dasharray:2.0,2.0;" x1="5" x2="107" y1="386.2188" y2="386.2188"/><text fill="#000000" font-family="sans-serif" font-size="13" lengthAdjust="spacing" textLength="23" x="17" y="381.1528">obs</text><rect fill="#EEEEEE" height="3" style="stroke:#EEEEEE;stroke-width:1.0;" width="1092.5" x="0" y="414.7852"/><line style="stroke:#000000;stroke-width:1.0;" x1="0" x2="1092.5" y1="414.7852" y2="414.7852"/><line style="stroke:#000000;stroke-width:1.0;" x1="0" x2="1092.5" y1="417.7852" y2="417.7852"/><rect fill="#EEEEEE" height="23.1328" style="stroke:#000000;stroke-width:2.0;" width="105" x="493.75" y="404.2188"/><text fill="#000000" font-family="sans-serif" font-size="13" font-weight="bold" lengthAdjust="spacing" textLength="86" x="499.75" y="420.2856">reset start</text><polygon fill="#181818" points="91,454.4844,101,458.4844,91,462.4844,95,458.4844" style="stroke:#181818;stroke-width:1.0;"/><line style="stroke:#181818;stroke-width:1.0;" x1="0" x2="97" y1="458.4844" y2="458.4844"/><text fill="#000000" font-family="sans-serif" font-size="13" lengthAdjust="spacing" textLength="33" x="7" y="453.4185">reset</text><polygon fill="#181818" points="172.5,483.6172,182.5,487.6172,172.5,491.6172,176.5,487.6172" style="stroke:#181818;stroke-width:1.0;"/><line style="stroke:#181818;stroke-width:1.0;" x1="113" x2="178.5" y1="487.6172" y2="487.6172"/><text fill="#000000" font-family="sans-serif" font-size="13" lengthAdjust="spacing" textLength="33" x="120" y="482.5513">reset</text><polygon fill="#181818" points="296.5,512.75,306.5,516.75,296.5,520.75,300.5,516.75" style="stroke:#181818;stroke-width:1.0;"/><line style="stroke:#181818;stroke-width:1.0;" x1="194.5" x2="302.5" y1="516.75" y2="516.75"/><text fill="#000000" font-family="sans-serif" font-size="13" lengthAdjust="spacing" textLength="43" x="201.5" y="511.6841">reset()</text><line style="stroke:#181818;stroke-width:1.0;" x1="318.5" x2="360.5" y1="545.8828" y2="545.8828"/><line style="stroke:#181818;stroke-width:1.0;" x1="360.5" x2="360.5" y1="545.8828" y2="558.8828"/><line style="stroke:#181818;stroke-width:1.0;" x1="319.5" x2="360.5" y1="558.8828" y2="558.8828"/><polygon fill="#181818" points="329.5,554.8828,319.5,558.8828,329.5,562.8828,325.5,558.8828" style="stroke:#181818;stroke-width:1.0;"/><text fill="#000000" filter="url(#b1c4xzwowyxwv12)" font-family="sans-serif" font-size="13" lengthAdjust="spacing" textLength="76" x="325.5" y="540.8169">acquire lock</text><polygon fill="#808080" points="329.5,584.0156,319.5,588.0156,329.5,592.0156,325.5,588.0156" style="stroke:#808080;stroke-width:1.0;"/><polygon fill="#808080" points="423.5,584.0156,433.5,588.0156,423.5,592.0156,427.5,588.0156" style="stroke:#808080;stroke-width:1.0;"/><line style="stroke:#808080;stroke-width:1.0;stroke-dasharray:2.0,2.0;" x1="323.5" x2="429.5" y1="588.0156" y2="588.0156"/><text fill="#808080" font-family="sans-serif" font-size="13" lengthAdjust="spacing" textLength="40" x="335.5" y="582.9497">Action</text><polygon fill="#0000FF" points="423.5,613.1484,433.5,617.1484,423.5,621.1484,427.5,617.1484" style="stroke:#0000FF;stroke-width:1.0;"/><line style="stroke:#0000FF;stroke-width:1.0;stroke-dasharray:2.0,2.0;" x1="318.5" x2="429.5" y1="617.1484" y2="617.1484"/><text fill="#0000FF" font-family="sans-serif" font-size="13" lengthAdjust="spacing" textLength="72" x="325.5" y="612.0825">cond.notify</text><line style="stroke:#FF0000;stroke-width:1.0;stroke-dasharray:2.0,2.0;" x1="445.5" x2="487.5" y1="646.2813" y2="646.2813"/><line style="stroke:#FF0000;stroke-width:1.0;stroke-dasharray:2.0,2.0;" x1="487.5" x2="487.5" y1="646.2813" y2="659.2813"/><line style="stroke:#FF0000;stroke-width:1.0;stroke-dasharray:2.0,2.0;" x1="446.5" x2="487.5" y1="659.2813" y2="659.2813"/><polygon fill="#FF0000" points="456.5,655.2813,446.5,659.2813,456.5,663.2813,452.5,659.2813" style="stroke:#FF0000;stroke-width:1.0;"/><text fill="#FF0000" filter="url(#b1c4xzwowyxwv12)" font-family="sans-serif" font-size="13" lengthAdjust="spacing" textLength="76" x="452.5" y="641.2153">acquire lock</text><line style="stroke:#181818;stroke-width:1.0;" x1="318.5" x2="365.5" y1="698.5469" y2="698.5469"/><line style="stroke:#181818;stroke-width:1.0;" x1="365.5" x2="365.5" y1="698.5469" y2="711.5469"/><line style="stroke:#181818;stroke-width:1.0;" x1="324.5" x2="365.5" y1="711.5469" y2="711.5469"/><polygon fill="#181818" points="334.5,707.5469,324.5,711.5469,334.5,715.5469,330.5,711.5469" style="stroke:#181818;stroke-width:1.0;"/><text fill="#000000" filter="url(#b1c4xzwowyxwv10)" font-family="sans-serif" font-size="13" lengthAdjust="spacing" textLength="62" x="330.5" y="678.3481">cond.wait</text><text fill="#FFFF00" filter="url(#b1c4xzwowyxwv11)" font-family="sans-serif" font-size="13" lengthAdjust="spacing" textLength="76" x="330.5" y="693.481">release lock</text><line style="stroke:#181818;stroke-width:1.0;" x1="445.5" x2="487.5" y1="750.6797" y2="750.6797"/><line style="stroke:#181818;stroke-width:1.0;" x1="487.5" x2="487.5" y1="750.6797" y2="763.6797"/><line style="stroke:#181818;stroke-width:1.0;" x1="440.5" x2="487.5" y1="763.6797" y2="763.6797"/><polygon fill="#181818" points="450.5,759.6797,440.5,763.6797,450.5,767.6797,446.5,763.6797" style="stroke:#181818;stroke-width:1.0;"/><text fill="#000000" filter="url(#b1c4xzwowyxwv12)" font-family="sans-serif" font-size="13" lengthAdjust="spacing" textLength="76" x="452.5" y="745.6138">acquire lock</text><polygon fill="#181818" points="620.5,798.9453,630.5,802.9453,620.5,806.9453,624.5,802.9453" style="stroke:#181818;stroke-width:1.0;"/><line style="stroke:#181818;stroke-width:1.0;stroke-dasharray:2.0,2.0;" x1="435.5" x2="626.5" y1="802.9453" y2="802.9453"/><text fill="#000000" font-family="sans-serif" font-size="13" lengthAdjust="spacing" textLength="56" x="442.5" y="782.7466">&#171;Action&#187;</text><text fill="#808080" font-family="Arial" font-size="13" font-style="italic" lengthAdjust="spacing" textLength="45" x="442.5" y="797.8794">// reset</text><line style="stroke:#181818;stroke-width:1.0;stroke-dasharray:2.0,2.0;" x1="642.5" x2="684.5" y1="847.2109" y2="847.2109"/><line style="stroke:#181818;stroke-width:1.0;stroke-dasharray:2.0,2.0;" x1="684.5" x2="684.5" y1="847.2109" y2="860.2109"/><line style="stroke:#181818;stroke-width:1.0;stroke-dasharray:2.0,2.0;" x1="643.5" x2="684.5" y1="860.2109" y2="860.2109"/><polygon fill="#181818" points="653.5,856.2109,643.5,860.2109,653.5,864.2109,649.5,860.2109" style="stroke:#181818;stroke-width:1.0;"/><text fill="#000000" font-family="sans-serif" font-size="13" lengthAdjust="spacing" textLength="92" x="649.5" y="827.0122">read bai.result</text><text fill="#808080" font-family="Arial" font-size="13" font-style="italic" lengthAdjust="spacing" textLength="124" x="649.5" y="842.145">// battle_end=false</text><path d="M517,873.2109 L517,943.2109 L757,943.2109 L757,883.2109 L747,873.2109 L517,873.2109 " fill="#FEFFDD" style="stroke:#181818;stroke-width:0.5;"/><path d="M747,873.2109 L747,883.2109 L757,883.2109 L747,873.2109 " fill="#FEFFDD" style="stroke:#181818;stroke-width:0.5;"/><text fill="#000000" font-family="sans-serif" font-size="13" lengthAdjust="spacing" textLength="33" x="523" y="890.2778">reset</text><text fill="#000000" font-family="sans-serif" font-size="13" lengthAdjust="spacing" text-decoration="underline" textLength="40" x="560" y="890.2778">during</text><text fill="#000000" font-family="sans-serif" font-size="13" lengthAdjust="spacing" textLength="61" x="604" y="890.2778">battle =&gt;</text><text fill="#000000" font-family="sans-serif" font-size="13" font-weight="bold" lengthAdjust="spacing" textLength="57" x="669" y="890.2778">retreat</text><text fill="#000000" font-family="sans-serif" font-size="13" lengthAdjust="spacing" textLength="4" x="523" y="905.4106">&#160;</text><text fill="#000000" font-family="sans-serif" font-size="13" lengthAdjust="spacing" textLength="219" x="523" y="920.5435">FIXME: retreat may be impossible,</text><text fill="#000000" font-family="sans-serif" font-size="13" lengthAdjust="spacing" textLength="49" x="523" y="935.6763">but real</text><text fill="#000000" font-family="sans-serif" font-size="13" font-style="italic" lengthAdjust="spacing" textLength="33" x="576" y="935.6763">reset</text><text fill="#000000" font-family="sans-serif" font-size="13" lengthAdjust="spacing" textLength="124" x="613" y="935.6763">is not implemented</text><polygon fill="#181818" points="808.5,981.0078,818.5,985.0078,808.5,989.0078,812.5,985.0078" style="stroke:#181818;stroke-width:1.0;"/><line style="stroke:#181818;stroke-width:1.0;stroke-dasharray:2.0,2.0;" x1="637.5" x2="814.5" y1="985.0078" y2="985.0078"/><text fill="#000000" font-family="sans-serif" font-size="13" lengthAdjust="spacing" textLength="56" x="644.5" y="964.8091">&#171;Action&#187;</text><text fill="#808080" font-family="Arial" font-size="13" font-style="italic" lengthAdjust="spacing" textLength="8" x="644.5" y="979.9419">//</text><text fill="#808080" font-family="Arial" font-size="13" font-style="italic" font-weight="bold" lengthAdjust="spacing" textLength="51" x="656.5" y="979.9419">retreat</text><polygon fill="#181818" points="1028,1010.1406,1038,1014.1406,1028,1018.1406,1032,1014.1406" style="stroke:#181818;stroke-width:1.0;"/><line style="stroke:#181818;stroke-width:1.0;stroke-dasharray:2.0,2.0;" x1="825.5" x2="1034" y1="1014.1406" y2="1014.1406"/><text fill="#000000" font-family="sans-serif" font-size="13" lengthAdjust="spacing" textLength="98" x="832.5" y="1009.0747">makeAction(...)</text><polygon fill="#181818" points="653.5,1039.2734,643.5,1043.2734,653.5,1047.2734,649.5,1043.2734" style="stroke:#181818;stroke-width:1.0;"/><ellipse cx="1039.5" cy="1042.5234" fill="none" rx="4" ry="4" style="stroke:#181818;stroke-width:1.5;"/><line style="stroke:#181818;stroke-width:1.0;" x1="647.5" x2="1035" y1="1043.2734" y2="1043.2734"/><text fill="#000000" font-family="sans-serif" font-size="13" lengthAdjust="spacing" textLength="121" x="659.5" y="1038.2075">battleEnd(queryID)</text><line style="stroke:#181818;stroke-width:1.0;" x1="642.5" x2="684.5" y1="1087.5391" y2="1087.5391"/><line style="stroke:#181818;stroke-width:1.0;" x1="684.5" x2="684.5" y1="1087.5391" y2="1100.5391"/><line style="stroke:#181818;stroke-width:1.0;" x1="643.5" x2="684.5" y1="1100.5391" y2="1100.5391"/><polygon fill="#181818" points="653.5,1096.5391,643.5,1100.5391,653.5,1104.5391,649.5,1100.5391" style="stroke:#181818;stroke-width:1.0;"/><text fill="#808080" font-family="sans-serif" font-size="13" lengthAdjust="spacing" textLength="33" x="649.5" y="1067.3403">store</text><text fill="#808080" font-family="sans-serif" font-size="13" lengthAdjust="spacing" textLength="83" x="649.5" y="1082.4731">QID=queryID</text><line style="stroke:#181818;stroke-width:1.0;stroke-dasharray:2.0,2.0;" x1="642.5" x2="684.5" y1="1144.8047" y2="1144.8047"/><line style="stroke:#181818;stroke-width:1.0;stroke-dasharray:2.0,2.0;" x1="684.5" x2="684.5" y1="1144.8047" y2="1157.8047"/><line style="stroke:#181818;stroke-width:1.0;stroke-dasharray:2.0,2.0;" x1="643.5" x2="684.5" y1="1157.8047" y2="1157.8047"/><polygon fill="#181818" points="653.5,1153.8047,643.5,1157.8047,653.5,1161.8047,649.5,1157.8047" style="stroke:#181818;stroke-width:1.0;"/><text fill="#000000" font-family="sans-serif" font-size="13" lengthAdjust="spacing" textLength="95" x="649.5" y="1124.606">read bai.action</text><text fill="#808080" font-family="Arial" font-size="13" font-style="italic" lengthAdjust="spacing" textLength="72" x="649.5" y="1139.7388">// &#171;retreat&#187;</text><path d="M523,1170.8047 L523,1225.8047 L752,1225.8047 L752,1180.8047 L742,1170.8047 L523,1170.8047 " fill="#FEFFDD" style="stroke:#181818;stroke-width:0.5;"/><path d="M742,1170.8047 L742,1180.8047 L752,1180.8047 L742,1170.8047 " fill="#FEFFDD" style="stroke:#181818;stroke-width:0.5;"/><text fill="#000000" font-family="sans-serif" font-size="13" lengthAdjust="spacing" textLength="61" x="529" y="1187.8716">battleEnd</text><text fill="#000000" font-family="sans-serif" font-size="13" lengthAdjust="spacing" text-decoration="underline" textLength="79" x="594" y="1187.8716">after retreat</text><text fill="#000000" font-family="sans-serif" font-size="13" lengthAdjust="spacing" textLength="188" x="533" y="1203.0044">=&gt; DON'T call BAI.battleEnd()</text><text fill="#000000" font-family="sans-serif" font-size="13" lengthAdjust="spacing" textLength="208" x="529" y="1218.1372">Destroy it and answer the query</text><polygon fill="#181818" points="813.5,1263.4688,823.5,1267.4688,813.5,1271.4688,817.5,1267.4688" style="stroke:#181818;stroke-width:1.0;"/><line style="stroke:#181818;stroke-width:1.0;" x1="642.5" x2="819.5" y1="1267.4688" y2="1267.4688"/><text fill="#000000" font-family="sans-serif" font-size="13" lengthAdjust="spacing" textLength="66" x="649.5" y="1247.27">bai.reset()</text><text fill="#000000" font-family="sans-serif" font-size="13" lengthAdjust="spacing" textLength="96" x="649.5" y="1262.4028">battleAI.reset()</text><line style="stroke:#A80036;stroke-width:2.0;" x1="816.5" x2="834.5" y1="1258.4688" y2="1276.4688"/><line style="stroke:#A80036;stroke-width:2.0;" x1="816.5" x2="834.5" y1="1276.4688" y2="1258.4688"/><polygon fill="#181818" points="1028,1307.7344,1038,1311.7344,1028,1315.7344,1032,1311.7344" style="stroke:#181818;stroke-width:1.0;"/><line style="stroke:#181818;stroke-width:1.0;stroke-dasharray:2.0,2.0;" x1="637.5" x2="1034" y1="1311.7344" y2="1311.7344"/><text fill="#000000" font-family="sans-serif" font-size="13" lengthAdjust="spacing" textLength="91" x="644.5" y="1291.5356">selectionMade</text><text fill="#808080" font-family="Arial" font-size="13" font-style="italic" lengthAdjust="spacing" textLength="53" x="644.5" y="1306.6685">// replay</text><polygon fill="#181818" points="653.5,1361.8672,643.5,1365.8672,653.5,1369.8672,649.5,1365.8672" style="stroke:#181818;stroke-width:1.0;"/><line style="stroke:#181818;stroke-width:1.0;" x1="647.5" x2="1039" y1="1365.8672" y2="1365.8672"/><text fill="#000000" font-family="sans-serif" font-size="13" lengthAdjust="spacing" textLength="68" x="659.5" y="1360.8013">battleStart</text><polygon fill="#181818" points="904.5,1416,914.5,1420,904.5,1424,908.5,1420" style="stroke:#181818;stroke-width:1.0;"/><line style="stroke:#181818;stroke-width:1.0;" x1="642.5" x2="910.5" y1="1420" y2="1420"/><text fill="#000000" font-family="sans-serif" font-size="13" lengthAdjust="spacing" textLength="43" x="649.5" y="1414.9341">&#171;new&#187;</text><rect fill="#E2E2F0" height="30.2969" rx="2.5" ry="2.5" style="stroke:#181818;stroke-width:0.5;" width="51" x="916.5" y="1398.8672"/><text fill="#000000" font-family="sans-serif" font-size="14" font-style="italic" lengthAdjust="spacing" textLength="37" x="923.5" y="1418.8623">BAI 2</text><polygon fill="#181818" points="925,1457.2969,935,1461.2969,925,1465.2969,929,1461.2969" style="stroke:#181818;stroke-width:1.0;"/><line style="stroke:#181818;stroke-width:1.0;" x1="642.5" x2="931" y1="1461.2969" y2="1461.2969"/><text fill="#000000" font-family="sans-serif" font-size="13" lengthAdjust="spacing" textLength="68" x="649.5" y="1456.231">battleStart</text><polygon fill="#181818" points="653.5,1471.2969,643.5,1475.2969,653.5,1479.2969,649.5,1475.2969" style="stroke:#181818;stroke-width:1.0;"/><line style="stroke:#181818;stroke-width:1.0;stroke-dasharray:2.0,2.0;" x1="647.5" x2="941" y1="1475.2969" y2="1475.2969"/><polygon fill="#181818" points="1028,1510.2969,1038,1514.2969,1028,1518.2969,1032,1514.2969" style="stroke:#181818;stroke-width:1.0;"/><line style="stroke:#181818;stroke-width:1.0;stroke-dasharray:2.0,2.0;" x1="637.5" x2="1034" y1="1514.2969" y2="1514.2969"/><polygon fill="#181818" points="958,1539.4297,948,1543.4297,958,1547.4297,954,1543.4297" style="stroke:#181818;stroke-width:1.0;"/><ellipse cx="1039.5" cy="1542.6797" fill="none" rx="4" ry="4" style="stroke:#181818;stroke-width:1.5;"/><line style="stroke:#181818;stroke-width:1.0;" x1="952" x2="1035" y1="1543.4297" y2="1543.4297"/><text fill="#000000" font-family="sans-serif" font-size="13" lengthAdjust="spacing" textLength="74" x="964" y="1538.3638">activeStack</text><polygon fill="#181818" points="653.5,1568.5625,643.5,1572.5625,653.5,1576.5625,649.5,1572.5625" style="stroke:#181818;stroke-width:1.0;"/><line style="stroke:#181818;stroke-width:1.0;" x1="647.5" x2="936" y1="1572.5625" y2="1572.5625"/><text fill="#000000" font-family="sans-serif" font-size="13" lengthAdjust="spacing" textLength="111" x="659.5" y="1567.4966">getAction(Result)</text><polygon fill="#181818" points="451.5,1597.6953,441.5,1601.6953,451.5,1605.6953,447.5,1601.6953" style="stroke:#181818;stroke-width:1.0;"/><line style="stroke:#181818;stroke-width:1.0;" x1="445.5" x2="631.5" y1="1601.6953" y2="1601.6953"/><text fill="#000000" font-family="sans-serif" font-size="13" lengthAdjust="spacing" textLength="173" x="457.5" y="1596.6294">baggage.GetAction(Result)</text><line style="stroke:#181818;stroke-width:1.0;" x1="440.5" x2="482.5" y1="1630.8281" y2="1630.8281"/><line style="stroke:#181818;stroke-width:1.0;" x1="482.5" x2="482.5" y1="1630.8281" y2="1643.8281"/><line style="stroke:#181818;stroke-width:1.0;" x1="441.5" x2="482.5" y1="1643.8281" y2="1643.8281"/><polygon fill="#181818" points="451.5,1639.8281,441.5,1643.8281,451.5,1647.8281,447.5,1643.8281" style="stroke:#181818;stroke-width:1.0;"/><text fill="#000000" filter="url(#b1c4xzwowyxwv12)" font-family="sans-serif" font-size="13" lengthAdjust="spacing" textLength="76" x="447.5" y="1625.7622">acquire lock</text><polygon fill="#808080" points="334.5,1668.9609,324.5,1672.9609,334.5,1676.9609,330.5,1672.9609" style="stroke:#808080;stroke-width:1.0;"/><polygon fill="#808080" points="418.5,1668.9609,428.5,1672.9609,418.5,1676.9609,422.5,1672.9609" style="stroke:#808080;stroke-width:1.0;"/><line style="stroke:#808080;stroke-width:1.0;stroke-dasharray:2.0,2.0;" x1="328.5" x2="424.5" y1="1672.9609" y2="1672.9609"/><text fill="#808080" font-family="sans-serif" font-size="13" lengthAdjust="spacing" textLength="55" x="340.5" y="1667.895">P_Result</text><polygon fill="#0000FF" points="334.5,1698.0938,324.5,1702.0938,334.5,1706.0938,330.5,1702.0938" style="stroke:#0000FF;stroke-width:1.0;"/><line style="stroke:#0000FF;stroke-width:1.0;stroke-dasharray:2.0,2.0;" x1="328.5" x2="429.5" y1="1702.0938" y2="1702.0938"/><text fill="#0000FF" font-family="sans-serif" font-size="13" lengthAdjust="spacing" textLength="72" x="340.5" y="1697.0278">cond.notify</text><line style="stroke:#FF0000;stroke-width:1.0;stroke-dasharray:2.0,2.0;" x1="323.5" x2="365.5" y1="1731.2266" y2="1731.2266"/><line style="stroke:#FF0000;stroke-width:1.0;stroke-dasharray:2.0,2.0;" x1="365.5" x2="365.5" y1="1731.2266" y2="1744.2266"/><line style="stroke:#FF0000;stroke-width:1.0;stroke-dasharray:2.0,2.0;" x1="324.5" x2="365.5" y1="1744.2266" y2="1744.2266"/><polygon fill="#FF0000" points="334.5,1740.2266,324.5,1744.2266,334.5,1748.2266,330.5,1744.2266" style="stroke:#FF0000;stroke-width:1.0;"/><text fill="#FF0000" filter="url(#b1c4xzwowyxwv12)" font-family="sans-serif" font-size="13" lengthAdjust="spacing" textLength="76" x="330.5" y="1726.1606">acquire lock</text><line style="stroke:#181818;stroke-width:1.0;" x1="440.5" x2="487.5" y1="1783.4922" y2="1783.4922"/><line style="stroke:#181818;stroke-width:1.0;" x1="487.5" x2="487.5" y1="1783.4922" y2="1796.4922"/><line style="stroke:#181818;stroke-width:1.0;" x1="446.5" x2="487.5" y1="1796.4922" y2="1796.4922"/><polygon fill="#181818" points="456.5,1792.4922,446.5,1796.4922,456.5,1800.4922,452.5,1796.4922" style="stroke:#181818;stroke-width:1.0;"/><text fill="#000000" filter="url(#b1c4xzwowyxwv10)" font-family="sans-serif" font-size="13" lengthAdjust="spacing" textLength="62" x="452.5" y="1763.2935">cond.wait</text><text fill="#FFFF00" filter="url(#b1c4xzwowyxwv11)" font-family="sans-serif" font-size="13" lengthAdjust="spacing" textLength="76" x="452.5" y="1778.4263">release lock</text><line style="stroke:#181818;stroke-width:1.0;" x1="323.5" x2="365.5" y1="1835.625" y2="1835.625"/><line style="stroke:#181818;stroke-width:1.0;" x1="365.5" x2="365.5" y1="1835.625" y2="1848.625"/><line style="stroke:#181818;stroke-width:1.0;" x1="318.5" x2="365.5" y1="1848.625" y2="1848.625"/><polygon fill="#181818" points="328.5,1844.625,318.5,1848.625,328.5,1852.625,324.5,1848.625" style="stroke:#181818;stroke-width:1.0;"/><text fill="#000000" filter="url(#b1c4xzwowyxwv12)" font-family="sans-serif" font-size="13" lengthAdjust="spacing" textLength="76" x="330.5" y="1830.5591">acquire lock</text><polygon fill="#181818" points="205.5,1868.7578,195.5,1872.7578,205.5,1876.7578,201.5,1872.7578" style="stroke:#181818;stroke-width:1.0;"/><line style="stroke:#181818;stroke-width:1.0;stroke-dasharray:2.0,2.0;" x1="199.5" x2="312.5" y1="1872.7578" y2="1872.7578"/><text fill="#000000" font-family="sans-serif" font-size="13" lengthAdjust="spacing" textLength="67" x="211.5" y="1867.6919">&#171;P_result&#187;</text><polygon fill="#181818" points="124,1897.8906,114,1901.8906,124,1905.8906,120,1901.8906" style="stroke:#181818;stroke-width:1.0;"/><line style="stroke:#181818;stroke-width:1.0;stroke-dasharray:2.0,2.0;" x1="118" x2="188.5" y1="1901.8906" y2="1901.8906"/><text fill="#000000" font-family="sans-serif" font-size="13" lengthAdjust="spacing" textLength="39" x="130" y="1896.8247">&#171;obs&#187;</text><polygon fill="#181818" points="11,1942.1563,1,1946.1563,11,1950.1563,7,1946.1563" style="stroke:#181818;stroke-width:1.0;"/><line style="stroke:#181818;stroke-width:1.0;stroke-dasharray:2.0,2.0;" x1="5" x2="107" y1="1946.1563" y2="1946.1563"/><text fill="#000000" font-family="sans-serif" font-size="13" lengthAdjust="spacing" textLength="23" x="17" y="1925.9575">obs</text><text fill="#808080" font-family="Arial" font-size="13" font-style="italic" lengthAdjust="spacing" textLength="84" x="17" y="1941.0903">// terminated</text><rect fill="#EEEEEE" height="3" style="stroke:#EEEEEE;stroke-width:1.0;" width="1092.5" x="0" y="1974.7227"/><line style="stroke:#000000;stroke-width:1.0;" x1="0" x2="1092.5" y1="1974.7227" y2="1974.7227"/><line style="stroke:#000000;stroke-width:1.0;" x1="0" x2="1092.5" y1="1977.7227" y2="1977.7227"/><rect fill="#EEEEEE" height="23.1328" style="stroke:#000000;stroke-width:2.0;" width="92" x="500.25" y="1964.1563"/><text fill="#000000" font-family="sans-serif" font-size="13" font-weight="bold" lengthAdjust="spacing" textLength="73" x="506.25" y="1980.2231">reset end</text><!--SRC=[hLTRZzeu57xFhpXDgKg60MROjn54OZgTYeVfThVjQgMXYfp4W3N1eR61GUgFttDivyAjdKhx0ebzBj-vVNQqq1a7_vzt3vFkTU-FtW2IN4gUwBpeRWPGSCKrj9SYxSPCesZWUvvw4dB52hO4nR-lkKpuRVvycnSfBzxbMLx0w_lxUyzxrPAnMi48_E7NpjNL-2f4tRUmpOidLkHhcO9US9YnHEC3mn_-h85bOYwNN6f8c8HSPZk8EMeHZ7cMnopBTZtugeISmqAjMCBRCa2OUbr81HzXcSlSBAUeP04a2rOexzLiBHCjSWajfzVAk9phHU01l6fXe8JKDoy27zqklMyN0dE4go5SuNijRluwretRCAe2kd1DcbocHfcUBKPCnYoN-gR66VeTijFnXttQmIIHMedMQm9FkKhQBVsiWsE3uqAmB1mcL82R3mNRXKCHzlk0rb61h8jms3VRuQyzPNdo5B7aUpHZ8ekeCkrzdp5BdcvsFCloRUcqm5XGPIqA3gHVUoFXOs-h8iVmroYzxwxTaddAoPrvW6xe7cxEui8U4XkckHDyZL2Cjyh56NSfOatqJnpknRaVd0dgHLuoH2QRNixwJ_b-93ypZtEQHbicVWsV2aFIFP9smAVILQsieP6CCzehUCQPsekphENlvzh0bBaMirsxzH4rnfTW_cyDOhC2tUxZwpXRys-XsoFi5XyjM_JMI0E94oLb1D7KFTqdv_lFW5HRePF5AP2_YA5H2REvN-Eo-ax-xCWLV9KPMi9nHVEAio9PNDhragECH5eHbIMcDqeNgrpjAmOGZYgsmbrXd8pE25UiLZcedpkeiuvHpUbSeLffC23s8qbd00MCZwPyxRrZl2Eljak_mHcIR7edApyfdK9svnjMs2culhHjERY4aYVjEWofJUR8Yz_SU0pg7gFbSBy0_bJwbtxPRDMq64a_g9hm9RXA7DLAibeXJlojKEwRUGjiaujKWLglU85ZY6STTXyEf91uu0Xf3ivKC4IpRBPGcVJWH2fTDKnSy4RoBHbh1uU-u_mPlbnxUBnhaOWLmuFOx_VVoqs_xmDJmENcS7ErgwuCJcYrEvJ1O1j2KscFiY_NWP6dX7W80z2xWp1ueOL1PU50WsuqKzdlZzCDZX-LP28rB_2wmQ4z7ay2XvKnSLhnrjntcbgtjLPyg8NoumaCwksZ0CWklCi4ed5IcsGf4hDG1-zLz6gIKhrXIgjdge5NAqEEZ8yUeTF1bZPI_BD6rjwtPPcQv52SbU9phiUczEs_kLfds3hCIb16hKZCvdCsvxqFHw8DvYDnN3XaFN8SUCPz5uskTlX7SpVy54saqDPG67fc8wJ8Ie4yLhZ-Y6DRh-AQvur6xbQgD2OOHYFFUtIg1gxPz8oESTXO92-XJKQzscx2TWUoXLrFh8sx3DWT5FKOcmW79WAJFHk1LGh3ibUDjy2p2NQYX86bLBrUON9H2llskXrXOuncB5FS3pp30Va6AO6QrYOXYf1ky38SHM0rO1J2nGKEFnhM5nUUTp_vz-4z-J4hi6HqemQnH5fM8ixufHUlDS78eDytHl7MA1Gn3abbd6xZs3dKeeIW3Y0-7wlVW838OwVHQ5gZk6HFtFLKhzSBZhgwQbCRstkPjl63ezXDxge-jLbiqhD2Xk2dcVkloTt86QWe_5mzcC5L1JGSke32yB0K3NXO3pP3mYZJ7KLJIHMv-_FZso_uIPDbW3pHgyC9flAE8s_dEn3uzOCMc5HRD40KRw1wPQInmUTQXVfsAgqTD5XsSkfi4JzLWHrcNU7zpWJtm59UToSU4xl0-_7ZHxCAnqNuJ6Ddn6fS0smvqmTuhk3KDZUEDCrgSrHgMyTOJ_7Su9ZehCt_ZTPEqC6WIGUVedq6h0bXO0ZX7EKLlqrtLVjXJos5H59DiVjg3gIX78t-0m00]--></g></svg>