<?xml version="1.0" encoding="us-ascii" standalone="no"?><svg xmlns="http://www.w3.org/2000/svg" xmlns:xlink="http://www.w3.org/1999/xlink" contentStyleType="text/css" height="1373px" preserveAspectRatio="none" style="width:986px;height:1373px;background:#FFFFFF;" version="1.1" viewBox="0 0 986 1373" width="986px" zoomAndPan="magnify"><defs><filter height="1" id="bcbyai625b15f0" width="1" x="0" y="0"><feFlood flood-color="#FF0000" result="flood"/><feComposite in="SourceGraphic" in2="flood" operator="over"/></filter><filter height="1" id="bcbyai625b15f1" width="1" x="0" y="0"><feFlood flood-color="#000000" result="flood"/><feComposite in="SourceGraphic" in2="flood" operator="over"/></filter><filter height="1" id="bcbyai625b15f2" width="1" x="0" y="0"><feFlood flood-color="#FFFF00" result="flood"/><feComposite in="SourceGraphic" in2="flood" operator="over"/></filter></defs><g><text fill="#000000" font-family="sans-serif" font-size="14" font-weight="bold" lengthAdjust="spacing" textLength="255" x="361.5" y="27.9951">VCMI-1.3.2 connector-v2 render</text><rect fill="#DDDDDD" height="1324.3672" style="stroke:#FFFFFF;stroke-width:0.5;" width="294" x="42" y="43.2969"/><text fill="#000000" font-family="sans-serif" font-size="13" font-weight="bold" lengthAdjust="spacing" textLength="20" x="179" y="55.3638">T1</text><rect fill="#DDDDDD" height="1324.3672" style="stroke:#FFFFFF;stroke-width:0.5;" width="640" x="338" y="43.2969"/><text fill="#000000" font-family="sans-serif" font-size="13" font-weight="bold" lengthAdjust="spacing" textLength="20" x="648" y="55.3638">T2</text><rect fill="#FFFFFF" height="266.1953" style="stroke:#181818;stroke-width:1.0;" width="10" x="61" y="120.0234"/><rect fill="#FFFFFF" height="797.4531" style="stroke:#181818;stroke-width:1.0;" width="10" x="61" y="458.4844"/><rect fill="#FFFFFF" height="237.0625" style="stroke:#181818;stroke-width:1.0;" width="10" x="147" y="120.0234"/><rect fill="#FFFFFF" height="739.1875" style="stroke:#181818;stroke-width:1.0;" width="10" x="147" y="487.6172"/><rect fill="#FFFFFF" height="207.9297" style="stroke:#181818;stroke-width:1.0;" width="10" x="271" y="120.0234"/><rect fill="#FF0000" height="150.6641" style="stroke:#181818;stroke-width:1.0;" width="10" x="276" y="141.1563"/><rect fill="#FFFFFF" height="680.9219" style="stroke:#181818;stroke-width:1.0;" width="10" x="271" y="516.75"/><rect fill="#FF0000" height="449.9922" style="stroke:#181818;stroke-width:1.0;" width="10" x="276" y="711.5469"/><rect fill="#FFFFFF" height="603.5234" style="stroke:#181818;stroke-width:1.0;" width="10" x="393" y="199.4219"/><rect fill="#FF0000" height="499.9922" style="stroke:#181818;stroke-width:1.0;" width="10" x="398" y="251.6875"/><rect fill="#FFFFFF" height="381.4609" style="stroke:#181818;stroke-width:1.0;" width="10" x="393" y="926.6094"/><rect fill="#FF0000" height="186.6641" style="stroke:#181818;stroke-width:1.0;" width="10" x="398" y="1121.4063"/><rect fill="#FFFFFF" height="1137.7813" style="stroke:#181818;stroke-width:1.0;" width="10" x="595" y="170.2891"/><rect fill="#FFFFFF" height="1166.9141" style="stroke:#181818;stroke-width:1.0;" width="10" x="783" y="141.1563"/><rect fill="#FFFFFF" height="39.6992" style="stroke:#181818;stroke-width:1.0;" width="10" x="788" y="842.6445"/><line style="stroke:#181818;stroke-width:0.5;stroke-dasharray:5.0,5.0;" x1="66" x2="66" y1="110.0234" y2="1317.0703"/><line style="stroke:#181818;stroke-width:0.5;stroke-dasharray:5.0,5.0;" x1="151.5" x2="151.5" y1="110.0234" y2="1317.0703"/><line style="stroke:#181818;stroke-width:0.5;stroke-dasharray:5.0,5.0;" x1="276" x2="276" y1="110.0234" y2="1317.0703"/><line style="stroke:#181818;stroke-width:0.5;stroke-dasharray:5.0,5.0;" x1="398" x2="398" y1="110.0234" y2="1317.0703"/><line style="stroke:#181818;stroke-width:0.5;stroke-dasharray:5.0,5.0;" x1="600" x2="600" y1="110.0234" y2="1317.0703"/><line style="stroke:#181818;stroke-width:0.5;stroke-dasharray:5.0,5.0;" x1="788" x2="788" y1="110.0234" y2="1317.0703"/><line style="stroke:#181818;stroke-width:0.5;stroke-dasharray:5.0,5.0;" x1="926" x2="926" y1="110.0234" y2="1317.0703"/><rect fill="#E2E2F0" height="30.2969" rx="2.5" ry="2.5" style="stroke:#181818;stroke-width:0.5;" width="40" x="46" y="78.7266"/><text fill="#000000" font-family="sans-serif" font-size="14" font-style="italic" lengthAdjust="spacing" textLength="26" x="53" y="98.7217">Env</text><rect fill="#E2E2F0" height="30.2969" rx="2.5" ry="2.5" style="stroke:#181818;stroke-width:0.5;" width="40" x="46" y="1316.0703"/><text fill="#000000" font-family="sans-serif" font-size="14" font-style="italic" lengthAdjust="spacing" textLength="26" x="53" y="1336.0654">Env</text><rect fill="#E2E2F0" height="30.2969" rx="2.5" ry="2.5" style="stroke:#181818;stroke-width:0.5;" width="103" x="100.5" y="78.7266"/><text fill="#000000" font-family="sans-serif" font-size="14" font-style="italic" lengthAdjust="spacing" textLength="89" x="107.5" y="98.7217">pyconnector</text><rect fill="#E2E2F0" height="30.2969" rx="2.5" ry="2.5" style="stroke:#181818;stroke-width:0.5;" width="103" x="100.5" y="1316.0703"/><text fill="#000000" font-family="sans-serif" font-size="14" font-style="italic" lengthAdjust="spacing" textLength="89" x="107.5" y="1336.0654">pyconnector</text><rect fill="#E2E2F0" height="46.5938" rx="2.5" ry="2.5" style="stroke:#181818;stroke-width:0.5;" width="112" x="220" y="62.4297"/><text fill="#000000" font-family="sans-serif" font-size="14" font-style="italic" lengthAdjust="spacing" textLength="98" x="227" y="82.4248">cppconnector</text><text fill="#808080" font-family="Arial" font-size="14" font-style="italic" lengthAdjust="spacing" textLength="32" x="260" y="98.7217">// T1</text><rect fill="#E2E2F0" height="46.5938" rx="2.5" ry="2.5" style="stroke:#181818;stroke-width:0.5;" width="112" x="220" y="1316.0703"/><text fill="#000000" font-family="sans-serif" font-size="14" font-style="italic" lengthAdjust="spacing" textLength="98" x="227" y="1336.0654">cppconnector</text><text fill="#808080" font-family="Arial" font-size="14" font-style="italic" lengthAdjust="spacing" textLength="32" x="260" y="1352.3623">// T1</text><rect fill="#E2E2F0" height="46.5938" rx="2.5" ry="2.5" style="stroke:#181818;stroke-width:0.5;" width="112" x="342" y="62.4297"/><text fill="#000000" font-family="sans-serif" font-size="14" font-style="italic" lengthAdjust="spacing" textLength="98" x="349" y="82.4248">cppconnector</text><text fill="#808080" font-family="Arial" font-size="14" font-style="italic" lengthAdjust="spacing" textLength="32" x="382" y="98.7217">// T2</text><rect fill="#E2E2F0" height="46.5938" rx="2.5" ry="2.5" style="stroke:#181818;stroke-width:0.5;" width="112" x="342" y="1316.0703"/><text fill="#000000" font-family="sans-serif" font-size="14" font-style="italic" lengthAdjust="spacing" textLength="98" x="349" y="1336.0654">cppconnector</text><text fill="#808080" font-family="Arial" font-size="14" font-style="italic" lengthAdjust="spacing" textLength="32" x="382" y="1352.3623">// T2</text><rect fill="#E2E2F0" height="46.5938" rx="2.5" ry="2.5" style="stroke:#181818;stroke-width:0.5;" width="194" x="503" y="62.4297"/><text fill="#000000" font-family="sans-serif" font-size="14" lengthAdjust="spacing" textLength="36" x="582" y="82.4248">VCMI</text><text fill="#000000" font-family="sans-serif" font-size="14" font-style="italic" lengthAdjust="spacing" textLength="180" x="510" y="98.7217">Adventure Interface (AAI)</text><rect fill="#E2E2F0" height="46.5938" rx="2.5" ry="2.5" style="stroke:#181818;stroke-width:0.5;" width="194" x="503" y="1316.0703"/><text fill="#000000" font-family="sans-serif" font-size="14" lengthAdjust="spacing" textLength="36" x="582" y="1336.0654">VCMI</text><text fill="#000000" font-family="sans-serif" font-size="14" font-style="italic" lengthAdjust="spacing" textLength="180" x="510" y="1352.3623">Adventure Interface (AAI)</text><rect fill="#E2E2F0" height="46.5938" rx="2.5" ry="2.5" style="stroke:#181818;stroke-width:0.5;" width="162" x="707" y="62.4297"/><text fill="#000000" font-family="sans-serif" font-size="14" lengthAdjust="spacing" textLength="36" x="770" y="82.4248">VCMI</text><text fill="#000000" font-family="sans-serif" font-size="14" font-style="italic" lengthAdjust="spacing" textLength="148" x="714" y="98.7217">Battle Interface (BAI)</text><rect fill="#E2E2F0" height="46.5938" rx="2.5" ry="2.5" style="stroke:#181818;stroke-width:0.5;" width="162" x="707" y="1316.0703"/><text fill="#000000" font-family="sans-serif" font-size="14" lengthAdjust="spacing" textLength="36" x="770" y="1336.0654">VCMI</text><text fill="#000000" font-family="sans-serif" font-size="14" font-style="italic" lengthAdjust="spacing" textLength="148" x="714" y="1352.3623">Battle Interface (BAI)</text><rect fill="#E2E2F0" height="30.2969" rx="2.5" ry="2.5" style="stroke:#181818;stroke-width:0.5;" width="95" x="879" y="78.7266"/><text fill="#000000" font-family="sans-serif" font-size="14" font-style="italic" lengthAdjust="spacing" textLength="81" x="886" y="98.7217">VCMI Client</text><rect fill="#E2E2F0" height="30.2969" rx="2.5" ry="2.5" style="stroke:#181818;stroke-width:0.5;" width="95" x="879" y="1316.0703"/><text fill="#000000" font-family="sans-serif" font-size="14" font-style="italic" lengthAdjust="spacing" textLength="81" x="886" y="1336.0654">VCMI Client</text><rect fill="#FFFFFF" height="266.1953" style="stroke:#181818;stroke-width:1.0;" width="10" x="61" y="120.0234"/><rect fill="#FFFFFF" height="797.4531" style="stroke:#181818;stroke-width:1.0;" width="10" x="61" y="458.4844"/><rect fill="#FFFFFF" height="237.0625" style="stroke:#181818;stroke-width:1.0;" width="10" x="147" y="120.0234"/><rect fill="#FFFFFF" height="739.1875" style="stroke:#181818;stroke-width:1.0;" width="10" x="147" y="487.6172"/><rect fill="#FFFFFF" height="207.9297" style="stroke:#181818;stroke-width:1.0;" width="10" x="271" y="120.0234"/><rect fill="#FF0000" height="150.6641" style="stroke:#181818;stroke-width:1.0;" width="10" x="276" y="141.1563"/><rect fill="#FFFFFF" height="680.9219" style="stroke:#181818;stroke-width:1.0;" width="10" x="271" y="516.75"/><rect fill="#FF0000" height="449.9922" style="stroke:#181818;stroke-width:1.0;" width="10" x="276" y="711.5469"/><rect fill="#FFFFFF" height="603.5234" style="stroke:#181818;stroke-width:1.0;" width="10" x="393" y="199.4219"/><rect fill="#FF0000" height="499.9922" style="stroke:#181818;stroke-width:1.0;" width="10" x="398" y="251.6875"/><rect fill="#FFFFFF" height="381.4609" style="stroke:#181818;stroke-width:1.0;" width="10" x="393" y="926.6094"/><rect fill="#FF0000" height="186.6641" style="stroke:#181818;stroke-width:1.0;" width="10" x="398" y="1121.4063"/><rect fill="#FFFFFF" height="1137.7813" style="stroke:#181818;stroke-width:1.0;" width="10" x="595" y="170.2891"/><rect fill="#FFFFFF" height="1166.9141" style="stroke:#181818;stroke-width:1.0;" width="10" x="783" y="141.1563"/><rect fill="#FFFFFF" height="39.6992" style="stroke:#181818;stroke-width:1.0;" width="10" x="788" y="842.6445"/><polygon fill="#181818" points="804,137.1563,794,141.1563,804,145.1563,800,141.1563" style="stroke:#181818;stroke-width:1.0;"/><ellipse cx="926" cy="140.4063" fill="none" rx="4" ry="4" style="stroke:#181818;stroke-width:1.5;"/><line style="stroke:#181818;stroke-width:1.0;" x1="798" x2="921.5" y1="141.1563" y2="141.1563"/><text fill="#000000" font-family="sans-serif" font-size="13" lengthAdjust="spacing" textLength="74" x="810" y="136.0903">activeStack</text><polygon fill="#181818" points="616,166.2891,606,170.2891,616,174.2891,612,170.2891" style="stroke:#181818;stroke-width:1.0;"/><line style="stroke:#181818;stroke-width:1.0;" x1="610" x2="782" y1="170.2891" y2="170.2891"/><text fill="#000000" font-family="sans-serif" font-size="13" lengthAdjust="spacing" textLength="111" x="622" y="165.2231">getAction(Result)</text><polygon fill="#181818" points="414,195.4219,404,199.4219,414,203.4219,410,199.4219" style="stroke:#181818;stroke-width:1.0;"/><line style="stroke:#181818;stroke-width:1.0;" x1="408" x2="594" y1="199.4219" y2="199.4219"/><text fill="#000000" font-family="sans-serif" font-size="13" lengthAdjust="spacing" textLength="173" x="420" y="194.356">baggage.GetAction(Result)</text><line style="stroke:#181818;stroke-width:1.0;" x1="403" x2="450" y1="238.6875" y2="238.6875"/><line style="stroke:#181818;stroke-width:1.0;" x1="450" x2="450" y1="238.6875" y2="251.6875"/><line style="stroke:#181818;stroke-width:1.0;" x1="409" x2="450" y1="251.6875" y2="251.6875"/><polygon fill="#181818" points="419,247.6875,409,251.6875,419,255.6875,415,251.6875" style="stroke:#181818;stroke-width:1.0;"/><text fill="#000000" filter="url(#bcbyai625b15f0)" font-family="sans-serif" font-size="13" lengthAdjust="spacing" textLength="62" x="415" y="218.4888">cond.wait</text><text fill="#FFFF00" filter="url(#bcbyai625b15f1)" font-family="sans-serif" font-size="13" lengthAdjust="spacing" textLength="76" x="415" y="233.6216">release lock</text><line style="stroke:#181818;stroke-width:1.0;" x1="286" x2="328" y1="290.8203" y2="290.8203"/><line style="stroke:#181818;stroke-width:1.0;" x1="328" x2="328" y1="290.8203" y2="303.8203"/><line style="stroke:#181818;stroke-width:1.0;" x1="281" x2="328" y1="303.8203" y2="303.8203"/><polygon fill="#181818" points="291,299.8203,281,303.8203,291,307.8203,287,303.8203" style="stroke:#181818;stroke-width:1.0;"/><text fill="#000000" filter="url(#bcbyai625b15f2)" font-family="sans-serif" font-size="13" lengthAdjust="spacing" textLength="76" x="293" y="285.7544">acquire lock</text><polygon fill="#181818" points="168,323.9531,158,327.9531,168,331.9531,164,327.9531" style="stroke:#181818;stroke-width:1.0;"/><line style="stroke:#181818;stroke-width:1.0;stroke-dasharray:2.0,2.0;" x1="162" x2="275" y1="327.9531" y2="327.9531"/><text fill="#000000" font-family="sans-serif" font-size="13" lengthAdjust="spacing" textLength="90" x="174" y="322.8872">&#171;P_InitResult&#187;</text><polygon fill="#181818" points="82,353.0859,72,357.0859,82,361.0859,78,357.0859" style="stroke:#181818;stroke-width:1.0;"/><line style="stroke:#181818;stroke-width:1.0;stroke-dasharray:2.0,2.0;" x1="76" x2="151" y1="357.0859" y2="357.0859"/><text fill="#000000" font-family="sans-serif" font-size="13" lengthAdjust="spacing" textLength="39" x="88" y="352.02">&#171;obs&#187;</text><polygon fill="#181818" points="11,382.2188,1,386.2188,11,390.2188,7,386.2188" style="stroke:#181818;stroke-width:1.0;"/><line style="stroke:#181818;stroke-width:1.0;stroke-dasharray:2.0,2.0;" x1="5" x2="65" y1="386.2188" y2="386.2188"/><text fill="#000000" font-family="sans-serif" font-size="13" lengthAdjust="spacing" textLength="23" x="17" y="381.1528">obs</text><rect fill="#EEEEEE" height="3" style="stroke:#EEEEEE;stroke-width:1.0;" width="979" x="0" y="414.7852"/><line style="stroke:#000000;stroke-width:1.0;" x1="0" x2="979" y1="414.7852" y2="414.7852"/><line style="stroke:#000000;stroke-width:1.0;" x1="0" x2="979" y1="417.7852" y2="417.7852"/><rect fill="#EEEEEE" height="23.1328" style="stroke:#000000;stroke-width:2.0;" width="114" x="432.5" y="404.2188"/><text fill="#000000" font-family="sans-serif" font-size="13" font-weight="bold" lengthAdjust="spacing" textLength="95" x="438.5" y="420.2856">render start</text><polygon fill="#181818" points="49,454.4844,59,458.4844,49,462.4844,53,458.4844" style="stroke:#181818;stroke-width:1.0;"/><line style="stroke:#181818;stroke-width:1.0;" x1="0" x2="55" y1="458.4844" y2="458.4844"/><text fill="#000000" font-family="sans-serif" font-size="13" lengthAdjust="spacing" textLength="42" x="7" y="453.4185">render</text><polygon fill="#181818" points="135,483.6172,145,487.6172,135,491.6172,139,487.6172" style="stroke:#181818;stroke-width:1.0;"/><line style="stroke:#181818;stroke-width:1.0;" x1="71" x2="141" y1="487.6172" y2="487.6172"/><text fill="#000000" font-family="sans-serif" font-size="13" lengthAdjust="spacing" textLength="42" x="78" y="482.5513">render</text><polygon fill="#181818" points="259,512.75,269,516.75,259,520.75,263,516.75" style="stroke:#181818;stroke-width:1.0;"/><line style="stroke:#181818;stroke-width:1.0;" x1="157" x2="265" y1="516.75" y2="516.75"/><text fill="#000000" font-family="sans-serif" font-size="13" lengthAdjust="spacing" textLength="42" x="164" y="511.6841">render</text><line style="stroke:#181818;stroke-width:1.0;" x1="281" x2="323" y1="545.8828" y2="545.8828"/><line style="stroke:#181818;stroke-width:1.0;" x1="323" x2="323" y1="545.8828" y2="558.8828"/><line style="stroke:#181818;stroke-width:1.0;" x1="282" x2="323" y1="558.8828" y2="558.8828"/><polygon fill="#181818" points="292,554.8828,282,558.8828,292,562.8828,288,558.8828" style="stroke:#181818;stroke-width:1.0;"/><text fill="#000000" filter="url(#bcbyai625b15f2)" font-family="sans-serif" font-size="13" lengthAdjust="spacing" textLength="76" x="288" y="540.8169">acquire lock</text><polygon fill="#808080" points="292,584.0156,282,588.0156,292,592.0156,288,588.0156" style="stroke:#808080;stroke-width:1.0;"/><polygon fill="#808080" points="386,584.0156,396,588.0156,386,592.0156,390,588.0156" style="stroke:#808080;stroke-width:1.0;"/><line style="stroke:#808080;stroke-width:1.0;stroke-dasharray:2.0,2.0;" x1="286" x2="392" y1="588.0156" y2="588.0156"/><text fill="#808080" font-family="sans-serif" font-size="13" lengthAdjust="spacing" textLength="40" x="298" y="582.9497">Action</text><polygon fill="#0000FF" points="386,613.1484,396,617.1484,386,621.1484,390,617.1484" style="stroke:#0000FF;stroke-width:1.0;"/><line style="stroke:#0000FF;stroke-width:1.0;stroke-dasharray:2.0,2.0;" x1="281" x2="392" y1="617.1484" y2="617.1484"/><text fill="#0000FF" font-family="sans-serif" font-size="13" lengthAdjust="spacing" textLength="72" x="288" y="612.0825">cond.notify</text><line style="stroke:#FF0000;stroke-width:1.0;stroke-dasharray:2.0,2.0;" x1="408" x2="450" y1="646.2813" y2="646.2813"/><line style="stroke:#FF0000;stroke-width:1.0;stroke-dasharray:2.0,2.0;" x1="450" x2="450" y1="646.2813" y2="659.2813"/><line style="stroke:#FF0000;stroke-width:1.0;stroke-dasharray:2.0,2.0;" x1="409" x2="450" y1="659.2813" y2="659.2813"/><polygon fill="#FF0000" points="419,655.2813,409,659.2813,419,663.2813,415,659.2813" style="stroke:#FF0000;stroke-width:1.0;"/><text fill="#FF0000" filter="url(#bcbyai625b15f2)" font-family="sans-serif" font-size="13" lengthAdjust="spacing" textLength="76" x="415" y="641.2153">acquire lock</text><line style="stroke:#181818;stroke-width:1.0;" x1="281" x2="328" y1="698.5469" y2="698.5469"/><line style="stroke:#181818;stroke-width:1.0;" x1="328" x2="328" y1="698.5469" y2="711.5469"/><line style="stroke:#181818;stroke-width:1.0;" x1="287" x2="328" y1="711.5469" y2="711.5469"/><polygon fill="#181818" points="297,707.5469,287,711.5469,297,715.5469,293,711.5469" style="stroke:#181818;stroke-width:1.0;"/><text fill="#000000" filter="url(#bcbyai625b15f0)" font-family="sans-serif" font-size="13" lengthAdjust="spacing" textLength="62" x="293" y="678.3481">cond.wait</text><text fill="#FFFF00" filter="url(#bcbyai625b15f1)" font-family="sans-serif" font-size="13" lengthAdjust="spacing" textLength="76" x="293" y="693.481">release lock</text><line style="stroke:#181818;stroke-width:1.0;" x1="408" x2="450" y1="750.6797" y2="750.6797"/><line style="stroke:#181818;stroke-width:1.0;" x1="450" x2="450" y1="750.6797" y2="763.6797"/><line style="stroke:#181818;stroke-width:1.0;" x1="403" x2="450" y1="763.6797" y2="763.6797"/><polygon fill="#181818" points="413,759.6797,403,763.6797,413,767.6797,409,763.6797" style="stroke:#181818;stroke-width:1.0;"/><text fill="#000000" filter="url(#bcbyai625b15f2)" font-family="sans-serif" font-size="13" lengthAdjust="spacing" textLength="76" x="415" y="745.6138">acquire lock</text><polygon fill="#181818" points="583,798.9453,593,802.9453,583,806.9453,587,802.9453" style="stroke:#181818;stroke-width:1.0;"/><line style="stroke:#181818;stroke-width:1.0;stroke-dasharray:2.0,2.0;" x1="398" x2="589" y1="802.9453" y2="802.9453"/><text fill="#000000" font-family="sans-serif" font-size="13" lengthAdjust="spacing" textLength="56" x="405" y="782.7466">&#171;Action&#187;</text><text fill="#808080" font-family="Arial" font-size="13" font-style="italic" lengthAdjust="spacing" textLength="54" x="405" y="797.8794">// render</text><polygon fill="#181818" points="776,838.6445,786,842.6445,776,846.6445,780,842.6445" style="stroke:#181818;stroke-width:1.0;"/><line style="stroke:#181818;stroke-width:1.0;stroke-dasharray:2.0,2.0;" x1="605" x2="782" y1="842.6445" y2="842.6445"/><text fill="#000000" font-family="sans-serif" font-size="13" lengthAdjust="spacing" textLength="75" x="612" y="837.5786">bai.render()</text><path d="M803,815.9453 L803,855.9453 L908,855.9453 L908,825.9453 L898,815.9453 L803,815.9453 " fill="#FEFFDD" style="stroke:#181818;stroke-width:0.5;"/><path d="M898,815.9453 L898,825.9453 L908,825.9453 L898,815.9453 " fill="#FEFFDD" style="stroke:#181818;stroke-width:0.5;"/><text fill="#000000" font-family="sans-serif" font-size="13" lengthAdjust="spacing" textLength="82" x="809" y="833.0122">same thread</text><text fill="#000000" font-family="sans-serif" font-size="13" lengthAdjust="spacing" textLength="84" x="809" y="848.145">recursive call</text><polygon fill="#181818" points="616,878.3438,606,882.3438,616,886.3438,612,882.3438" style="stroke:#181818;stroke-width:1.0;"/><line style="stroke:#181818;stroke-width:1.0;stroke-dasharray:2.0,2.0;" x1="610" x2="782" y1="882.3438" y2="882.3438"/><text fill="#000000" font-family="sans-serif" font-size="13" lengthAdjust="spacing" textLength="52" x="622" y="877.2778">&#171;string&#187;</text><polygon fill="#181818" points="414,922.6094,404,926.6094,414,930.6094,410,926.6094" style="stroke:#181818;stroke-width:1.0;"/><line style="stroke:#181818;stroke-width:1.0;" x1="408" x2="594" y1="926.6094" y2="926.6094"/><text fill="#000000" font-family="sans-serif" font-size="13" lengthAdjust="spacing" textLength="173" x="420" y="906.4106">baggage.GetAction(Result)</text><text fill="#808080" font-family="Arial" font-size="13" font-style="italic" lengthAdjust="spacing" textLength="146" x="420" y="921.5435">// contains render data</text><line style="stroke:#181818;stroke-width:1.0;" x1="403" x2="445" y1="955.7422" y2="955.7422"/><line style="stroke:#181818;stroke-width:1.0;" x1="445" x2="445" y1="955.7422" y2="968.7422"/><line style="stroke:#181818;stroke-width:1.0;" x1="404" x2="445" y1="968.7422" y2="968.7422"/><polygon fill="#181818" points="414,964.7422,404,968.7422,414,972.7422,410,968.7422" style="stroke:#181818;stroke-width:1.0;"/><text fill="#000000" filter="url(#bcbyai625b15f2)" font-family="sans-serif" font-size="13" lengthAdjust="spacing" textLength="76" x="410" y="950.6763">acquire lock</text><polygon fill="#808080" points="297,993.875,287,997.875,297,1001.875,293,997.875" style="stroke:#808080;stroke-width:1.0;"/><polygon fill="#808080" points="381,993.875,391,997.875,381,1001.875,385,997.875" style="stroke:#808080;stroke-width:1.0;"/><line style="stroke:#808080;stroke-width:1.0;stroke-dasharray:2.0,2.0;" x1="291" x2="387" y1="997.875" y2="997.875"/><text fill="#808080" font-family="sans-serif" font-size="13" lengthAdjust="spacing" textLength="55" x="303" y="992.8091">P_Result</text><polygon fill="#0000FF" points="297,1023.0078,287,1027.0078,297,1031.0078,293,1027.0078" style="stroke:#0000FF;stroke-width:1.0;"/><line style="stroke:#0000FF;stroke-width:1.0;stroke-dasharray:2.0,2.0;" x1="291" x2="392" y1="1027.0078" y2="1027.0078"/><text fill="#0000FF" font-family="sans-serif" font-size="13" lengthAdjust="spacing" textLength="72" x="303" y="1021.9419">cond.notify</text><line style="stroke:#FF0000;stroke-width:1.0;stroke-dasharray:2.0,2.0;" x1="286" x2="328" y1="1056.1406" y2="1056.1406"/><line style="stroke:#FF0000;stroke-width:1.0;stroke-dasharray:2.0,2.0;" x1="328" x2="328" y1="1056.1406" y2="1069.1406"/><line style="stroke:#FF0000;stroke-width:1.0;stroke-dasharray:2.0,2.0;" x1="287" x2="328" y1="1069.1406" y2="1069.1406"/><polygon fill="#FF0000" points="297,1065.1406,287,1069.1406,297,1073.1406,293,1069.1406" style="stroke:#FF0000;stroke-width:1.0;"/><text fill="#FF0000" filter="url(#bcbyai625b15f2)" font-family="sans-serif" font-size="13" lengthAdjust="spacing" textLength="76" x="293" y="1051.0747">acquire lock</text><line style="stroke:#181818;stroke-width:1.0;" x1="403" x2="450" y1="1108.4063" y2="1108.4063"/><line style="stroke:#181818;stroke-width:1.0;" x1="450" x2="450" y1="1108.4063" y2="1121.4063"/><line style="stroke:#181818;stroke-width:1.0;" x1="409" x2="450" y1="1121.4063" y2="1121.4063"/><polygon fill="#181818" points="419,1117.4063,409,1121.4063,419,1125.4063,415,1121.4063" style="stroke:#181818;stroke-width:1.0;"/><text fill="#000000" filter="url(#bcbyai625b15f0)" font-family="sans-serif" font-size="13" lengthAdjust="spacing" textLength="62" x="415" y="1088.2075">cond.wait</text><text fill="#FFFF00" filter="url(#bcbyai625b15f1)" font-family="sans-serif" font-size="13" lengthAdjust="spacing" textLength="76" x="415" y="1103.3403">release lock</text><line style="stroke:#181818;stroke-width:1.0;" x1="286" x2="328" y1="1160.5391" y2="1160.5391"/><line style="stroke:#181818;stroke-width:1.0;" x1="328" x2="328" y1="1160.5391" y2="1173.5391"/><line style="stroke:#181818;stroke-width:1.0;" x1="281" x2="328" y1="1173.5391" y2="1173.5391"/><polygon fill="#181818" points="291,1169.5391,281,1173.5391,291,1177.5391,287,1173.5391" style="stroke:#181818;stroke-width:1.0;"/><text fill="#000000" filter="url(#bcbyai625b15f2)" font-family="sans-serif" font-size="13" lengthAdjust="spacing" textLength="76" x="293" y="1155.4731">acquire lock</text><polygon fill="#181818" points="168,1193.6719,158,1197.6719,168,1201.6719,164,1197.6719" style="stroke:#181818;stroke-width:1.0;"/><line style="stroke:#181818;stroke-width:1.0;stroke-dasharray:2.0,2.0;" x1="162" x2="275" y1="1197.6719" y2="1197.6719"/><text fill="#000000" font-family="sans-serif" font-size="13" lengthAdjust="spacing" textLength="67" x="174" y="1192.606">&#171;P_result&#187;</text><polygon fill="#181818" points="82,1222.8047,72,1226.8047,82,1230.8047,78,1226.8047" style="stroke:#181818;stroke-width:1.0;"/><line style="stroke:#181818;stroke-width:1.0;stroke-dasharray:2.0,2.0;" x1="76" x2="151" y1="1226.8047" y2="1226.8047"/><text fill="#000000" font-family="sans-serif" font-size="13" lengthAdjust="spacing" textLength="52" x="88" y="1221.7388">&#171;string&#187;</text><polygon fill="#181818" points="11,1251.9375,1,1255.9375,11,1259.9375,7,1255.9375" style="stroke:#181818;stroke-width:1.0;"/><line style="stroke:#181818;stroke-width:1.0;stroke-dasharray:2.0,2.0;" x1="5" x2="65" y1="1255.9375" y2="1255.9375"/><text fill="#000000" font-family="sans-serif" font-size="13" lengthAdjust="spacing" textLength="36" x="17" y="1250.8716">string</text><rect fill="#EEEEEE" height="3" style="stroke:#EEEEEE;stroke-width:1.0;" width="979" x="0" y="1284.5039"/><line style="stroke:#000000;stroke-width:1.0;" x1="0" x2="979" y1="1284.5039" y2="1284.5039"/><line style="stroke:#000000;stroke-width:1.0;" x1="0" x2="979" y1="1287.5039" y2="1287.5039"/><rect fill="#EEEEEE" height="23.1328" style="stroke:#000000;stroke-width:2.0;" width="101" x="439" y="1273.9375"/><text fill="#000000" font-family="sans-serif" font-size="13" font-weight="bold" lengthAdjust="spacing" textLength="82" x="445" y="1290.0044">render end</text><!--SRC=[bLPBRziu4BxhLqmK5xNWs8gzDyCMu0IR8eSjYjrsBqbXK19Z4v59bQJi-D_lyA5NOgVPYqqDvvlvvi4XDTC5XV3Vsx_knzF97vCPP89pccaXn_iPICfpAiCWKC-CbqII7IZwgw8yepVYvKP8tBqLXP1mUNTt5mGN0vwg4fOGBdwChgzNrmbYFyD1o6SYHSLpq5iAJoJJk23uGryqa89j-8vo3HdX87XnX9GYIb4DcqAaf2YE4_YX6D_0LfKaeqCU8JLTIQxWA-m45rQS8yWHoBP4gk3YgUAPPeB3mEC61UKRlOq2W8k1fCem3Uq7mwNVDT-7BSEye3I1Q_nkrUtVoBdn6nRAO0nJWyICMR1PEuwOZ2V1zRpbcOGZOsSKBcApWqaoi9fjq2LUYEnvJR9VwoV2YhN9rp3gcKv9zZm_qg8GXsIHcLhC9Nf0ICKa1ODVn5QUB6AZ_DPRAGMIgb2xxsuuu2AdnfrTm3ZnY_bPNbXPjYUQUiLBf6AzDIxEkCkHQwRVSTYBin-S3Uf3NWfanhjUplhFQJ-IzypZYSdN1y9-JzyKncXFZBOd_iXzrUeQMisqC7kI5fIeNfnrBVz_hYrDBZHxEWu7Nn6nkWBxVsCPMmcCnm-NQL7HdudVCzmTFoDsx9sH3XElQi18eeiztIVd-y-IL0Uci-qfah-9eLC9kzclSLrzht_so4bQ5dPOw1UDvXKbCjjUENazEQn6temFDou-AIrBeVh0299bCqDmbradopFApQnf7BJh4MAg564USusmsc1aPfBHz0PGmVhewhVUHzOxJhjXxJSwCxgwtesLTqgdSERIFP7k54olN5lEhYokEHHJM9WssKXo_EcFnwpjCIDE-WK87tbu5TRDrfmMgnb6JHD-X5VDev5aPOayyRTXsJVp6SXUi5o1gaegyHZY3OJTXmUISRm66BVNMSu8ijbrMwXEUdGYbRuQDYxunEd161j6xpHaJbNsnfo_L5QIaQ8U_5zCKXOiYMF06mO1vePXIJl_JzusGIfUuFiqmFjTiuoL16_YC8x_vFiu3e4ee7p_UhCyDky4hrGUN-jWNZjAZzp5yNqQMNsJ-m1v07ht56OVj31hBBn2c6VC8u_ZLRx7aswgVyyrbVZUe31ShUuZpvKGTXfuGxHv3tLGDoqgVOsAOuE3suAXDw-qptOiiu8sk6PGsvYRBynOipOf3bei2Bmxq1-CHdWuh1RzH-FyxzjoCz_eeJgfrJTKhsnfXtzJLHNODSHfc8GvbPHiDcH39r_Ug7Pcg557mUlvQHn7WNK_HgFb4V_C2LvyMzzpffsX90diHc8YgnL4gb3-W0EWbQ8i29PB_z84fJ71i5m6mOF7MhvkDx0ewx8hDOuIbu-k-CtbxeYtfzz5NeViBvrs9DWOPpO6cpyNWmCbITsCeNyY-oHtouQBYTl5Ay-E3SasMpq7HNOK9uUa97_aIAsI2kkBhz-YSCNikyHXWazVpDp7ozYmmz0qOVXCzldDYIPXT38tTS3T-MoJEkzCp6_hVgEqMPlPh9th37c-Avhm-etXnDtUCETfkVmF]--></g></svg>