<?xml version="1.0" encoding="us-ascii" standalone="no"?><svg xmlns="http://www.w3.org/2000/svg" xmlns:xlink="http://www.w3.org/1999/xlink" contentStyleType="text/css" height="1380px" preserveAspectRatio="none" style="width:967px;height:1380px;background:#FFFFFF;" version="1.1" viewBox="0 0 967 1380" width="967px" zoomAndPan="magnify"><defs><filter height="1" id="b1cqok44bem9lk0" width="1" x="0" y="0"><feFlood flood-color="#FF0000" result="flood"/><feComposite in="SourceGraphic" in2="flood" operator="over"/></filter><filter height="1" id="b1cqok44bem9lk1" width="1" x="0" y="0"><feFlood flood-color="#000000" result="flood"/><feComposite in="SourceGraphic" in2="flood" operator="over"/></filter><filter height="1" id="b1cqok44bem9lk2" width="1" x="0" y="0"><feFlood flood-color="#FFFF00" result="flood"/><feComposite in="SourceGraphic" in2="flood" operator="over"/></filter></defs><g><text fill="#000000" font-family="sans-serif" font-size="14" font-weight="bold" lengthAdjust="spacing" textLength="239" x="360.25" y="27.9951">VCMI-1.3.2 connector-v2 step</text><rect fill="#DDDDDD" height="1331.2344" style="stroke:#FFFFFF;stroke-width:0.5;" width="289.5" x="28" y="43.2969"/><text fill="#000000" font-family="sans-serif" font-size="13" font-weight="bold" lengthAdjust="spacing" textLength="20" x="162.75" y="55.3638">T1</text><rect fill="#DDDDDD" height="1331.2344" style="stroke:#FFFFFF;stroke-width:0.5;" width="640" x="319.5" y="43.2969"/><text fill="#000000" font-family="sans-serif" font-size="13" font-weight="bold" lengthAdjust="spacing" textLength="20" x="629.5" y="55.3638">T2</text><rect fill="#FFFFFF" height="266.1953" style="stroke:#181818;stroke-width:1.0;" width="10" x="47" y="120.0234"/><rect fill="#FFFFFF" height="804.3203" style="stroke:#181818;stroke-width:1.0;" width="10" x="47" y="458.4844"/><rect fill="#FFFFFF" height="237.0625" style="stroke:#181818;stroke-width:1.0;" width="10" x="128.5" y="120.0234"/><rect fill="#FFFFFF" height="746.0547" style="stroke:#181818;stroke-width:1.0;" width="10" x="128.5" y="487.6172"/><rect fill="#FFFFFF" height="207.9297" style="stroke:#181818;stroke-width:1.0;" width="10" x="252.5" y="120.0234"/><rect fill="#FF0000" height="150.6641" style="stroke:#181818;stroke-width:1.0;" width="10" x="257.5" y="141.1563"/><rect fill="#FFFFFF" height="687.7891" style="stroke:#181818;stroke-width:1.0;" width="10" x="252.5" y="516.75"/><rect fill="#FF0000" height="456.8594" style="stroke:#181818;stroke-width:1.0;" width="10" x="257.5" y="711.5469"/><rect fill="#FFFFFF" height="588.3906" style="stroke:#181818;stroke-width:1.0;" width="10" x="374.5" y="199.4219"/><rect fill="#FF0000" height="499.9922" style="stroke:#181818;stroke-width:1.0;" width="10" x="379.5" y="251.6875"/><rect fill="#FFFFFF" height="381.4609" style="stroke:#181818;stroke-width:1.0;" width="10" x="374.5" y="933.4766"/><rect fill="#FF0000" height="186.6641" style="stroke:#181818;stroke-width:1.0;" width="10" x="379.5" y="1128.2734"/><rect fill="#FFFFFF" height="646.6563" style="stroke:#181818;stroke-width:1.0;" width="10" x="576.5" y="170.2891"/><rect fill="#FFFFFF" height="410.5938" style="stroke:#181818;stroke-width:1.0;" width="10" x="576.5" y="904.3438"/><rect fill="#FFFFFF" height="704.9219" style="stroke:#181818;stroke-width:1.0;" width="10" x="764.5" y="141.1563"/><rect fill="#FFFFFF" height="439.7266" style="stroke:#181818;stroke-width:1.0;" width="10" x="764.5" y="875.2109"/><line style="stroke:#181818;stroke-width:0.5;stroke-dasharray:5.0,5.0;" x1="52" x2="52" y1="110.0234" y2="1323.9375"/><line style="stroke:#181818;stroke-width:0.5;stroke-dasharray:5.0,5.0;" x1="133" x2="133" y1="110.0234" y2="1323.9375"/><line style="stroke:#181818;stroke-width:0.5;stroke-dasharray:5.0,5.0;" x1="257.5" x2="257.5" y1="110.0234" y2="1323.9375"/><line style="stroke:#181818;stroke-width:0.5;stroke-dasharray:5.0,5.0;" x1="379.5" x2="379.5" y1="110.0234" y2="1323.9375"/><line style="stroke:#181818;stroke-width:0.5;stroke-dasharray:5.0,5.0;" x1="581.5" x2="581.5" y1="110.0234" y2="1323.9375"/><line style="stroke:#181818;stroke-width:0.5;stroke-dasharray:5.0,5.0;" x1="769.5" x2="769.5" y1="110.0234" y2="1323.9375"/><line style="stroke:#181818;stroke-width:0.5;stroke-dasharray:5.0,5.0;" x1="907.5" x2="907.5" y1="110.0234" y2="1323.9375"/><rect fill="#E2E2F0" height="30.2969" rx="2.5" ry="2.5" style="stroke:#181818;stroke-width:0.5;" width="40" x="32" y="78.7266"/><text fill="#000000" font-family="sans-serif" font-size="14" font-style="italic" lengthAdjust="spacing" textLength="26" x="39" y="98.7217">Env</text><rect fill="#E2E2F0" height="30.2969" rx="2.5" ry="2.5" style="stroke:#181818;stroke-width:0.5;" width="40" x="32" y="1322.9375"/><text fill="#000000" font-family="sans-serif" font-size="14" font-style="italic" lengthAdjust="spacing" textLength="26" x="39" y="1342.9326">Env</text><rect fill="#E2E2F0" height="30.2969" rx="2.5" ry="2.5" style="stroke:#181818;stroke-width:0.5;" width="103" x="82" y="78.7266"/><text fill="#000000" font-family="sans-serif" font-size="14" font-style="italic" lengthAdjust="spacing" textLength="89" x="89" y="98.7217">pyconnector</text><rect fill="#E2E2F0" height="30.2969" rx="2.5" ry="2.5" style="stroke:#181818;stroke-width:0.5;" width="103" x="82" y="1322.9375"/><text fill="#000000" font-family="sans-serif" font-size="14" font-style="italic" lengthAdjust="spacing" textLength="89" x="89" y="1342.9326">pyconnector</text><rect fill="#E2E2F0" height="46.5938" rx="2.5" ry="2.5" style="stroke:#181818;stroke-width:0.5;" width="112" x="201.5" y="62.4297"/><text fill="#000000" font-family="sans-serif" font-size="14" font-style="italic" lengthAdjust="spacing" textLength="98" x="208.5" y="82.4248">cppconnector</text><text fill="#808080" font-family="Arial" font-size="14" font-style="italic" lengthAdjust="spacing" textLength="32" x="241.5" y="98.7217">// T1</text><rect fill="#E2E2F0" height="46.5938" rx="2.5" ry="2.5" style="stroke:#181818;stroke-width:0.5;" width="112" x="201.5" y="1322.9375"/><text fill="#000000" font-family="sans-serif" font-size="14" font-style="italic" lengthAdjust="spacing" textLength="98" x="208.5" y="1342.9326">cppconnector</text><text fill="#808080" font-family="Arial" font-size="14" font-style="italic" lengthAdjust="spacing" textLength="32" x="241.5" y="1359.2295">// T1</text><rect fill="#E2E2F0" height="46.5938" rx="2.5" ry="2.5" style="stroke:#181818;stroke-width:0.5;" width="112" x="323.5" y="62.4297"/><text fill="#000000" font-family="sans-serif" font-size="14" font-style="italic" lengthAdjust="spacing" textLength="98" x="330.5" y="82.4248">cppconnector</text><text fill="#808080" font-family="Arial" font-size="14" font-style="italic" lengthAdjust="spacing" textLength="32" x="363.5" y="98.7217">// T2</text><rect fill="#E2E2F0" height="46.5938" rx="2.5" ry="2.5" style="stroke:#181818;stroke-width:0.5;" width="112" x="323.5" y="1322.9375"/><text fill="#000000" font-family="sans-serif" font-size="14" font-style="italic" lengthAdjust="spacing" textLength="98" x="330.5" y="1342.9326">cppconnector</text><text fill="#808080" font-family="Arial" font-size="14" font-style="italic" lengthAdjust="spacing" textLength="32" x="363.5" y="1359.2295">// T2</text><rect fill="#E2E2F0" height="46.5938" rx="2.5" ry="2.5" style="stroke:#181818;stroke-width:0.5;" width="194" x="484.5" y="62.4297"/><text fill="#000000" font-family="sans-serif" font-size="14" lengthAdjust="spacing" textLength="36" x="563.5" y="82.4248">VCMI</text><text fill="#000000" font-family="sans-serif" font-size="14" font-style="italic" lengthAdjust="spacing" textLength="180" x="491.5" y="98.7217">Adventure Interface (AAI)</text><rect fill="#E2E2F0" height="46.5938" rx="2.5" ry="2.5" style="stroke:#181818;stroke-width:0.5;" width="194" x="484.5" y="1322.9375"/><text fill="#000000" font-family="sans-serif" font-size="14" lengthAdjust="spacing" textLength="36" x="563.5" y="1342.9326">VCMI</text><text fill="#000000" font-family="sans-serif" font-size="14" font-style="italic" lengthAdjust="spacing" textLength="180" x="491.5" y="1359.2295">Adventure Interface (AAI)</text><rect fill="#E2E2F0" height="46.5938" rx="2.5" ry="2.5" style="stroke:#181818;stroke-width:0.5;" width="162" x="688.5" y="62.4297"/><text fill="#000000" font-family="sans-serif" font-size="14" lengthAdjust="spacing" textLength="36" x="751.5" y="82.4248">VCMI</text><text fill="#000000" font-family="sans-serif" font-size="14" font-style="italic" lengthAdjust="spacing" textLength="148" x="695.5" y="98.7217">Battle Interface (BAI)</text><rect fill="#E2E2F0" height="46.5938" rx="2.5" ry="2.5" style="stroke:#181818;stroke-width:0.5;" width="162" x="688.5" y="1322.9375"/><text fill="#000000" font-family="sans-serif" font-size="14" lengthAdjust="spacing" textLength="36" x="751.5" y="1342.9326">VCMI</text><text fill="#000000" font-family="sans-serif" font-size="14" font-style="italic" lengthAdjust="spacing" textLength="148" x="695.5" y="1359.2295">Battle Interface (BAI)</text><rect fill="#E2E2F0" height="30.2969" rx="2.5" ry="2.5" style="stroke:#181818;stroke-width:0.5;" width="95" x="860.5" y="78.7266"/><text fill="#000000" font-family="sans-serif" font-size="14" font-style="italic" lengthAdjust="spacing" textLength="81" x="867.5" y="98.7217">VCMI Client</text><rect fill="#E2E2F0" height="30.2969" rx="2.5" ry="2.5" style="stroke:#181818;stroke-width:0.5;" width="95" x="860.5" y="1322.9375"/><text fill="#000000" font-family="sans-serif" font-size="14" font-style="italic" lengthAdjust="spacing" textLength="81" x="867.5" y="1342.9326">VCMI Client</text><rect fill="#FFFFFF" height="266.1953" style="stroke:#181818;stroke-width:1.0;" width="10" x="47" y="120.0234"/><rect fill="#FFFFFF" height="804.3203" style="stroke:#181818;stroke-width:1.0;" width="10" x="47" y="458.4844"/><rect fill="#FFFFFF" height="237.0625" style="stroke:#181818;stroke-width:1.0;" width="10" x="128.5" y="120.0234"/><rect fill="#FFFFFF" height="746.0547" style="stroke:#181818;stroke-width:1.0;" width="10" x="128.5" y="487.6172"/><rect fill="#FFFFFF" height="207.9297" style="stroke:#181818;stroke-width:1.0;" width="10" x="252.5" y="120.0234"/><rect fill="#FF0000" height="150.6641" style="stroke:#181818;stroke-width:1.0;" width="10" x="257.5" y="141.1563"/><rect fill="#FFFFFF" height="687.7891" style="stroke:#181818;stroke-width:1.0;" width="10" x="252.5" y="516.75"/><rect fill="#FF0000" height="456.8594" style="stroke:#181818;stroke-width:1.0;" width="10" x="257.5" y="711.5469"/><rect fill="#FFFFFF" height="588.3906" style="stroke:#181818;stroke-width:1.0;" width="10" x="374.5" y="199.4219"/><rect fill="#FF0000" height="499.9922" style="stroke:#181818;stroke-width:1.0;" width="10" x="379.5" y="251.6875"/><rect fill="#FFFFFF" height="381.4609" style="stroke:#181818;stroke-width:1.0;" width="10" x="374.5" y="933.4766"/><rect fill="#FF0000" height="186.6641" style="stroke:#181818;stroke-width:1.0;" width="10" x="379.5" y="1128.2734"/><rect fill="#FFFFFF" height="646.6563" style="stroke:#181818;stroke-width:1.0;" width="10" x="576.5" y="170.2891"/><rect fill="#FFFFFF" height="410.5938" style="stroke:#181818;stroke-width:1.0;" width="10" x="576.5" y="904.3438"/><rect fill="#FFFFFF" height="704.9219" style="stroke:#181818;stroke-width:1.0;" width="10" x="764.5" y="141.1563"/><rect fill="#FFFFFF" height="439.7266" style="stroke:#181818;stroke-width:1.0;" width="10" x="764.5" y="875.2109"/><polygon fill="#181818" points="785.5,137.1563,775.5,141.1563,785.5,145.1563,781.5,141.1563" style="stroke:#181818;stroke-width:1.0;"/><ellipse cx="907.5" cy="140.4063" fill="none" rx="4" ry="4" style="stroke:#181818;stroke-width:1.5;"/><line style="stroke:#181818;stroke-width:1.0;" x1="779.5" x2="903" y1="141.1563" y2="141.1563"/><text fill="#000000" font-family="sans-serif" font-size="13" lengthAdjust="spacing" textLength="74" x="791.5" y="136.0903">activeStack</text><polygon fill="#181818" points="597.5,166.2891,587.5,170.2891,597.5,174.2891,593.5,170.2891" style="stroke:#181818;stroke-width:1.0;"/><line style="stroke:#181818;stroke-width:1.0;" x1="591.5" x2="763.5" y1="170.2891" y2="170.2891"/><text fill="#000000" font-family="sans-serif" font-size="13" lengthAdjust="spacing" textLength="111" x="603.5" y="165.2231">getAction(Result)</text><polygon fill="#181818" points="395.5,195.4219,385.5,199.4219,395.5,203.4219,391.5,199.4219" style="stroke:#181818;stroke-width:1.0;"/><line style="stroke:#181818;stroke-width:1.0;" x1="389.5" x2="575.5" y1="199.4219" y2="199.4219"/><text fill="#000000" font-family="sans-serif" font-size="13" lengthAdjust="spacing" textLength="173" x="401.5" y="194.356">baggage.GetAction(Result)</text><line style="stroke:#181818;stroke-width:1.0;" x1="384.5" x2="431.5" y1="238.6875" y2="238.6875"/><line style="stroke:#181818;stroke-width:1.0;" x1="431.5" x2="431.5" y1="238.6875" y2="251.6875"/><line style="stroke:#181818;stroke-width:1.0;" x1="390.5" x2="431.5" y1="251.6875" y2="251.6875"/><polygon fill="#181818" points="400.5,247.6875,390.5,251.6875,400.5,255.6875,396.5,251.6875" style="stroke:#181818;stroke-width:1.0;"/><text fill="#000000" filter="url(#b1cqok44bem9lk0)" font-family="sans-serif" font-size="13" lengthAdjust="spacing" textLength="62" x="396.5" y="218.4888">cond.wait</text><text fill="#FFFF00" filter="url(#b1cqok44bem9lk1)" font-family="sans-serif" font-size="13" lengthAdjust="spacing" textLength="76" x="396.5" y="233.6216">release lock</text><line style="stroke:#181818;stroke-width:1.0;" x1="267.5" x2="309.5" y1="290.8203" y2="290.8203"/><line style="stroke:#181818;stroke-width:1.0;" x1="309.5" x2="309.5" y1="290.8203" y2="303.8203"/><line style="stroke:#181818;stroke-width:1.0;" x1="262.5" x2="309.5" y1="303.8203" y2="303.8203"/><polygon fill="#181818" points="272.5,299.8203,262.5,303.8203,272.5,307.8203,268.5,303.8203" style="stroke:#181818;stroke-width:1.0;"/><text fill="#000000" filter="url(#b1cqok44bem9lk2)" font-family="sans-serif" font-size="13" lengthAdjust="spacing" textLength="76" x="274.5" y="285.7544">acquire lock</text><polygon fill="#181818" points="149.5,323.9531,139.5,327.9531,149.5,331.9531,145.5,327.9531" style="stroke:#181818;stroke-width:1.0;"/><line style="stroke:#181818;stroke-width:1.0;stroke-dasharray:2.0,2.0;" x1="143.5" x2="256.5" y1="327.9531" y2="327.9531"/><text fill="#000000" font-family="sans-serif" font-size="13" lengthAdjust="spacing" textLength="90" x="155.5" y="322.8872">&#171;P_InitResult&#187;</text><polygon fill="#181818" points="68,353.0859,58,357.0859,68,361.0859,64,357.0859" style="stroke:#181818;stroke-width:1.0;"/><line style="stroke:#181818;stroke-width:1.0;stroke-dasharray:2.0,2.0;" x1="62" x2="132.5" y1="357.0859" y2="357.0859"/><text fill="#000000" font-family="sans-serif" font-size="13" lengthAdjust="spacing" textLength="39" x="74" y="352.02">&#171;obs&#187;</text><polygon fill="#181818" points="11,382.2188,1,386.2188,11,390.2188,7,386.2188" style="stroke:#181818;stroke-width:1.0;"/><line style="stroke:#181818;stroke-width:1.0;stroke-dasharray:2.0,2.0;" x1="5" x2="51" y1="386.2188" y2="386.2188"/><text fill="#000000" font-family="sans-serif" font-size="13" lengthAdjust="spacing" textLength="23" x="17" y="381.1528">obs</text><rect fill="#EEEEEE" height="3" style="stroke:#EEEEEE;stroke-width:1.0;" width="960.5" x="0" y="414.7852"/><line style="stroke:#000000;stroke-width:1.0;" x1="0" x2="960.5" y1="414.7852" y2="414.7852"/><line style="stroke:#000000;stroke-width:1.0;" x1="0" x2="960.5" y1="417.7852" y2="417.7852"/><rect fill="#EEEEEE" height="23.1328" style="stroke:#000000;stroke-width:2.0;" width="98" x="431.25" y="404.2188"/><text fill="#000000" font-family="sans-serif" font-size="13" font-weight="bold" lengthAdjust="spacing" textLength="79" x="437.25" y="420.2856">step start</text><polygon fill="#181818" points="35,454.4844,45,458.4844,35,462.4844,39,458.4844" style="stroke:#181818;stroke-width:1.0;"/><line style="stroke:#181818;stroke-width:1.0;" x1="0" x2="41" y1="458.4844" y2="458.4844"/><text fill="#000000" font-family="sans-serif" font-size="13" lengthAdjust="spacing" textLength="28" x="7" y="453.4185">step</text><polygon fill="#181818" points="116.5,483.6172,126.5,487.6172,116.5,491.6172,120.5,487.6172" style="stroke:#181818;stroke-width:1.0;"/><line style="stroke:#181818;stroke-width:1.0;" x1="57" x2="122.5" y1="487.6172" y2="487.6172"/><text fill="#000000" font-family="sans-serif" font-size="13" lengthAdjust="spacing" textLength="28" x="64" y="482.5513">step</text><polygon fill="#181818" points="240.5,512.75,250.5,516.75,240.5,520.75,244.5,516.75" style="stroke:#181818;stroke-width:1.0;"/><line style="stroke:#181818;stroke-width:1.0;" x1="138.5" x2="246.5" y1="516.75" y2="516.75"/><text fill="#000000" font-family="sans-serif" font-size="13" lengthAdjust="spacing" textLength="85" x="145.5" y="511.6841">act(P_Action)</text><line style="stroke:#181818;stroke-width:1.0;" x1="262.5" x2="304.5" y1="545.8828" y2="545.8828"/><line style="stroke:#181818;stroke-width:1.0;" x1="304.5" x2="304.5" y1="545.8828" y2="558.8828"/><line style="stroke:#181818;stroke-width:1.0;" x1="263.5" x2="304.5" y1="558.8828" y2="558.8828"/><polygon fill="#181818" points="273.5,554.8828,263.5,558.8828,273.5,562.8828,269.5,558.8828" style="stroke:#181818;stroke-width:1.0;"/><text fill="#000000" filter="url(#b1cqok44bem9lk2)" font-family="sans-serif" font-size="13" lengthAdjust="spacing" textLength="76" x="269.5" y="540.8169">acquire lock</text><polygon fill="#808080" points="273.5,584.0156,263.5,588.0156,273.5,592.0156,269.5,588.0156" style="stroke:#808080;stroke-width:1.0;"/><polygon fill="#808080" points="367.5,584.0156,377.5,588.0156,367.5,592.0156,371.5,588.0156" style="stroke:#808080;stroke-width:1.0;"/><line style="stroke:#808080;stroke-width:1.0;stroke-dasharray:2.0,2.0;" x1="267.5" x2="373.5" y1="588.0156" y2="588.0156"/><text fill="#808080" font-family="sans-serif" font-size="13" lengthAdjust="spacing" textLength="40" x="279.5" y="582.9497">Action</text><polygon fill="#0000FF" points="367.5,613.1484,377.5,617.1484,367.5,621.1484,371.5,617.1484" style="stroke:#0000FF;stroke-width:1.0;"/><line style="stroke:#0000FF;stroke-width:1.0;stroke-dasharray:2.0,2.0;" x1="262.5" x2="373.5" y1="617.1484" y2="617.1484"/><text fill="#0000FF" font-family="sans-serif" font-size="13" lengthAdjust="spacing" textLength="72" x="269.5" y="612.0825">cond.notify</text><line style="stroke:#FF0000;stroke-width:1.0;stroke-dasharray:2.0,2.0;" x1="389.5" x2="431.5" y1="646.2813" y2="646.2813"/><line style="stroke:#FF0000;stroke-width:1.0;stroke-dasharray:2.0,2.0;" x1="431.5" x2="431.5" y1="646.2813" y2="659.2813"/><line style="stroke:#FF0000;stroke-width:1.0;stroke-dasharray:2.0,2.0;" x1="390.5" x2="431.5" y1="659.2813" y2="659.2813"/><polygon fill="#FF0000" points="400.5,655.2813,390.5,659.2813,400.5,663.2813,396.5,659.2813" style="stroke:#FF0000;stroke-width:1.0;"/><text fill="#FF0000" filter="url(#b1cqok44bem9lk2)" font-family="sans-serif" font-size="13" lengthAdjust="spacing" textLength="76" x="396.5" y="641.2153">acquire lock</text><line style="stroke:#181818;stroke-width:1.0;" x1="262.5" x2="309.5" y1="698.5469" y2="698.5469"/><line style="stroke:#181818;stroke-width:1.0;" x1="309.5" x2="309.5" y1="698.5469" y2="711.5469"/><line style="stroke:#181818;stroke-width:1.0;" x1="268.5" x2="309.5" y1="711.5469" y2="711.5469"/><polygon fill="#181818" points="278.5,707.5469,268.5,711.5469,278.5,715.5469,274.5,711.5469" style="stroke:#181818;stroke-width:1.0;"/><text fill="#000000" filter="url(#b1cqok44bem9lk0)" font-family="sans-serif" font-size="13" lengthAdjust="spacing" textLength="62" x="274.5" y="678.3481">cond.wait</text><text fill="#FFFF00" filter="url(#b1cqok44bem9lk1)" font-family="sans-serif" font-size="13" lengthAdjust="spacing" textLength="76" x="274.5" y="693.481">release lock</text><line style="stroke:#181818;stroke-width:1.0;" x1="389.5" x2="431.5" y1="750.6797" y2="750.6797"/><line style="stroke:#181818;stroke-width:1.0;" x1="431.5" x2="431.5" y1="750.6797" y2="763.6797"/><line style="stroke:#181818;stroke-width:1.0;" x1="384.5" x2="431.5" y1="763.6797" y2="763.6797"/><polygon fill="#181818" points="394.5,759.6797,384.5,763.6797,394.5,767.6797,390.5,763.6797" style="stroke:#181818;stroke-width:1.0;"/><text fill="#000000" filter="url(#b1cqok44bem9lk2)" font-family="sans-serif" font-size="13" lengthAdjust="spacing" textLength="76" x="396.5" y="745.6138">acquire lock</text><polygon fill="#181818" points="564.5,783.8125,574.5,787.8125,564.5,791.8125,568.5,787.8125" style="stroke:#181818;stroke-width:1.0;"/><line style="stroke:#181818;stroke-width:1.0;stroke-dasharray:2.0,2.0;" x1="379.5" x2="570.5" y1="787.8125" y2="787.8125"/><text fill="#000000" font-family="sans-serif" font-size="13" lengthAdjust="spacing" textLength="56" x="386.5" y="782.7466">&#171;Action&#187;</text><polygon fill="#181818" points="752.5,812.9453,762.5,816.9453,752.5,820.9453,756.5,816.9453" style="stroke:#181818;stroke-width:1.0;"/><line style="stroke:#181818;stroke-width:1.0;stroke-dasharray:2.0,2.0;" x1="581.5" x2="758.5" y1="816.9453" y2="816.9453"/><text fill="#000000" font-family="sans-serif" font-size="13" lengthAdjust="spacing" textLength="56" x="588.5" y="811.8794">&#171;Action&#187;</text><polygon fill="#181818" points="896,842.0781,906,846.0781,896,850.0781,900,846.0781" style="stroke:#181818;stroke-width:1.0;"/><line style="stroke:#181818;stroke-width:1.0;stroke-dasharray:2.0,2.0;" x1="769.5" x2="902" y1="846.0781" y2="846.0781"/><text fill="#000000" font-family="sans-serif" font-size="13" lengthAdjust="spacing" textLength="98" x="776.5" y="841.0122">makeAction(...)</text><polygon fill="#181818" points="785.5,871.2109,775.5,875.2109,785.5,879.2109,781.5,875.2109" style="stroke:#181818;stroke-width:1.0;"/><ellipse cx="907.5" cy="874.4609" fill="none" rx="4" ry="4" style="stroke:#181818;stroke-width:1.5;"/><line style="stroke:#181818;stroke-width:1.0;" x1="779.5" x2="903" y1="875.2109" y2="875.2109"/><text fill="#000000" font-family="sans-serif" font-size="13" lengthAdjust="spacing" textLength="74" x="791.5" y="870.145">activeStack</text><polygon fill="#181818" points="597.5,900.3438,587.5,904.3438,597.5,908.3438,593.5,904.3438" style="stroke:#181818;stroke-width:1.0;"/><line style="stroke:#181818;stroke-width:1.0;" x1="591.5" x2="763.5" y1="904.3438" y2="904.3438"/><text fill="#000000" font-family="sans-serif" font-size="13" lengthAdjust="spacing" textLength="111" x="603.5" y="899.2778">getAction(Result)</text><polygon fill="#181818" points="395.5,929.4766,385.5,933.4766,395.5,937.4766,391.5,933.4766" style="stroke:#181818;stroke-width:1.0;"/><line style="stroke:#181818;stroke-width:1.0;" x1="389.5" x2="575.5" y1="933.4766" y2="933.4766"/><text fill="#000000" font-family="sans-serif" font-size="13" lengthAdjust="spacing" textLength="173" x="401.5" y="928.4106">baggage.GetAction(Result)</text><line style="stroke:#181818;stroke-width:1.0;" x1="384.5" x2="426.5" y1="962.6094" y2="962.6094"/><line style="stroke:#181818;stroke-width:1.0;" x1="426.5" x2="426.5" y1="962.6094" y2="975.6094"/><line style="stroke:#181818;stroke-width:1.0;" x1="385.5" x2="426.5" y1="975.6094" y2="975.6094"/><polygon fill="#181818" points="395.5,971.6094,385.5,975.6094,395.5,979.6094,391.5,975.6094" style="stroke:#181818;stroke-width:1.0;"/><text fill="#000000" filter="url(#b1cqok44bem9lk2)" font-family="sans-serif" font-size="13" lengthAdjust="spacing" textLength="76" x="391.5" y="957.5435">acquire lock</text><polygon fill="#808080" points="278.5,1000.7422,268.5,1004.7422,278.5,1008.7422,274.5,1004.7422" style="stroke:#808080;stroke-width:1.0;"/><polygon fill="#808080" points="362.5,1000.7422,372.5,1004.7422,362.5,1008.7422,366.5,1004.7422" style="stroke:#808080;stroke-width:1.0;"/><line style="stroke:#808080;stroke-width:1.0;stroke-dasharray:2.0,2.0;" x1="272.5" x2="368.5" y1="1004.7422" y2="1004.7422"/><text fill="#808080" font-family="sans-serif" font-size="13" lengthAdjust="spacing" textLength="55" x="284.5" y="999.6763">P_Result</text><polygon fill="#0000FF" points="278.5,1029.875,268.5,1033.875,278.5,1037.875,274.5,1033.875" style="stroke:#0000FF;stroke-width:1.0;"/><line style="stroke:#0000FF;stroke-width:1.0;stroke-dasharray:2.0,2.0;" x1="272.5" x2="373.5" y1="1033.875" y2="1033.875"/><text fill="#0000FF" font-family="sans-serif" font-size="13" lengthAdjust="spacing" textLength="72" x="284.5" y="1028.8091">cond.notify</text><line style="stroke:#FF0000;stroke-width:1.0;stroke-dasharray:2.0,2.0;" x1="267.5" x2="309.5" y1="1063.0078" y2="1063.0078"/><line style="stroke:#FF0000;stroke-width:1.0;stroke-dasharray:2.0,2.0;" x1="309.5" x2="309.5" y1="1063.0078" y2="1076.0078"/><line style="stroke:#FF0000;stroke-width:1.0;stroke-dasharray:2.0,2.0;" x1="268.5" x2="309.5" y1="1076.0078" y2="1076.0078"/><polygon fill="#FF0000" points="278.5,1072.0078,268.5,1076.0078,278.5,1080.0078,274.5,1076.0078" style="stroke:#FF0000;stroke-width:1.0;"/><text fill="#FF0000" filter="url(#b1cqok44bem9lk2)" font-family="sans-serif" font-size="13" lengthAdjust="spacing" textLength="76" x="274.5" y="1057.9419">acquire lock</text><line style="stroke:#181818;stroke-width:1.0;" x1="384.5" x2="431.5" y1="1115.2734" y2="1115.2734"/><line style="stroke:#181818;stroke-width:1.0;" x1="431.5" x2="431.5" y1="1115.2734" y2="1128.2734"/><line style="stroke:#181818;stroke-width:1.0;" x1="390.5" x2="431.5" y1="1128.2734" y2="1128.2734"/><polygon fill="#181818" points="400.5,1124.2734,390.5,1128.2734,400.5,1132.2734,396.5,1128.2734" style="stroke:#181818;stroke-width:1.0;"/><text fill="#000000" filter="url(#b1cqok44bem9lk0)" font-family="sans-serif" font-size="13" lengthAdjust="spacing" textLength="62" x="396.5" y="1095.0747">cond.wait</text><text fill="#FFFF00" filter="url(#b1cqok44bem9lk1)" font-family="sans-serif" font-size="13" lengthAdjust="spacing" textLength="76" x="396.5" y="1110.2075">release lock</text><line style="stroke:#181818;stroke-width:1.0;" x1="267.5" x2="309.5" y1="1167.4063" y2="1167.4063"/><line style="stroke:#181818;stroke-width:1.0;" x1="309.5" x2="309.5" y1="1167.4063" y2="1180.4063"/><line style="stroke:#181818;stroke-width:1.0;" x1="262.5" x2="309.5" y1="1180.4063" y2="1180.4063"/><polygon fill="#181818" points="272.5,1176.4063,262.5,1180.4063,272.5,1184.4063,268.5,1180.4063" style="stroke:#181818;stroke-width:1.0;"/><text fill="#000000" filter="url(#b1cqok44bem9lk2)" font-family="sans-serif" font-size="13" lengthAdjust="spacing" textLength="76" x="274.5" y="1162.3403">acquire lock</text><polygon fill="#181818" points="149.5,1200.5391,139.5,1204.5391,149.5,1208.5391,145.5,1204.5391" style="stroke:#181818;stroke-width:1.0;"/><line style="stroke:#181818;stroke-width:1.0;stroke-dasharray:2.0,2.0;" x1="143.5" x2="256.5" y1="1204.5391" y2="1204.5391"/><text fill="#000000" font-family="sans-serif" font-size="13" lengthAdjust="spacing" textLength="67" x="155.5" y="1199.4731">&#171;P_result&#187;</text><polygon fill="#181818" points="68,1229.6719,58,1233.6719,68,1237.6719,64,1233.6719" style="stroke:#181818;stroke-width:1.0;"/><line style="stroke:#181818;stroke-width:1.0;stroke-dasharray:2.0,2.0;" x1="62" x2="132.5" y1="1233.6719" y2="1233.6719"/><text fill="#000000" font-family="sans-serif" font-size="13" lengthAdjust="spacing" textLength="39" x="74" y="1228.606">&#171;obs&#187;</text><polygon fill="#181818" points="11,1258.8047,1,1262.8047,11,1266.8047,7,1262.8047" style="stroke:#181818;stroke-width:1.0;"/><line style="stroke:#181818;stroke-width:1.0;stroke-dasharray:2.0,2.0;" x1="5" x2="51" y1="1262.8047" y2="1262.8047"/><text fill="#000000" font-family="sans-serif" font-size="13" lengthAdjust="spacing" textLength="23" x="17" y="1257.7388">obs</text><rect fill="#EEEEEE" height="3" style="stroke:#EEEEEE;stroke-width:1.0;" width="960.5" x="0" y="1291.3711"/><line style="stroke:#000000;stroke-width:1.0;" x1="0" x2="960.5" y1="1291.3711" y2="1291.3711"/><line style="stroke:#000000;stroke-width:1.0;" x1="0" x2="960.5" y1="1294.3711" y2="1294.3711"/><rect fill="#EEEEEE" height="23.1328" style="stroke:#000000;stroke-width:2.0;" width="85" x="437.75" y="1280.8047"/><text fill="#000000" font-family="sans-serif" font-size="13" font-weight="bold" lengthAdjust="spacing" textLength="66" x="443.75" y="1296.8716">step end</text><!--SRC=[hLRVR-8u47xFNp5DMIqHXHJshO98jBgk-d2hwcxtNjeLSX83LeETjGsK__x6F_ABbhQhknT8nj_CzysCFOvckg0G_dFpvzrmFFeoca0cEAUP5dAucu3Ij0o3G3qnNX99Dg3ehotb6RqMpzT2vbJUY498EB-zlGs2invFLGap2AS_1fUNyyi4VJ_3NiWd8iMMvw3N59Oaq_X0y8S-Qo05M_4DvHeoma7muW0fHIz5DQmAaPAYE8pWXs9y1MjLaepsUGIIwgta2hx1Hd1XpJawEG7PcaWLd2stFDDCSEXvlrv1-Kglem3Wh2UfCaf3-yBmqQ-Qz_sQOLNGci0blZTm-pTmD7x1kZ8OmjXuKfvRP_FiD68nbeBhgqPd4WvCd44uZSqA5icuLMg3jl2SggpVqyywUXbmBXafacbc6d3rLP93CcL970D6HmSJdINJs2udxpCL8djQaEpNOabOiJ2TwNSvKv8zNHreKOXzHIen5tJPCad1-3Ti1loIhPG2qzyYkalNxt6HKqDd7s2O-8Uhaxfm3x4TqTG3pr6APQifJj3bg3NJRn1sykmcPvFw44k1odYRvIH_JhkPl1KUJsQ-s1FsldpJ68CU6RGN_iXzrweUMcHQc3L92qfK9y-gbxzVQokJ2ysMXtxl6thCBy3-Nrl5rWB3uSDvMcpfpyIl6UrEdp4xzIv8Iuc76cSKqVPzVP-StdzMfDepdQrV4_bE3grEsCLkZwlkU_p98oTfMTYnXCSLmojAPBQ-SFPgHbb4NWygDvW-AIrBeRgE4IIpUbhXAhCainFWUghL1Ctp07ssARfvdqjqgm96PlePf0-00ClHnZVi0ykESxLVyKOdXcIRtKHvetKAfplT4UbEmVZ2RSl91LHpqjbXQhR92kVYJtyy9iqUC-Qasu3maOSNORNPwjDYaM5KRyAFwAfqr9QiB54d_jOgks4-0za9bYjGsv9AF8Pur-7kmmF9E5uuZDkBCsS4rMpQMwWgUlHAANqtR5xmYTEz2TQFZhbJyGpVnm5Uxvfbh2Hu4OTn_0VVnN48H07bk-F5yb1_97XGUJZ6OB8jq2DtLzdtSMJnfY01oW1azn8c7ummgICSUPXlc4SUn_DyXyVFjEIEQohnSuD2Vpw_YxnMGjZhZjT4cu-XbjTruvKUUyMnyOERWY6R1-so3SkieKckdfusv_eDArO_cn87ZIy87EZ81uC1xbYBedzh7ChTM6uG6np2IGLVKJstdUt_HTMsm9r17C8Kp45IibgH5HrzVG5j3JO3HyFnK3F4KM3fXnYqFE2VELRJ-yKTPze5IfB0BYGcimeWKeNs1poLZHLjGJ2RsSzC_C7omcmM10_UqwerQu7ri7IDpL0ahX9LeVht2vTHMxc_SftovapMmFPLq1nKc-J49c4Bw99mJfY7ixas7Q-bVgtLKGlPa2Vg2puQZQAFjVp_xUyhHPcqYtA_w6w5fYmJMvPJlPV_eU_cfCnc_m80]--></g></svg>