<?xml version="1.0" encoding="us-ascii" standalone="no"?><svg xmlns="http://www.w3.org/2000/svg" xmlns:xlink="http://www.w3.org/1999/xlink" contentStyleType="text/css" height="1505px" preserveAspectRatio="none" style="width:1319px;height:1505px;background:#FFFFFF;" version="1.1" viewBox="0 0 1319 1505" width="1319px" zoomAndPan="magnify"><defs><filter height="1" id="b1ow2admd1qkfr0" width="1" x="0" y="0"><feFlood flood-color="#FFFF00" result="flood"/><feComposite in="SourceGraphic" in2="flood" operator="over"/></filter><filter height="1" id="b1ow2admd1qkfr1" width="1" x="0" y="0"><feFlood flood-color="#FF0000" result="flood"/><feComposite in="SourceGraphic" in2="flood" operator="over"/></filter><filter height="1" id="b1ow2admd1qkfr2" width="1" x="0" y="0"><feFlood flood-color="#000000" result="flood"/><feComposite in="SourceGraphic" in2="flood" operator="over"/></filter></defs><g><text fill="#000000" font-family="sans-serif" font-size="14" font-weight="bold" lengthAdjust="spacing" textLength="231" x="540" y="27.9951">VCMI-1.3.2 connector-v2 init</text><rect fill="#DDDDDD" height="1456.1563" style="stroke:#FFFFFF;stroke-width:0.5;" width="436.5" x="43" y="43.2969"/><text fill="#000000" font-family="sans-serif" font-size="13" font-weight="bold" lengthAdjust="spacing" textLength="20" x="251.25" y="55.3638">T1</text><rect fill="#DDDDDD" height="1456.1563" style="stroke:#FFFFFF;stroke-width:0.5;" width="671" x="481.5" y="43.2969"/><text fill="#000000" font-family="sans-serif" font-size="13" font-weight="bold" lengthAdjust="spacing" textLength="20" x="807" y="55.3638">T2</text><rect fill="#DDDDDD" height="1456.1563" style="stroke:#FFFFFF;stroke-width:0.5;" width="58" x="1197" y="43.2969"/><text fill="#000000" font-family="sans-serif" font-size="13" font-weight="bold" lengthAdjust="spacing" textLength="19" x="1216.5" y="55.3638">T3</text><rect fill="#FFFFFF" height="1203.4375" style="stroke:#181818;stroke-width:1.0;" width="10" x="62" y="184.2891"/><rect fill="#FFFFFF" height="1145.1719" style="stroke:#181818;stroke-width:1.0;" width="10" x="143.5" y="213.4219"/><rect fill="#FFFFFF" height="1197.3047" style="stroke:#181818;stroke-width:1.0;" width="10" x="340.5" y="242.5547"/><rect fill="#FF0000" height="798.7109" style="stroke:#181818;stroke-width:1.0;" width="10" x="345.5" y="466.4844"/><rect fill="#FFFFFF" height="71.2656" style="stroke:#181818;stroke-width:1.0;" width="10" x="445.5" y="313.8203"/><rect fill="#FFFFFF" height="409.5938" style="stroke:#181818;stroke-width:1.0;" width="10" x="536.5" y="1030.2656"/><rect fill="#FF0000" height="214.7969" style="stroke:#181818;stroke-width:1.0;" width="10" x="541.5" y="1225.0625"/><rect fill="#FFFFFF" height="14" style="stroke:#181818;stroke-width:1.0;" width="10" x="738.5" y="760.0078"/><rect fill="#FFFFFF" height="139.7266" style="stroke:#181818;stroke-width:1.0;" width="10" x="738.5" y="803.1406"/><rect fill="#FFFFFF" height="438.7266" style="stroke:#181818;stroke-width:1.0;" width="10" x="738.5" y="1001.1328"/><rect fill="#FFFFFF" height="14" style="stroke:#181818;stroke-width:1.0;" width="10" x="957.5" y="914.8672"/><rect fill="#FFFFFF" height="467.8594" style="stroke:#181818;stroke-width:1.0;" width="10" x="957.5" y="972"/><rect fill="#FFFFFF" height="30" style="stroke:#181818;stroke-width:1.0;" width="10" x="1096" y="500.6172"/><rect fill="#FFFFFF" height="201.7969" style="stroke:#181818;stroke-width:1.0;" width="10" x="1221" y="414.2188"/><line style="stroke:#181818;stroke-width:0.5;stroke-dasharray:5.0,5.0;" x1="67" x2="67" y1="110.0234" y2="1448.8594"/><line style="stroke:#181818;stroke-width:0.5;stroke-dasharray:5.0,5.0;" x1="148" x2="148" y1="110.0234" y2="1448.8594"/><line style="stroke:#181818;stroke-width:0.5;stroke-dasharray:5.0,5.0;" x1="345.5" x2="345.5" y1="110.0234" y2="1448.8594"/><line style="stroke:#181818;stroke-width:0.5;stroke-dasharray:5.0,5.0;" x1="450.5" x2="450.5" y1="110.0234" y2="1448.8594"/><line style="stroke:#181818;stroke-width:0.5;stroke-dasharray:5.0,5.0;" x1="541.5" x2="541.5" y1="110.0234" y2="1448.8594"/><line style="stroke:#181818;stroke-width:0.5;stroke-dasharray:5.0,5.0;" x1="743.5" x2="743.5" y1="720.0781" y2="1448.8594"/><line style="stroke:#181818;stroke-width:0.5;stroke-dasharray:5.0,5.0;" x1="962.5" x2="962.5" y1="874.9375" y2="1448.8594"/><line style="stroke:#181818;stroke-width:0.5;stroke-dasharray:5.0,5.0;" x1="1100.5" x2="1100.5" y1="110.0234" y2="1448.8594"/><line style="stroke:#181818;stroke-width:0.5;stroke-dasharray:5.0,5.0;" x1="1226" x2="1226" y1="110.0234" y2="1448.8594"/><rect fill="#E2E2F0" height="30.2969" rx="2.5" ry="2.5" style="stroke:#181818;stroke-width:0.5;" width="40" x="47" y="78.7266"/><text fill="#000000" font-family="sans-serif" font-size="14" font-style="italic" lengthAdjust="spacing" textLength="26" x="54" y="98.7217">Env</text><rect fill="#E2E2F0" height="30.2969" rx="2.5" ry="2.5" style="stroke:#181818;stroke-width:0.5;" width="40" x="47" y="1447.8594"/><text fill="#000000" font-family="sans-serif" font-size="14" font-style="italic" lengthAdjust="spacing" textLength="26" x="54" y="1467.8545">Env</text><rect fill="#E2E2F0" height="30.2969" rx="2.5" ry="2.5" style="stroke:#181818;stroke-width:0.5;" width="103" x="97" y="78.7266"/><text fill="#000000" font-family="sans-serif" font-size="14" font-style="italic" lengthAdjust="spacing" textLength="89" x="104" y="98.7217">pyconnector</text><rect fill="#E2E2F0" height="30.2969" rx="2.5" ry="2.5" style="stroke:#181818;stroke-width:0.5;" width="103" x="97" y="1447.8594"/><text fill="#000000" font-family="sans-serif" font-size="14" font-style="italic" lengthAdjust="spacing" textLength="89" x="104" y="1467.8545">pyconnector</text><rect fill="#E2E2F0" height="46.5938" rx="2.5" ry="2.5" style="stroke:#181818;stroke-width:0.5;" width="112" x="289.5" y="62.4297"/><text fill="#000000" font-family="sans-serif" font-size="14" font-style="italic" lengthAdjust="spacing" textLength="98" x="296.5" y="82.4248">cppconnector</text><text fill="#808080" font-family="Arial" font-size="14" font-style="italic" lengthAdjust="spacing" textLength="32" x="329.5" y="98.7217">// T1</text><rect fill="#E2E2F0" height="46.5938" rx="2.5" ry="2.5" style="stroke:#181818;stroke-width:0.5;" width="112" x="289.5" y="1447.8594"/><text fill="#000000" font-family="sans-serif" font-size="14" font-style="italic" lengthAdjust="spacing" textLength="98" x="296.5" y="1467.8545">cppconnector</text><text fill="#808080" font-family="Arial" font-size="14" font-style="italic" lengthAdjust="spacing" textLength="32" x="329.5" y="1484.1514">// T1</text><rect fill="#E2E2F0" height="46.5938" rx="2.5" ry="2.5" style="stroke:#181818;stroke-width:0.5;" width="50" x="425.5" y="62.4297"/><text fill="#000000" font-family="sans-serif" font-size="14" font-style="italic" lengthAdjust="spacing" textLength="36" x="432.5" y="82.4248">VCMI</text><text fill="#808080" font-family="Arial" font-size="14" font-style="italic" lengthAdjust="spacing" textLength="32" x="434.5" y="98.7217">// T1</text><rect fill="#E2E2F0" height="46.5938" rx="2.5" ry="2.5" style="stroke:#181818;stroke-width:0.5;" width="50" x="425.5" y="1447.8594"/><text fill="#000000" font-family="sans-serif" font-size="14" font-style="italic" lengthAdjust="spacing" textLength="36" x="432.5" y="1467.8545">VCMI</text><text fill="#808080" font-family="Arial" font-size="14" font-style="italic" lengthAdjust="spacing" textLength="32" x="434.5" y="1484.1514">// T1</text><rect fill="#E2E2F0" height="46.5938" rx="2.5" ry="2.5" style="stroke:#181818;stroke-width:0.5;" width="112" x="485.5" y="62.4297"/><text fill="#000000" font-family="sans-serif" font-size="14" font-style="italic" lengthAdjust="spacing" textLength="98" x="492.5" y="82.4248">cppconnector</text><text fill="#808080" font-family="Arial" font-size="14" font-style="italic" lengthAdjust="spacing" textLength="32" x="525.5" y="98.7217">// T2</text><rect fill="#E2E2F0" height="46.5938" rx="2.5" ry="2.5" style="stroke:#181818;stroke-width:0.5;" width="112" x="485.5" y="1447.8594"/><text fill="#000000" font-family="sans-serif" font-size="14" font-style="italic" lengthAdjust="spacing" textLength="98" x="492.5" y="1467.8545">cppconnector</text><text fill="#808080" font-family="Arial" font-size="14" font-style="italic" lengthAdjust="spacing" textLength="32" x="525.5" y="1484.1514">// T2</text><rect fill="#E2E2F0" height="46.5938" rx="2.5" ry="2.5" style="stroke:#181818;stroke-width:0.5;" width="194" x="646.5" y="1447.8594"/><text fill="#000000" font-family="sans-serif" font-size="14" lengthAdjust="spacing" textLength="36" x="725.5" y="1467.8545">VCMI</text><text fill="#000000" font-family="sans-serif" font-size="14" font-style="italic" lengthAdjust="spacing" textLength="180" x="653.5" y="1484.1514">Adventure Interface (AAI)</text><rect fill="#E2E2F0" height="46.5938" rx="2.5" ry="2.5" style="stroke:#181818;stroke-width:0.5;" width="162" x="881.5" y="1447.8594"/><text fill="#000000" font-family="sans-serif" font-size="14" lengthAdjust="spacing" textLength="36" x="944.5" y="1467.8545">VCMI</text><text fill="#000000" font-family="sans-serif" font-size="14" font-style="italic" lengthAdjust="spacing" textLength="148" x="888.5" y="1484.1514">Battle Interface (BAI)</text><rect fill="#E2E2F0" height="30.2969" rx="2.5" ry="2.5" style="stroke:#181818;stroke-width:0.5;" width="95" x="1053.5" y="78.7266"/><text fill="#000000" font-family="sans-serif" font-size="14" font-style="italic" lengthAdjust="spacing" textLength="81" x="1060.5" y="98.7217">VCMI Client</text><rect fill="#E2E2F0" height="30.2969" rx="2.5" ry="2.5" style="stroke:#181818;stroke-width:0.5;" width="95" x="1053.5" y="1447.8594"/><text fill="#000000" font-family="sans-serif" font-size="14" font-style="italic" lengthAdjust="spacing" textLength="81" x="1060.5" y="1467.8545">VCMI Client</text><rect fill="#E2E2F0" height="46.5938" rx="2.5" ry="2.5" style="stroke:#181818;stroke-width:0.5;" width="50" x="1201" y="62.4297"/><text fill="#000000" font-family="sans-serif" font-size="14" font-style="italic" lengthAdjust="spacing" textLength="36" x="1208" y="82.4248">VCMI</text><text fill="#808080" font-family="Arial" font-size="14" font-style="italic" lengthAdjust="spacing" textLength="32" x="1210" y="98.7217">// T3</text><rect fill="#E2E2F0" height="46.5938" rx="2.5" ry="2.5" style="stroke:#181818;stroke-width:0.5;" width="50" x="1201" y="1447.8594"/><text fill="#000000" font-family="sans-serif" font-size="14" font-style="italic" lengthAdjust="spacing" textLength="36" x="1208" y="1467.8545">VCMI</text><text fill="#808080" font-family="Arial" font-size="14" font-style="italic" lengthAdjust="spacing" textLength="32" x="1210" y="1484.1514">// T3</text><rect fill="#FFFFFF" height="1203.4375" style="stroke:#181818;stroke-width:1.0;" width="10" x="62" y="184.2891"/><rect fill="#FFFFFF" height="1145.1719" style="stroke:#181818;stroke-width:1.0;" width="10" x="143.5" y="213.4219"/><rect fill="#FFFFFF" height="1197.3047" style="stroke:#181818;stroke-width:1.0;" width="10" x="340.5" y="242.5547"/><rect fill="#FF0000" height="798.7109" style="stroke:#181818;stroke-width:1.0;" width="10" x="345.5" y="466.4844"/><rect fill="#FFFFFF" height="71.2656" style="stroke:#181818;stroke-width:1.0;" width="10" x="445.5" y="313.8203"/><rect fill="#FFFFFF" height="409.5938" style="stroke:#181818;stroke-width:1.0;" width="10" x="536.5" y="1030.2656"/><rect fill="#FF0000" height="214.7969" style="stroke:#181818;stroke-width:1.0;" width="10" x="541.5" y="1225.0625"/><rect fill="#FFFFFF" height="14" style="stroke:#181818;stroke-width:1.0;" width="10" x="738.5" y="760.0078"/><rect fill="#FFFFFF" height="139.7266" style="stroke:#181818;stroke-width:1.0;" width="10" x="738.5" y="803.1406"/><rect fill="#FFFFFF" height="438.7266" style="stroke:#181818;stroke-width:1.0;" width="10" x="738.5" y="1001.1328"/><rect fill="#FFFFFF" height="14" style="stroke:#181818;stroke-width:1.0;" width="10" x="957.5" y="914.8672"/><rect fill="#FFFFFF" height="467.8594" style="stroke:#181818;stroke-width:1.0;" width="10" x="957.5" y="972"/><rect fill="#FFFFFF" height="30" style="stroke:#181818;stroke-width:1.0;" width="10" x="1096" y="500.6172"/><rect fill="#FFFFFF" height="201.7969" style="stroke:#181818;stroke-width:1.0;" width="10" x="1221" y="414.2188"/><rect fill="#EEEEEE" height="3" style="stroke:#EEEEEE;stroke-width:1.0;" width="1312" x="0" y="140.5898"/><line style="stroke:#000000;stroke-width:1.0;" x1="0" x2="1312" y1="140.5898" y2="140.5898"/><line style="stroke:#000000;stroke-width:1.0;" x1="0" x2="1312" y1="143.5898" y2="143.5898"/><rect fill="#EEEEEE" height="23.1328" style="stroke:#000000;stroke-width:2.0;" width="89" x="611.5" y="130.0234"/><text fill="#000000" font-family="sans-serif" font-size="13" font-weight="bold" lengthAdjust="spacing" textLength="70" x="617.5" y="146.0903">init start</text><polygon fill="#181818" points="50,180.2891,60,184.2891,50,188.2891,54,184.2891" style="stroke:#181818;stroke-width:1.0;"/><line style="stroke:#181818;stroke-width:1.0;" x1="0" x2="56" y1="184.2891" y2="184.2891"/><text fill="#000000" font-family="sans-serif" font-size="13" lengthAdjust="spacing" textLength="43" x="7" y="179.2231">&#171;new&#187;</text><polygon fill="#181818" points="131.5,209.4219,141.5,213.4219,131.5,217.4219,135.5,213.4219" style="stroke:#181818;stroke-width:1.0;"/><line style="stroke:#181818;stroke-width:1.0;" x1="72" x2="137.5" y1="213.4219" y2="213.4219"/><text fill="#000000" font-family="sans-serif" font-size="13" lengthAdjust="spacing" textLength="30" x="79" y="208.356">start</text><polygon fill="#181818" points="328.5,238.5547,338.5,242.5547,328.5,246.5547,332.5,242.5547" style="stroke:#181818;stroke-width:1.0;"/><line style="stroke:#181818;stroke-width:1.0;" x1="153.5" x2="334.5" y1="242.5547" y2="242.5547"/><text fill="#000000" font-family="sans-serif" font-size="13" lengthAdjust="spacing" textLength="30" x="160.5" y="237.4888">start</text><line style="stroke:#181818;stroke-width:1.0;" x1="350.5" x2="392.5" y1="271.6875" y2="271.6875"/><line style="stroke:#181818;stroke-width:1.0;" x1="392.5" x2="392.5" y1="271.6875" y2="284.6875"/><line style="stroke:#181818;stroke-width:1.0;" x1="351.5" x2="392.5" y1="284.6875" y2="284.6875"/><polygon fill="#181818" points="361.5,280.6875,351.5,284.6875,361.5,288.6875,357.5,284.6875" style="stroke:#181818;stroke-width:1.0;"/><text fill="#000000" filter="url(#b1ow2admd1qkfr0)" font-family="sans-serif" font-size="13" lengthAdjust="spacing" textLength="76" x="357.5" y="266.6216">acquire lock</text><polygon fill="#181818" points="433.5,309.8203,443.5,313.8203,433.5,317.8203,437.5,313.8203" style="stroke:#181818;stroke-width:1.0;"/><line style="stroke:#181818;stroke-width:1.0;" x1="350.5" x2="439.5" y1="313.8203" y2="313.8203"/><text fill="#000000" font-family="sans-serif" font-size="13" lengthAdjust="spacing" textLength="19" x="357.5" y="308.7544">init</text><line style="stroke:#181818;stroke-width:1.0;" x1="455.5" x2="497.5" y1="342.9531" y2="342.9531"/><line style="stroke:#181818;stroke-width:1.0;" x1="497.5" x2="497.5" y1="342.9531" y2="355.9531"/><line style="stroke:#181818;stroke-width:1.0;" x1="456.5" x2="497.5" y1="355.9531" y2="355.9531"/><polygon fill="#181818" points="466.5,351.9531,456.5,355.9531,466.5,359.9531,462.5,355.9531" style="stroke:#181818;stroke-width:1.0;"/><text fill="#000000" font-family="sans-serif" font-size="13" lengthAdjust="spacing" textLength="48" x="462.5" y="337.8872">SDL init</text><polygon fill="#181818" points="361.5,381.0859,351.5,385.0859,361.5,389.0859,357.5,385.0859" style="stroke:#181818;stroke-width:1.0;"/><line style="stroke:#181818;stroke-width:1.0;stroke-dasharray:2.0,2.0;" x1="355.5" x2="449.5" y1="385.0859" y2="385.0859"/><text fill="#000000" font-family="sans-serif" font-size="13" lengthAdjust="spacing" textLength="37" x="367.5" y="380.02">F_Sys</text><polygon fill="#181818" points="1209,410.2188,1219,414.2188,1209,418.2188,1213,414.2188" style="stroke:#181818;stroke-width:1.0;"/><line style="stroke:#181818;stroke-width:1.0;stroke-dasharray:2.0,2.0;" x1="350.5" x2="1215" y1="414.2188" y2="414.2188"/><text fill="#000000" font-family="sans-serif" font-size="13" lengthAdjust="spacing" textLength="96" x="357.5" y="409.1528">start(baggage)</text><line style="stroke:#181818;stroke-width:1.0;" x1="350.5" x2="397.5" y1="453.4844" y2="453.4844"/><line style="stroke:#181818;stroke-width:1.0;" x1="397.5" x2="397.5" y1="453.4844" y2="466.4844"/><line style="stroke:#181818;stroke-width:1.0;" x1="356.5" x2="397.5" y1="466.4844" y2="466.4844"/><polygon fill="#181818" points="366.5,462.4844,356.5,466.4844,366.5,470.4844,362.5,466.4844" style="stroke:#181818;stroke-width:1.0;"/><text fill="#000000" filter="url(#b1ow2admd1qkfr1)" font-family="sans-serif" font-size="13" lengthAdjust="spacing" textLength="62" x="362.5" y="433.2856">cond.wait</text><text fill="#FFFF00" filter="url(#b1ow2admd1qkfr2)" font-family="sans-serif" font-size="13" lengthAdjust="spacing" textLength="76" x="362.5" y="448.4185">release lock</text><polygon fill="#181818" points="1117,496.6172,1107,500.6172,1117,504.6172,1113,500.6172" style="stroke:#181818;stroke-width:1.0;"/><line style="stroke:#181818;stroke-width:1.0;" x1="1111" x2="1220" y1="500.6172" y2="500.6172"/><text fill="#000000" font-family="sans-serif" font-size="13" lengthAdjust="spacing" textLength="96" x="1123" y="495.5513">start(baggage)</text><path d="M1020,543.6172 L1020,583.6172 L1182,583.6172 L1182,553.6172 L1172,543.6172 L1020,543.6172 " fill="#FEFFDD" style="stroke:#181818;stroke-width:0.5;"/><path d="M1172,543.6172 L1172,553.6172 L1182,553.6172 L1172,543.6172 " fill="#FEFFDD" style="stroke:#181818;stroke-width:0.5;"/><text fill="#000000" font-family="sans-serif" font-size="13" lengthAdjust="spacing" textLength="109" x="1026" y="560.6841">unknown activity</text><text fill="#000000" font-family="sans-serif" font-size="13" lengthAdjust="spacing" textLength="141" x="1026" y="575.8169">deactivated for clarity</text><line style="stroke:#181818;stroke-width:1.0;" x1="1231" x2="1273" y1="615.0156" y2="615.0156"/><line style="stroke:#181818;stroke-width:1.0;" x1="1273" x2="1273" y1="615.0156" y2="628.0156"/><line style="stroke:#181818;stroke-width:1.0;" x1="1226" x2="1273" y1="628.0156" y2="628.0156"/><polygon fill="#181818" points="1236,624.0156,1226,628.0156,1236,632.0156,1232,628.0156" style="stroke:#181818;stroke-width:1.0;"/><text fill="#000000" font-family="sans-serif" font-size="13" lengthAdjust="spacing" textLength="27" x="1238" y="609.9497">loop</text><path d="M1145,636.0156 L1145,676.0156 L1307,676.0156 L1307,646.0156 L1297,636.0156 L1145,636.0156 " fill="#FEFFDD" style="stroke:#181818;stroke-width:0.5;"/><path d="M1297,636.0156 L1297,646.0156 L1307,646.0156 L1297,636.0156 " fill="#FEFFDD" style="stroke:#181818;stroke-width:0.5;"/><text fill="#000000" font-family="sans-serif" font-size="13" lengthAdjust="spacing" textLength="90" x="1151" y="653.0825">active forever</text><text fill="#000000" font-family="sans-serif" font-size="13" lengthAdjust="spacing" textLength="141" x="1151" y="668.2153">deactivated for clarity</text><polygon fill="#181818" points="851.5,698.4141,841.5,702.4141,851.5,706.4141,847.5,702.4141" style="stroke:#181818;stroke-width:1.0;"/><ellipse cx="1100.5" cy="701.6641" fill="none" rx="4" ry="4" style="stroke:#181818;stroke-width:1.5;"/><line style="stroke:#181818;stroke-width:1.0;" x1="845.5" x2="1096" y1="702.4141" y2="702.4141"/><text fill="#000000" font-family="sans-serif" font-size="13" lengthAdjust="spacing" textLength="109" x="857.5" y="697.3481">&#171;new&#187;(baggage)</text><rect fill="#E2E2F0" height="46.5938" rx="2.5" ry="2.5" style="stroke:#181818;stroke-width:0.5;" width="194" x="646.5" y="681.2813"/><text fill="#000000" font-family="sans-serif" font-size="14" lengthAdjust="spacing" textLength="36" x="725.5" y="701.2764">VCMI</text><text fill="#000000" font-family="sans-serif" font-size="14" font-style="italic" lengthAdjust="spacing" textLength="180" x="653.5" y="717.5732">Adventure Interface (AAI)</text><polygon fill="#181818" points="759.5,756.0078,749.5,760.0078,759.5,764.0078,755.5,760.0078" style="stroke:#181818;stroke-width:1.0;"/><ellipse cx="1100.5" cy="759.2578" fill="none" rx="4" ry="4" style="stroke:#181818;stroke-width:1.5;"/><line style="stroke:#181818;stroke-width:1.0;" x1="753.5" x2="1096" y1="760.0078" y2="760.0078"/><text fill="#000000" font-family="sans-serif" font-size="13" lengthAdjust="spacing" textLength="115" x="765.5" y="754.9419">initGameInterface</text><polygon fill="#181818" points="1089,770.0078,1099,774.0078,1089,778.0078,1093,774.0078" style="stroke:#181818;stroke-width:1.0;"/><line style="stroke:#181818;stroke-width:1.0;stroke-dasharray:2.0,2.0;" x1="743.5" x2="1095" y1="774.0078" y2="774.0078"/><polygon fill="#181818" points="759.5,799.1406,749.5,803.1406,759.5,807.1406,755.5,803.1406" style="stroke:#181818;stroke-width:1.0;"/><ellipse cx="1100.5" cy="802.3906" fill="none" rx="4" ry="4" style="stroke:#181818;stroke-width:1.5;"/><line style="stroke:#181818;stroke-width:1.0;" x1="753.5" x2="1096" y1="803.1406" y2="803.1406"/><text fill="#000000" font-family="sans-serif" font-size="13" lengthAdjust="spacing" textLength="68" x="765.5" y="798.0747">battleStart</text><polygon fill="#181818" points="869.5,853.2734,879.5,857.2734,869.5,861.2734,873.5,857.2734" style="stroke:#181818;stroke-width:1.0;"/><line style="stroke:#181818;stroke-width:1.0;" x1="748.5" x2="875.5" y1="857.2734" y2="857.2734"/><text fill="#000000" font-family="sans-serif" font-size="13" lengthAdjust="spacing" textLength="109" x="755.5" y="852.2075">&#171;new&#187;(baggage)</text><rect fill="#E2E2F0" height="46.5938" rx="2.5" ry="2.5" style="stroke:#181818;stroke-width:0.5;" width="162" x="881.5" y="836.1406"/><text fill="#000000" font-family="sans-serif" font-size="14" lengthAdjust="spacing" textLength="36" x="944.5" y="856.1357">VCMI</text><text fill="#000000" font-family="sans-serif" font-size="14" font-style="italic" lengthAdjust="spacing" textLength="148" x="888.5" y="872.4326">Battle Interface (BAI)</text><polygon fill="#181818" points="945.5,910.8672,955.5,914.8672,945.5,918.8672,949.5,914.8672" style="stroke:#181818;stroke-width:1.0;"/><line style="stroke:#181818;stroke-width:1.0;" x1="748.5" x2="951.5" y1="914.8672" y2="914.8672"/><text fill="#000000" font-family="sans-serif" font-size="13" lengthAdjust="spacing" textLength="68" x="755.5" y="909.8013">battleStart</text><polygon fill="#181818" points="759.5,924.8672,749.5,928.8672,759.5,932.8672,755.5,928.8672" style="stroke:#181818;stroke-width:1.0;"/><line style="stroke:#181818;stroke-width:1.0;stroke-dasharray:2.0,2.0;" x1="753.5" x2="961.5" y1="928.8672" y2="928.8672"/><polygon fill="#181818" points="1089,938.8672,1099,942.8672,1089,946.8672,1093,942.8672" style="stroke:#181818;stroke-width:1.0;"/><line style="stroke:#181818;stroke-width:1.0;stroke-dasharray:2.0,2.0;" x1="743.5" x2="1095" y1="942.8672" y2="942.8672"/><polygon fill="#181818" points="978.5,968,968.5,972,978.5,976,974.5,972" style="stroke:#181818;stroke-width:1.0;"/><ellipse cx="1100.5" cy="971.25" fill="none" rx="4" ry="4" style="stroke:#181818;stroke-width:1.5;"/><line style="stroke:#181818;stroke-width:1.0;" x1="972.5" x2="1096" y1="972" y2="972"/><text fill="#000000" font-family="sans-serif" font-size="13" lengthAdjust="spacing" textLength="74" x="984.5" y="966.9341">activeStack</text><polygon fill="#181818" points="759.5,997.1328,749.5,1001.1328,759.5,1005.1328,755.5,1001.1328" style="stroke:#181818;stroke-width:1.0;"/><line style="stroke:#181818;stroke-width:1.0;" x1="753.5" x2="956.5" y1="1001.1328" y2="1001.1328"/><text fill="#000000" font-family="sans-serif" font-size="13" lengthAdjust="spacing" textLength="111" x="765.5" y="996.0669">getAction(Result)</text><polygon fill="#181818" points="557.5,1026.2656,547.5,1030.2656,557.5,1034.2656,553.5,1030.2656" style="stroke:#181818;stroke-width:1.0;"/><line style="stroke:#181818;stroke-width:1.0;" x1="551.5" x2="737.5" y1="1030.2656" y2="1030.2656"/><text fill="#000000" font-family="sans-serif" font-size="13" lengthAdjust="spacing" textLength="173" x="563.5" y="1025.1997">baggage.GetAction(Result)</text><line style="stroke:#181818;stroke-width:1.0;" x1="546.5" x2="588.5" y1="1059.3984" y2="1059.3984"/><line style="stroke:#181818;stroke-width:1.0;" x1="588.5" x2="588.5" y1="1059.3984" y2="1072.3984"/><line style="stroke:#181818;stroke-width:1.0;" x1="547.5" x2="588.5" y1="1072.3984" y2="1072.3984"/><polygon fill="#181818" points="557.5,1068.3984,547.5,1072.3984,557.5,1076.3984,553.5,1072.3984" style="stroke:#181818;stroke-width:1.0;"/><text fill="#000000" filter="url(#b1ow2admd1qkfr0)" font-family="sans-serif" font-size="13" lengthAdjust="spacing" textLength="76" x="553.5" y="1054.3325">acquire lock</text><polygon fill="#808080" points="366.5,1097.5313,356.5,1101.5313,366.5,1105.5313,362.5,1101.5313" style="stroke:#808080;stroke-width:1.0;"/><polygon fill="#808080" points="524.5,1097.5313,534.5,1101.5313,524.5,1105.5313,528.5,1101.5313" style="stroke:#808080;stroke-width:1.0;"/><line style="stroke:#808080;stroke-width:1.0;stroke-dasharray:2.0,2.0;" x1="360.5" x2="530.5" y1="1101.5313" y2="1101.5313"/><text fill="#808080" font-family="sans-serif" font-size="13" lengthAdjust="spacing" textLength="55" x="372.5" y="1096.4653">P_Result</text><polygon fill="#0000FF" points="366.5,1126.6641,356.5,1130.6641,366.5,1134.6641,362.5,1130.6641" style="stroke:#0000FF;stroke-width:1.0;"/><line style="stroke:#0000FF;stroke-width:1.0;stroke-dasharray:2.0,2.0;" x1="360.5" x2="535.5" y1="1130.6641" y2="1130.6641"/><text fill="#0000FF" font-family="sans-serif" font-size="13" lengthAdjust="spacing" textLength="72" x="372.5" y="1125.5981">cond.notify</text><line style="stroke:#FF0000;stroke-width:1.0;stroke-dasharray:2.0,2.0;" x1="355.5" x2="397.5" y1="1159.7969" y2="1159.7969"/><line style="stroke:#FF0000;stroke-width:1.0;stroke-dasharray:2.0,2.0;" x1="397.5" x2="397.5" y1="1159.7969" y2="1172.7969"/><line style="stroke:#FF0000;stroke-width:1.0;stroke-dasharray:2.0,2.0;" x1="356.5" x2="397.5" y1="1172.7969" y2="1172.7969"/><polygon fill="#FF0000" points="366.5,1168.7969,356.5,1172.7969,366.5,1176.7969,362.5,1172.7969" style="stroke:#FF0000;stroke-width:1.0;"/><text fill="#FF0000" filter="url(#b1ow2admd1qkfr0)" font-family="sans-serif" font-size="13" lengthAdjust="spacing" textLength="76" x="362.5" y="1154.731">acquire lock</text><line style="stroke:#181818;stroke-width:1.0;" x1="546.5" x2="593.5" y1="1212.0625" y2="1212.0625"/><line style="stroke:#181818;stroke-width:1.0;" x1="593.5" x2="593.5" y1="1212.0625" y2="1225.0625"/><line style="stroke:#181818;stroke-width:1.0;" x1="552.5" x2="593.5" y1="1225.0625" y2="1225.0625"/><polygon fill="#181818" points="562.5,1221.0625,552.5,1225.0625,562.5,1229.0625,558.5,1225.0625" style="stroke:#181818;stroke-width:1.0;"/><text fill="#000000" filter="url(#b1ow2admd1qkfr1)" font-family="sans-serif" font-size="13" lengthAdjust="spacing" textLength="62" x="558.5" y="1191.8638">cond.wait</text><text fill="#FFFF00" filter="url(#b1ow2admd1qkfr2)" font-family="sans-serif" font-size="13" lengthAdjust="spacing" textLength="76" x="558.5" y="1206.9966">release lock</text><line style="stroke:#181818;stroke-width:1.0;" x1="355.5" x2="397.5" y1="1264.1953" y2="1264.1953"/><line style="stroke:#181818;stroke-width:1.0;" x1="397.5" x2="397.5" y1="1264.1953" y2="1277.1953"/><line style="stroke:#181818;stroke-width:1.0;" x1="350.5" x2="397.5" y1="1277.1953" y2="1277.1953"/><polygon fill="#181818" points="360.5,1273.1953,350.5,1277.1953,360.5,1281.1953,356.5,1277.1953" style="stroke:#181818;stroke-width:1.0;"/><text fill="#000000" filter="url(#b1ow2admd1qkfr0)" font-family="sans-serif" font-size="13" lengthAdjust="spacing" textLength="76" x="362.5" y="1259.1294">acquire lock</text><line style="stroke:#181818;stroke-width:1.0;" x1="153.5" x2="195.5" y1="1316.4609" y2="1316.4609"/><line style="stroke:#181818;stroke-width:1.0;" x1="195.5" x2="195.5" y1="1316.4609" y2="1329.4609"/><line style="stroke:#181818;stroke-width:1.0;" x1="154.5" x2="195.5" y1="1329.4609" y2="1329.4609"/><polygon fill="#181818" points="164.5,1325.4609,154.5,1329.4609,164.5,1333.4609,160.5,1329.4609" style="stroke:#181818;stroke-width:1.0;"/><text fill="#000000" font-family="sans-serif" font-size="13" lengthAdjust="spacing" textLength="57" x="160.5" y="1296.2622">set vars:</text><text fill="#000000" font-family="sans-serif" font-size="13" lengthAdjust="spacing" textLength="173" x="160.5" y="1311.395">pf_sys, pf_reset, pf_render</text><polygon fill="#181818" points="83,1354.5938,73,1358.5938,83,1362.5938,79,1358.5938" style="stroke:#181818;stroke-width:1.0;"/><line style="stroke:#181818;stroke-width:1.0;stroke-dasharray:2.0,2.0;" x1="77" x2="147.5" y1="1358.5938" y2="1358.5938"/><text fill="#000000" font-family="sans-serif" font-size="13" lengthAdjust="spacing" textLength="39" x="89" y="1353.5278">&#171;obs&#187;</text><polygon fill="#181818" points="11,1383.7266,1,1387.7266,11,1391.7266,7,1387.7266" style="stroke:#181818;stroke-width:1.0;"/><line style="stroke:#181818;stroke-width:1.0;stroke-dasharray:2.0,2.0;" x1="5" x2="66" y1="1387.7266" y2="1387.7266"/><text fill="#000000" font-family="sans-serif" font-size="13" lengthAdjust="spacing" textLength="23" x="17" y="1382.6606">obs</text><rect fill="#EEEEEE" height="3" style="stroke:#EEEEEE;stroke-width:1.0;" width="1312" x="0" y="1416.293"/><line style="stroke:#000000;stroke-width:1.0;" x1="0" x2="1312" y1="1416.293" y2="1416.293"/><line style="stroke:#000000;stroke-width:1.0;" x1="0" x2="1312" y1="1419.293" y2="1419.293"/><rect fill="#EEEEEE" height="23.1328" style="stroke:#000000;stroke-width:2.0;" width="76" x="618" y="1405.7266"/><text fill="#000000" font-family="sans-serif" font-size="13" font-weight="bold" lengthAdjust="spacing" textLength="57" x="624" y="1421.7935">init end</text><!--SRC=[bLVRRY8v47tlhwWGHe41Ge0t12sHx2QAD3jQRJBxCXaXTxS1AutTOni8KZv-ovU-4KYoBw6xVAhEiUlYZcOwfT3uz-Ql-zxWSdGvX5XmJcCjP6yx1CQPRWI1UcOy8vAiGT7V6yfZUYrUheLCgBmHgP1mVdjx6mHdJHwf3ARGcFpeN5tDhaBqlO2TaCz4YWrFGAyeB4YiyO7W7_gYWQHioTUKQuW91y7JFKGKlHJLi4n5HD9qVma_5EDBMAcCnBJ5so2ftaYku3ki1HVMdA2J4n2lY5J1sMB3Oyq4XwRtQwQKB_Mg7G2SDILLHcd3lZ1yzAlcVRTYU2fe3U4Atqku_Uau6hzWNHdqO60yAK-iitbs6l4m5eBhSQapR7HCd4vZqZShU4Z6BLSRL8KdLCMjfdxHxRS1PvAHD9p49W7ZEqdsuOI5_JvWT7GmqLauwTlby6EcLCJFSnB_dYy8I-ScCwqwPqJYv_6UfgdOvQGIzu8k6oOf6F-IpO3VicLIuFOtYAxJjPfS9DJGsGVeXVvXV58NrX3R4aqzy1obMBQ2uWHTWbfZ_GvXRP_rpTbDVOebHMMyodAIFw7rdRmN7ZipcUy8-rY-IOn1Nngq5_x4VTRo75fab9erILDAL6sVUIx__rbRcLnejjYtcj_HOzO5-tjj5LiBz7e_pwDqGt-5VireT_gCsQbtGIfAFDGueuYgx_4wELr_LgJQCHslZedyO0-LJDZ5Uexpx7lyoPQJD4ljMC9snV2A4XclkiwUpoYBI8f1vGRJ5wLb9bJTiGtXj9XMkCeioVG4k9Xg1K7vt46VJOHktkSAtVA0RJFz3D87G83bgE9BzevbnxdQoddR9uPabTr4UITr2gSxtHBfkc3GTMKvx48-9vqT9gPCbZWNV_ds69OrPinXFG6D9zxeDl9YAxh58XljeWW_eolNKLZYB4ET-BTGMGzp0MGhMA90RJ8giGtnhiFgmuPa72ySnkt5cJ22QjRL4ieFlNtaA7qsxBxW2wSx4wpLFkIEn0iy3WAytZMBMKRm8cxq-t_oRR_V0AA0yktXOhOlFX8yADiVOd2p5T0JTrVPuw1jyUP03ZtCDqY9l7WSN3ZiDbwpGO2Q0QLwlSDFqWqBkWCFG_R4-_rPiiLUDVcxvvfA_3QXq9hDxjj-OuImuuxNH9ilfuhNTUaL7NgvtS5Dof3DWyo-OciusDpeevCPLKvcL3fFf_Px3PH6TvXEWm0l1amVT3gcyYTO0c4O60FQixqpMt20RsWpMQbQtrnR1j0EB0pXDZ4ERtW3zruiZE7XZs-rbPoYryF5s_d3NlbOtcTK8Mz5PBaaIxpbWiguTG821_PUxWoFkjeU4bjigGfm31l-pCMEkukDwVqJBw_X11RuFHkdHE92KBcUA-cgqO_STb8XiWE-4PgjEpKnAPfF4mKLWG8ZOzt1rwzbsiez7G4MARWZQrfKP12OjLxzb8pMu6ICo1RrWqt-w-kh2n2QSZuXfefu4o7oz4u6yfxISo2d2EOE3uF5povOHUgIwfcTOAr_gDgaE06z5DFhkHQhylBk3VHOOG_HN0pil-S5jFgbu2QuAqBNClXtRFzLGIyrVkBPOgxsgWluYv_uLFidpBkq7huZRSbC9Y9Is94_yQOghMWhMzdqzdJw7m00]--></g></svg>